ZillaSlab-Regular.ufo
<glyph name="exclam" format="1">
  <advance width="240"/>
  <unicode hex="0021"/>
  <outline>
    <contour>
      <point x="161" y="650" type="line"/>
      <point x="78" y="650" type="line"/>
      <point x="92" y="192" type="line"/>
      <point x="146" y="192" type="line"/>
    </contour>
    <contour>
      <point x="77" y="0" type="line"/>
      <point x="167" y="0" type="line"/>
      <point x="167" y="97" type="line"/>
      <point x="77" y="97" type="line"/>
    </contour>
  </outline>
</glyph>
<glyph name="quotedbl" format="1">
  <advance width="371"/>
  <unicode hex="0022"/>
  <outline>
    <contour>
      <point x="126" y="377" type="line"/>
      <point x="131" y="650" type="line"/>
      <point x="60" y="650" type="line"/>
      <point x="65" y="377" type="line"/>
    </contour>
    <contour>
      <point x="306" y="377" type="line"/>
      <point x="311" y="650" type="line"/>
      <point x="240" y="650" type="line"/>
      <point x="245" y="377" type="line"/>
    </contour>
  </outline>
</glyph>
<glyph name="dollar" format="1">
  <advance width="470"/>
  <unicode hex="0024"/>
  <outline>
    <contour>
      <point x="426" y="148" type="curve" smooth="yes"/>
      <point x="426" y="261"/>
      <point x="326" y="286"/>
      <point x="259" y="301" type="curve"/>
      <point x="259" y="472" type="line"/>
      <point x="286" y="469"/>
      <point x="312" y="462"/>
      <point x="338" y="446" type="curve"/>
      <point x="349" y="362" type="line"/>
      <point x="408" y="366" type="line"/>
      <point x="402" y="481" type="line"/>
      <point x="367" y="505"/>
      <point x="321" y="524"/>
      <point x="259" y="528" type="curve"/>
      <point x="259" y="593" type="line"/>
      <point x="217" y="593" type="line"/>
      <point x="217" y="528" type="line"/>
      <point x="129" y="524"/>
      <point x="53" y="480"/>
      <point x="53" y="384" type="curve" smooth="yes"/>
      <point x="53" y="282"/>
      <point x="138" y="263"/>
      <point x="217" y="246" type="curve"/>
      <point x="217" y="50" type="line"/>
      <point x="183" y="53"/>
      <point x="146" y="64"/>
      <point x="117" y="78" type="curve"/>
      <point x="125" y="151" type="line"/>
      <point x="65" y="156" type="line"/>
      <point x="48" y="42" type="line"/>
      <point x="81" y="20"/>
      <point x="144" y="-3"/>
      <point x="217" y="-7" type="curve"/>
      <point x="217" y="-65" type="line"/>
      <point x="259" y="-65" type="line"/>
      <point x="259" y="-7" type="line"/>
      <point x="358" y="-1"/>
      <point x="426" y="54"/>
    </contour>
    <contour>
      <point x="351" y="141" type="curve" smooth="yes"/>
      <point x="351" y="85"/>
      <point x="314" y="57"/>
      <point x="259" y="51" type="curve"/>
      <point x="259" y="236" type="line"/>
      <point x="311" y="221"/>
      <point x="351" y="198"/>
    </contour>
    <contour>
      <point x="128" y="392" type="curve" smooth="yes"/>
      <point x="128" y="439"/>
      <point x="162" y="467"/>
      <point x="217" y="472" type="curve"/>
      <point x="217" y="310" type="line"/>
      <point x="167" y="322"/>
      <point x="128" y="339"/>
    </contour>
  </outline>
</glyph>
<glyph name="quotesingle" format="1">
  <advance width="191"/>
  <unicode hex="0027"/>
  <outline>
    <contour>
      <point x="126" y="377" type="line"/>
      <point x="131" y="650" type="line"/>
      <point x="60" y="650" type="line"/>
      <point x="65" y="377" type="line"/>
    </contour>
  </outline>
</glyph>
<glyph name="parenleft" format="1">
  <advance width="274"/>
  <unicode hex="0028"/>
  <outline>
    <contour>
      <point x="200" y="718" type="curve"/>
      <point x="267" y="718" type="line"/>
      <point x="157" y="578"/>
      <point x="101" y="427"/>
      <point x="101" y="270" type="curve" smooth="yes"/>
      <point x="101" y="115"/>
      <point x="156" y="-45"/>
      <point x="267" y="-183" type="curve"/>
      <point x="198" y="-183" type="line"/>
      <point x="87" y="-36"/>
      <point x="39" y="118"/>
      <point x="39" y="270" type="curve" smooth="yes"/>
      <point x="39" y="424"/>
      <point x="90" y="576"/>
    </contour>
  </outline>
</glyph>
<glyph name="parenright" format="1">
  <advance width="275"/>
  <unicode hex="0029"/>
  <outline>
    <contour>
      <point x="74" y="-183" type="curve"/>
      <point x="7" y="-183" type="line"/>
      <point x="117" y="-43"/>
      <point x="173" y="108"/>
      <point x="173" y="265" type="curve" smooth="yes"/>
      <point x="173" y="420"/>
      <point x="118" y="580"/>
      <point x="7" y="718" type="curve"/>
      <point x="76" y="718" type="line"/>
      <point x="187" y="571"/>
      <point x="235" y="417"/>
      <point x="235" y="265" type="curve" smooth="yes"/>
      <point x="235" y="111"/>
      <point x="184" y="-41"/>
    </contour>
  </outline>
</glyph>
<glyph name="asterisk" format="1">
  <advance width="415"/>
  <unicode hex="002A"/>
  <outline>
    <contour>
      <point x="369" y="556" type="line"/>
      <point x="251" y="489" type="line"/>
      <point x="369" y="424" type="line"/>
      <point x="340" y="379" type="line"/>
      <point x="230" y="450" type="line"/>
      <point x="235" y="333" type="line"/>
      <point x="180" y="333" type="line"/>
      <point x="185" y="449" type="line"/>
      <point x="76" y="379" type="line"/>
      <point x="47" y="424" type="line"/>
      <point x="165" y="489" type="line"/>
      <point x="47" y="556" type="line"/>
      <point x="76" y="601" type="line"/>
      <point x="185" y="528" type="line"/>
      <point x="180" y="650" type="line"/>
      <point x="235" y="650" type="line"/>
      <point x="229" y="528" type="line"/>
      <point x="340" y="601" type="line"/>
    </contour>
  </outline>
</glyph>
<glyph name="hyphen" format="1">
  <advance width="348"/>
  <unicode hex="002D"/>
  <unicode hex="00AD"/>
  <outline>
    <contour>
      <point x="58" y="261" type="line"/>
      <point x="289" y="261" type="line"/>
      <point x="289" y="200" type="line"/>
      <point x="58" y="200" type="line"/>
    </contour>
  </outline>
</glyph>
<glyph name="period" format="1">
  <advance width="211"/>
  <unicode hex="002E"/>
  <outline>
    <contour>
      <point x="57" y="0" type="line"/>
      <point x="154" y="0" type="line"/>
      <point x="154" y="108" type="line"/>
      <point x="57" y="108" type="line"/>
    </contour>
  </outline>
</glyph>
<glyph name="slash" format="1">
  <advance width="339"/>
  <unicode hex="002F"/>
  <outline>
    <contour>
      <point x="316" y="688" type="line"/>
      <point x="101" y="0" type="line"/>
      <point x="32" y="0" type="line"/>
      <point x="247" y="688" type="line"/>
    </contour>
  </outline>
</glyph>
<glyph name="one" format="1">
  <advance width="385"/>
  <unicode hex="0031"/>
  <outline>
    <contour>
      <point x="365" y="0" type="line"/>
      <point x="365" y="64" type="line"/>
      <point x="248" y="64" type="line"/>
      <point x="248" y="521" type="line"/>
      <point x="52" y="521" type="line"/>
      <point x="52" y="457" type="line"/>
      <point x="174" y="457" type="line"/>
      <point x="174" y="64" type="line"/>
      <point x="52" y="64" type="line"/>
      <point x="52" y="0" type="line"/>
    </contour>
  </outline>
</glyph>
<glyph name="seven" format="1">
  <advance width="471"/>
  <unicode hex="0037"/>
  <outline>
    <contour>
      <point x="455" y="479" type="line"/>
      <point x="445" y="521" type="line"/>
      <point x="34" y="521" type="line"/>
      <point x="34" y="347" type="line"/>
      <point x="100" y="347" type="line"/>
      <point x="100" y="458" type="line"/>
      <point x="377" y="458" type="line"/>
      <point x="135" y="-130" type="line"/>
      <point x="208" y="-130" type="line"/>
    </contour>
  </outline>
</glyph>
<glyph name="colon" format="1">
  <advance width="224"/>
  <unicode hex="003A"/>
  <outline>
    <contour>
      <point x="65" y="0" type="line"/>
      <point x="159" y="0" type="line"/>
      <point x="159" y="108" type="line"/>
      <point x="65" y="108" type="line"/>
    </contour>
    <contour>
      <point x="65" y="337" type="line"/>
      <point x="159" y="337" type="line"/>
      <point x="159" y="445" type="line"/>
      <point x="65" y="445" type="line"/>
    </contour>
  </outline>
</glyph>
<glyph name="semicolon" format="1">
  <advance width="234"/>
  <unicode hex="003B"/>
  <outline>
    <contour>
      <point x="154" y="114" type="line"/>
      <point x="85" y="114" type="line"/>
      <point x="32" y="-102" type="line"/>
      <point x="101" y="-102" type="line"/>
    </contour>
    <contour>
      <point x="79" y="337" type="line"/>
      <point x="173" y="337" type="line"/>
      <point x="173" y="445" type="line"/>
      <point x="79" y="445" type="line"/>
    </contour>
  </outline>
</glyph>
<glyph name="less" format="1">
  <advance width="407"/>
  <unicode hex="003C"/>
  <outline>
    <contour>
      <point x="349" y="14" type="line"/>
      <point x="349" y="83" type="line"/>
      <point x="107" y="280" type="line"/>
      <point x="348" y="480" type="line"/>
      <point x="348" y="549" type="line"/>
      <point x="30" y="289" type="line"/>
      <point x="30" y="269" type="line"/>
    </contour>
  </outline>
</glyph>
<glyph name="greater" format="1">
  <advance width="407"/>
  <unicode hex="003E"/>
  <outline>
    <contour>
      <point x="377" y="269" type="line"/>
      <point x="377" y="289" type="line"/>
      <point x="59" y="549" type="line"/>
      <point x="59" y="480" type="line"/>
      <point x="300" y="280" type="line"/>
      <point x="58" y="83" type="line"/>
      <point x="58" y="14" type="line"/>
    </contour>
  </outline>
</glyph>
<glyph name="at" format="1">
  <advance width="906"/>
  <unicode hex="0040"/>
  <outline>
    <contour>
      <point x="298" y="405" type="curve"/>
      <point x="280" y="301" type="line"/>
      <point x="333" y="295" type="line"/>
      <point x="352" y="372" type="line"/>
      <point x="385" y="393"/>
      <point x="415" y="400"/>
      <point x="451" y="400" type="curve" smooth="yes"/>
      <point x="522" y="400"/>
      <point x="546" y="356"/>
      <point x="546" y="288" type="curve" smooth="yes"/>
      <point x="546" y="246" type="line"/>
      <point x="522" y="247"/>
      <point x="494" y="249"/>
      <point x="468" y="249" type="curve" smooth="yes"/>
      <point x="368" y="249"/>
      <point x="258" y="227"/>
      <point x="258" y="115" type="curve" smooth="yes"/>
      <point x="258" y="20"/>
      <point x="335" y="-10"/>
      <point x="396" y="-10" type="curve" smooth="yes"/>
      <point x="469" y="-10"/>
      <point x="522" y="37"/>
      <point x="549" y="87" type="curve"/>
      <point x="560" y="29"/>
      <point x="605" y="-10"/>
      <point x="675" y="-10" type="curve" smooth="yes"/>
      <point x="816" y="-10"/>
      <point x="861" y="144"/>
      <point x="861" y="272" type="curve" smooth="yes"/>
      <point x="861" y="557"/>
      <point x="639" y="654"/>
      <point x="462" y="654" type="curve" smooth="yes"/>
      <point x="214" y="654"/>
      <point x="40" y="459"/>
      <point x="40" y="219" type="curve" smooth="yes"/>
      <point x="40" y="-29"/>
      <point x="225" y="-202"/>
      <point x="458" y="-202" type="curve" smooth="yes"/>
      <point x="553" y="-202"/>
      <point x="642" y="-174"/>
      <point x="708" y="-130" type="curve"/>
      <point x="684" y="-85" type="line"/>
      <point x="624" y="-126"/>
      <point x="543" y="-147"/>
      <point x="467" y="-147" type="curve" smooth="yes"/>
      <point x="275" y="-147"/>
      <point x="100" y="-16"/>
      <point x="100" y="224" type="curve" smooth="yes"/>
      <point x="100" y="446"/>
      <point x="250" y="599"/>
      <point x="465" y="599" type="curve" smooth="yes"/>
      <point x="621" y="599"/>
      <point x="801" y="520"/>
      <point x="801" y="252" type="curve" smooth="yes"/>
      <point x="801" y="156"/>
      <point x="776" y="40"/>
      <point x="690" y="40" type="curve" smooth="yes"/>
      <point x="646" y="40"/>
      <point x="617" y="68"/>
      <point x="617" y="112" type="curve" smooth="yes"/>
      <point x="617" y="305" type="line" smooth="yes"/>
      <point x="617" y="399"/>
      <point x="564" y="454"/>
      <point x="461" y="454" type="curve" smooth="yes"/>
      <point x="385" y="454"/>
      <point x="340" y="434"/>
    </contour>
    <contour>
      <point x="546" y="204" type="curve"/>
      <point x="546" y="173" type="line" smooth="yes"/>
      <point x="545" y="97"/>
      <point x="480" y="45"/>
      <point x="417" y="45" type="curve" smooth="yes"/>
      <point x="376" y="45"/>
      <point x="333" y="66"/>
      <point x="333" y="123" type="curve" smooth="yes"/>
      <point x="333" y="194"/>
      <point x="398" y="209"/>
      <point x="466" y="209" type="curve" smooth="yes"/>
      <point x="493" y="209"/>
      <point x="522" y="206"/>
    </contour>
  </outline>
</glyph>
<glyph name="I" format="1">
  <advance width="322"/>
  <unicode hex="0049"/>
  <outline>
    <contour>
      <point x="279" y="0" type="line"/>
      <point x="279" y="64" type="line"/>
      <point x="198" y="64" type="line"/>
      <point x="198" y="586" type="line"/>
      <point x="279" y="586" type="line"/>
      <point x="279" y="650" type="line"/>
      <point x="42" y="650" type="line"/>
      <point x="42" y="586" type="line"/>
      <point x="124" y="586" type="line"/>
      <point x="124" y="64" type="line"/>
      <point x="42" y="64" type="line"/>
      <point x="42" y="0" type="line"/>
    </contour>
  </outline>
</glyph>
<glyph name="K" format="1">
  <advance width="642"/>
  <unicode hex="004B"/>
  <outline>
    <contour>
      <point x="635" y="0" type="line"/>
      <point x="635" y="64" type="line"/>
      <point x="562" y="64" type="line"/>
      <point x="362" y="338" type="line"/>
      <point x="549" y="587" type="line"/>
      <point x="623" y="587" type="line"/>
      <point x="623" y="651" type="line"/>
      <point x="394" y="651" type="line"/>
      <point x="394" y="587" type="line"/>
      <point x="471" y="587" type="line"/>
      <point x="304" y="362" type="line"/>
      <point x="198" y="362" type="line"/>
      <point x="198" y="586" type="line"/>
      <point x="274" y="586" type="line"/>
      <point x="274" y="650" type="line"/>
      <point x="42" y="650" type="line"/>
      <point x="42" y="586" type="line"/>
      <point x="124" y="586" type="line"/>
      <point x="124" y="64" type="line"/>
      <point x="42" y="64" type="line"/>
      <point x="42" y="0" type="line"/>
      <point x="273" y="0" type="line"/>
      <point x="273" y="64" type="line"/>
      <point x="198" y="64" type="line"/>
      <point x="198" y="299" type="line"/>
      <point x="306" y="299" type="line"/>
      <point x="478" y="64" type="line"/>
      <point x="401" y="64" type="line"/>
      <point x="401" y="0" type="line"/>
    </contour>
  </outline>
</glyph>
<glyph name="M" format="1">
  <advance width="882"/>
  <unicode hex="004D"/>
  <outline>
    <contour>
      <point x="842" y="586" type="line"/>
      <point x="842" y="650" type="line"/>
      <point x="692" y="650" type="line"/>
      <point x="446" y="141" type="line"/>
      <point x="442" y="141" type="line"/>
      <point x="189" y="650" type="line"/>
      <point x="40" y="650" type="line"/>
      <point x="40" y="586" type="line"/>
      <point x="125" y="586" type="line"/>
      <point x="125" y="64" type="line"/>
      <point x="43" y="64" type="line"/>
      <point x="43" y="0" type="line"/>
      <point x="273" y="0" type="line"/>
      <point x="273" y="64" type="line"/>
      <point x="195" y="64" type="line"/>
      <point x="195" y="481" type="line"/>
      <point x="199" y="481" type="line"/>
      <point x="422" y="33" type="line"/>
      <point x="461" y="33" type="line"/>
      <point x="679" y="478" type="line"/>
      <point x="683" y="478" type="line"/>
      <point x="683" y="64" type="line"/>
      <point x="607" y="64" type="line"/>
      <point x="607" y="0" type="line"/>
      <point x="838" y="0" type="line"/>
      <point x="838" y="64" type="line"/>
      <point x="757" y="64" type="line"/>
      <point x="757" y="586" type="line"/>
    </contour>
  </outline>
</glyph>
<glyph name="N" format="1">
  <advance width="738"/>
  <unicode hex="004E"/>
  <outline>
    <contour>
      <point x="703" y="586" type="line"/>
      <point x="703" y="650" type="line"/>
      <point x="454" y="650" type="line"/>
      <point x="454" y="586" type="line"/>
      <point x="552" y="586" type="line"/>
      <point x="552" y="149" type="line"/>
      <point x="548" y="149" type="line"/>
      <point x="178" y="650" type="line"/>
      <point x="38" y="650" type="line"/>
      <point x="38" y="586" type="line"/>
      <point x="124" y="586" type="line"/>
      <point x="124" y="64" type="line"/>
      <point x="49" y="64" type="line"/>
      <point x="49" y="0" type="line"/>
      <point x="297" y="0" type="line"/>
      <point x="297" y="64" type="line"/>
      <point x="194" y="64" type="line"/>
      <point x="194" y="512" type="line"/>
      <point x="198" y="512" type="line"/>
      <point x="575" y="0" type="line"/>
      <point x="622" y="0" type="line"/>
      <point x="622" y="586" type="line"/>
    </contour>
    <contour>
      <point x="348" y="727" type="move" name="top"/>
    </contour>
  </outline>
</glyph>
<glyph name="P" format="1">
  <advance width="574"/>
  <unicode hex="0050"/>
  <outline>
    <contour>
      <point x="544" y="451" type="curve" smooth="yes"/>
      <point x="544" y="559"/>
      <point x="479" y="650"/>
      <point x="318" y="650" type="curve" smooth="yes"/>
      <point x="42" y="650" type="line"/>
      <point x="42" y="586" type="line"/>
      <point x="124" y="586" type="line"/>
      <point x="124" y="64" type="line"/>
      <point x="42" y="64" type="line"/>
      <point x="42" y="0" type="line"/>
      <point x="309" y="0" type="line"/>
      <point x="309" y="64" type="line"/>
      <point x="197" y="64" type="line"/>
      <point x="197" y="242" type="line"/>
      <point x="324" y="242" type="line" smooth="yes"/>
      <point x="452" y="242"/>
      <point x="544" y="315"/>
    </contour>
    <contour>
      <point x="466" y="449" type="curve" smooth="yes"/>
      <point x="466" y="358"/>
      <point x="412" y="306"/>
      <point x="315" y="306" type="curve" smooth="yes"/>
      <point x="197" y="306" type="line"/>
      <point x="197" y="586" type="line"/>
      <point x="312" y="586" type="line" smooth="yes"/>
      <point x="418" y="586"/>
      <point x="466" y="533"/>
    </contour>
  </outline>
</glyph>
<glyph name="R" format="1">
  <advance width="617"/>
  <unicode hex="0052"/>
  <outline>
    <contour>
      <point x="607" y="0" type="line"/>
      <point x="607" y="64" type="line"/>
      <point x="525" y="64" type="line"/>
      <point x="409" y="286" type="line"/>
      <point x="501" y="310"/>
      <point x="548" y="382"/>
      <point x="548" y="466" type="curve" smooth="yes"/>
      <point x="548" y="571"/>
      <point x="484" y="650"/>
      <point x="323" y="650" type="curve" smooth="yes"/>
      <point x="42" y="650" type="line"/>
      <point x="42" y="586" type="line"/>
      <point x="124" y="586" type="line"/>
      <point x="124" y="64" type="line"/>
      <point x="42" y="64" type="line"/>
      <point x="42" y="0" type="line"/>
      <point x="285" y="0" type="line"/>
      <point x="285" y="64" type="line"/>
      <point x="198" y="64" type="line"/>
      <point x="198" y="272" type="line"/>
      <point x="337" y="272" type="line"/>
      <point x="477" y="0" type="line"/>
    </contour>
    <contour>
      <point x="471" y="463" type="curve" smooth="yes"/>
      <point x="471" y="382"/>
      <point x="427" y="333"/>
      <point x="316" y="333" type="curve" smooth="yes"/>
      <point x="198" y="333" type="line"/>
      <point x="198" y="586" type="line"/>
      <point x="314" y="586" type="line" smooth="yes"/>
      <point x="425" y="586"/>
      <point x="471" y="548"/>
    </contour>
  </outline>
</glyph>
<glyph name="U" format="1">
  <advance width="718"/>
  <unicode hex="0055"/>
  <outline>
    <contour>
      <point x="680" y="586" type="line"/>
      <point x="680" y="650" type="line"/>
      <point x="455" y="650" type="line"/>
      <point x="455" y="586" type="line"/>
      <point x="548" y="586" type="line"/>
      <point x="548" y="267" type="line" smooth="yes"/>
      <point x="548" y="128"/>
      <point x="482" y="56"/>
      <point x="361" y="56" type="curve" smooth="yes"/>
      <point x="236" y="56"/>
      <point x="177" y="130"/>
      <point x="177" y="258" type="curve" smooth="yes"/>
      <point x="177" y="586" type="line"/>
      <point x="267" y="586" type="line"/>
      <point x="267" y="650" type="line"/>
      <point x="36" y="650" type="line"/>
      <point x="36" y="586" type="line"/>
      <point x="103" y="586" type="line"/>
      <point x="103" y="256" type="line" smooth="yes"/>
      <point x="103" y="116"/>
      <point x="164" y="-10"/>
      <point x="357" y="-10" type="curve" smooth="yes"/>
      <point x="557" y="-10"/>
      <point x="617" y="129"/>
      <point x="617" y="267" type="curve" smooth="yes"/>
      <point x="617" y="586" type="line"/>
    </contour>
  </outline>
</glyph>
<glyph name="V" format="1">
  <advance width="648"/>
  <unicode hex="0056"/>
  <outline>
    <contour>
      <point x="649" y="586" type="line"/>
      <point x="649" y="650" type="line"/>
      <point x="421" y="650" type="line"/>
      <point x="421" y="586" type="line"/>
      <point x="513" y="586" type="line"/>
      <point x="331" y="108" type="line"/>
      <point x="326" y="108" type="line"/>
      <point x="140" y="586" type="line"/>
      <point x="231" y="586" type="line"/>
      <point x="231" y="650" type="line"/>
      <point x="-4" y="650" type="line"/>
      <point x="-4" y="586" type="line"/>
      <point x="60" y="586" type="line"/>
      <point x="295" y="0" type="line"/>
      <point x="353" y="0" type="line"/>
      <point x="588" y="586" type="line"/>
    </contour>
  </outline>
</glyph>
<glyph name="backslash" format="1">
  <advance width="387"/>
  <unicode hex="005C"/>
  <outline>
    <contour>
      <point x="92" y="688" type="line"/>
      <point x="307" y="0" type="line"/>
      <point x="376" y="0" type="line"/>
      <point x="161" y="688" type="line"/>
    </contour>
  </outline>
</glyph>
<glyph name="bracketright" format="1">
  <advance width="282"/>
  <unicode hex="005D"/>
  <outline>
    <contour>
      <point x="197" y="-213" type="line"/>
      <point x="20" y="-213" type="line"/>
      <point x="20" y="-161" type="line"/>
      <point x="134" y="-161" type="line"/>
      <point x="134" y="698" type="line"/>
      <point x="20" y="698" type="line"/>
      <point x="20" y="750" type="line"/>
      <point x="197" y="750" type="line"/>
    </contour>
  </outline>
</glyph>
<glyph name="asciicircum" format="1">
  <advance width="452"/>
  <unicode hex="005E"/>
  <outline>
    <contour>
      <point x="202" y="656" type="line"/>
      <point x="41" y="373" type="line"/>
      <point x="107" y="373" type="line"/>
      <point x="224" y="587" type="line"/>
      <point x="347" y="373" type="line"/>
      <point x="413" y="373" type="line"/>
      <point x="247" y="656" type="line"/>
    </contour>
  </outline>
</glyph>
<glyph name="underscore" format="1">
  <advance width="534"/>
  <unicode hex="005F"/>
  <outline>
    <contour>
      <point x="52" y="-74" type="line"/>
      <point x="484" y="-74" type="line"/>
      <point x="484" y="-125" type="line"/>
      <point x="52" y="-125" type="line"/>
    </contour>
  </outline>
</glyph>
<glyph name="grave" format="1">
  <advance width="440"/>
  <unicode hex="0060"/>
  <outline>
    <contour>
      <point x="352" y="551" type="line"/>
      <point x="198" y="683" type="line"/>
      <point x="158" y="624" type="line"/>
      <point x="331" y="520" type="line"/>
    </contour>
  </outline>
</glyph>
<glyph name="d" format="1">
  <advance width="549"/>
  <unicode hex="0064"/>
  <outline>
    <contour>
      <point x="535" y="0" type="line"/>
      <point x="535" y="57" type="line"/>
      <point x="458" y="57" type="line"/>
      <point x="458" y="688" type="line"/>
      <point x="280" y="688" type="line"/>
      <point x="280" y="631" type="line"/>
      <point x="388" y="631" type="line"/>
      <point x="388" y="373" type="line"/>
      <point x="359" y="425"/>
      <point x="304" y="454"/>
      <point x="239" y="454" type="curve" smooth="yes"/>
      <point x="94" y="454"/>
      <point x="38" y="330"/>
      <point x="38" y="211" type="curve" smooth="yes"/>
      <point x="38" y="72"/>
      <point x="114" y="-10"/>
      <point x="229" y="-10" type="curve" smooth="yes"/>
      <point x="310" y="-10"/>
      <point x="359" y="37"/>
      <point x="388" y="90" type="curve"/>
      <point x="388" y="0" type="line"/>
    </contour>
    <contour>
      <point x="388" y="197" type="line"/>
      <point x="385" y="130"/>
      <point x="327" y="50"/>
      <point x="247" y="50" type="curve" smooth="yes"/>
      <point x="170" y="50"/>
      <point x="112" y="107"/>
      <point x="112" y="216" type="curve" smooth="yes"/>
      <point x="112" y="310"/>
      <point x="156" y="394"/>
      <point x="255" y="394" type="curve" smooth="yes"/>
      <point x="326" y="394"/>
      <point x="385" y="342"/>
      <point x="388" y="268" type="curve"/>
    </contour>
  </outline>
</glyph>
<glyph name="h" format="1">
  <advance width="560"/>
  <unicode hex="0068"/>
  <outline>
    <contour>
      <point x="551" y="0" type="line"/>
      <point x="551" y="57" type="line"/>
      <point x="474" y="57" type="line"/>
      <point x="474" y="285" type="line" smooth="yes"/>
      <point x="474" y="403"/>
      <point x="408" y="454"/>
      <point x="321" y="454" type="curve" smooth="yes"/>
      <point x="249" y="454"/>
      <point x="195" y="420"/>
      <point x="165" y="365" type="curve"/>
      <point x="165" y="688" type="line"/>
      <point x="17" y="688" type="line"/>
      <point x="17" y="631" type="line"/>
      <point x="94" y="631" type="line"/>
      <point x="94" y="57" type="line"/>
      <point x="17" y="57" type="line"/>
      <point x="17" y="0" type="line"/>
      <point x="242" y="0" type="line"/>
      <point x="242" y="57" type="line"/>
      <point x="165" y="57" type="line"/>
      <point x="165" y="267" type="line"/>
      <point x="168" y="332"/>
      <point x="220" y="395"/>
      <point x="298" y="395" type="curve" smooth="yes"/>
      <point x="360" y="395"/>
      <point x="403" y="360"/>
      <point x="403" y="264" type="curve" smooth="yes"/>
      <point x="403" y="57" type="line"/>
      <point x="325" y="57" type="line"/>
      <point x="325" y="0" type="line"/>
    </contour>
    <contour>
      <point x="280" y="566" type="move" name="top"/>
    </contour>
  </outline>
</glyph>
<glyph name="o" format="1">
  <advance width="513"/>
  <unicode hex="006F"/>
  <outline>
    <contour>
      <point x="476" y="223" type="curve" smooth="yes"/>
      <point x="476" y="349"/>
      <point x="402" y="455"/>
      <point x="257" y="455" type="curve" smooth="yes"/>
      <point x="113" y="455"/>
      <point x="37" y="349"/>
      <point x="37" y="219" type="curve" smooth="yes"/>
      <point x="37" y="85"/>
      <point x="118" y="-10"/>
      <point x="253" y="-10" type="curve" smooth="yes"/>
      <point x="390" y="-10"/>
      <point x="476" y="88"/>
    </contour>
    <contour>
      <point x="402" y="224" type="curve" smooth="yes"/>
      <point x="402" y="124"/>
      <point x="350" y="50"/>
      <point x="255" y="50" type="curve" smooth="yes"/>
      <point x="160" y="50"/>
      <point x="110" y="126"/>
      <point x="110" y="223" type="curve" smooth="yes"/>
      <point x="110" y="322"/>
      <point x="162" y="395"/>
      <point x="255" y="395" type="curve" smooth="yes"/>
      <point x="348" y="395"/>
      <point x="402" y="326"/>
    </contour>
  </outline>
</glyph>
<glyph name="q" format="1">
  <advance width="534"/>
  <unicode hex="0071"/>
  <outline>
    <contour>
      <point x="527" y="-213" type="line"/>
      <point x="527" y="-156" type="line"/>
      <point x="459" y="-156" type="line"/>
      <point x="459" y="307" type="line" smooth="yes"/>
      <point x="459" y="353"/>
      <point x="465" y="399"/>
      <point x="474" y="445" type="curve"/>
      <point x="404" y="445" type="line"/>
      <point x="399" y="419"/>
      <point x="396" y="393"/>
      <point x="394" y="368" type="curve"/>
      <point x="366" y="423"/>
      <point x="306" y="454"/>
      <point x="236" y="454" type="curve" smooth="yes"/>
      <point x="95" y="454"/>
      <point x="38" y="327"/>
      <point x="38" y="210" type="curve" smooth="yes"/>
      <point x="38" y="69"/>
      <point x="119" y="-10"/>
      <point x="229" y="-10" type="curve" smooth="yes"/>
      <point x="313" y="-10"/>
      <point x="361" y="37"/>
      <point x="388" y="91" type="curve"/>
      <point x="388" y="-156" type="line"/>
      <point x="284" y="-156" type="line"/>
      <point x="284" y="-213" type="line"/>
    </contour>
    <contour>
      <point x="388" y="197" type="line"/>
      <point x="386" y="130"/>
      <point x="330" y="50"/>
      <point x="246" y="50" type="curve" smooth="yes"/>
      <point x="171" y="50"/>
      <point x="112" y="106"/>
      <point x="112" y="217" type="curve" smooth="yes"/>
      <point x="112" y="309"/>
      <point x="153" y="394"/>
      <point x="251" y="394" type="curve" smooth="yes"/>
      <point x="326" y="394"/>
      <point x="388" y="339"/>
      <point x="388" y="264" type="curve" smooth="yes"/>
    </contour>
  </outline>
</glyph>
<glyph name="r" format="1">
  <advance width="420"/>
  <unicode hex="0072"/>
  <outline>
    <contour>
      <point x="284" y="453" type="curve" smooth="yes"/>
      <point x="233" y="453"/>
      <point x="191" y="415"/>
      <point x="174" y="365" type="curve"/>
      <point x="174" y="445" type="line"/>
      <point x="28" y="445" type="line"/>
      <point x="28" y="388" type="line"/>
      <point x="108" y="388" type="line"/>
      <point x="108" y="57" type="line"/>
      <point x="30" y="57" type="line"/>
      <point x="30" y="0" type="line"/>
      <point x="281" y="0" type="line"/>
      <point x="281" y="57" type="line"/>
      <point x="178" y="57" type="line"/>
      <point x="178" y="276" type="line" smooth="yes"/>
      <point x="178" y="345"/>
      <point x="217" y="393"/>
      <point x="269" y="393" type="curve" smooth="yes"/>
      <point x="281" y="393"/>
      <point x="292" y="391"/>
      <point x="303" y="387" type="curve"/>
      <point x="320" y="311" type="line"/>
      <point x="377" y="318" type="line"/>
      <point x="360" y="430" type="line"/>
      <point x="338" y="448"/>
      <point x="315" y="453"/>
    </contour>
    <contour>
      <point x="310" y="566" type="move" name="top"/>
    </contour>
  </outline>
</glyph>
<glyph name="braceleft" format="1">
  <advance width="280"/>
  <unicode hex="007B"/>
  <outline>
    <contour>
      <point x="110" y="267" type="curve"/>
      <point x="182" y="278"/>
      <point x="208" y="314"/>
      <point x="208" y="351" type="curve" smooth="yes"/>
      <point x="208" y="416"/>
      <point x="122" y="545"/>
      <point x="122" y="634" type="curve" smooth="yes"/>
      <point x="122" y="678"/>
      <point x="143" y="698"/>
      <point x="185" y="698" type="curve" smooth="yes"/>
      <point x="249" y="698" type="line"/>
      <point x="249" y="750" type="line"/>
      <point x="185" y="750" type="line" smooth="yes"/>
      <point x="105" y="750"/>
      <point x="62" y="706"/>
      <point x="62" y="634" type="curve" smooth="yes"/>
      <point x="62" y="535"/>
      <point x="147" y="408"/>
      <point x="147" y="348" type="curve" smooth="yes"/>
      <point x="147" y="296"/>
      <point x="79" y="287"/>
      <point x="49" y="287" type="curve" smooth="yes"/>
      <point x="30" y="287" type="line"/>
      <point x="30" y="247" type="line"/>
      <point x="49" y="247" type="line" smooth="yes"/>
      <point x="80" y="247"/>
      <point x="147" y="237"/>
      <point x="147" y="185" type="curve" smooth="yes"/>
      <point x="147" y="125"/>
      <point x="62" y="3"/>
      <point x="62" y="-96" type="curve" smooth="yes"/>
      <point x="62" y="-165"/>
      <point x="103" y="-212"/>
      <point x="185" y="-212" type="curve" smooth="yes"/>
      <point x="249" y="-212" type="line"/>
      <point x="249" y="-160" type="line"/>
      <point x="185" y="-160" type="line" smooth="yes"/>
      <point x="143" y="-160"/>
      <point x="122" y="-140"/>
      <point x="122" y="-96" type="curve" smooth="yes"/>
      <point x="122" y="-8"/>
      <point x="208" y="117"/>
      <point x="208" y="183" type="curve" smooth="yes"/>
      <point x="208" y="220"/>
      <point x="181" y="255"/>
    </contour>
  </outline>
</glyph>
<glyph name="bar" format="1">
  <advance width="233"/>
  <unicode hex="007C"/>
  <outline>
    <contour>
      <point x="148" y="730" type="line"/>
      <point x="148" y="-80" type="line"/>
      <point x="85" y="-80" type="line"/>
      <point x="85" y="730" type="line"/>
    </contour>
  </outline>
</glyph>
<glyph name="asciitilde" format="1">
  <advance width="611"/>
  <unicode hex="007E"/>
  <outline>
    <contour>
      <point x="417" y="200" type="curve" smooth="yes"/>
      <point x="478" y="200"/>
      <point x="525" y="235"/>
      <point x="567" y="312" type="curve"/>
      <point x="521" y="342" type="line"/>
      <point x="486" y="282"/>
      <point x="458" y="265"/>
      <point x="417" y="265" type="curve" smooth="yes"/>
      <point x="330" y="265"/>
      <point x="278" y="336"/>
      <point x="192" y="336" type="curve" smooth="yes"/>
      <point x="138" y="336"/>
      <point x="86" y="306"/>
      <point x="47" y="234" type="curve"/>
      <point x="89" y="207" type="line"/>
      <point x="124" y="261"/>
      <point x="156" y="271"/>
      <point x="188" y="271" type="curve" smooth="yes"/>
      <point x="273" y="271"/>
      <point x="324" y="200"/>
    </contour>
  </outline>
</glyph>
<glyph name="exclamdown" format="1">
  <advance width="223"/>
  <unicode hex="00A1"/>
  <outline>
    <contour>
      <point x="153" y="-210" type="line"/>
      <point x="139" y="248" type="line"/>
      <point x="85" y="248" type="line"/>
      <point x="70" y="-210" type="line"/>
    </contour>
    <contour>
      <point x="64" y="349" type="line"/>
      <point x="154" y="349" type="line"/>
      <point x="154" y="446" type="line"/>
      <point x="64" y="446" type="line"/>
    </contour>
  </outline>
</glyph>
<glyph name="cent" format="1">
  <advance width="475"/>
  <unicode hex="00A2"/>
  <outline>
    <contour>
      <point x="430" y="150" type="curve"/>
      <point x="371" y="163" type="line"/>
      <point x="358" y="97"/>
      <point x="327" y="59"/>
      <point x="271" y="52" type="curve"/>
      <point x="271" y="392" type="line"/>
      <point x="298" y="389"/>
      <point x="321" y="381"/>
      <point x="342" y="368" type="curve"/>
      <point x="359" y="294" type="line"/>
      <point x="417" y="301" type="line"/>
      <point x="400" y="408" type="line"/>
      <point x="361" y="437"/>
      <point x="319" y="450"/>
      <point x="271" y="453" type="curve"/>
      <point x="271" y="529" type="line"/>
      <point x="225" y="529" type="line"/>
      <point x="225" y="452" type="line"/>
      <point x="102" y="440"/>
      <point x="40" y="332"/>
      <point x="40" y="216" type="curve" smooth="yes"/>
      <point x="40" y="80"/>
      <point x="111" y="-2"/>
      <point x="225" y="-9" type="curve"/>
      <point x="225" y="-84" type="line"/>
      <point x="271" y="-84" type="line"/>
      <point x="271" y="-8" type="line"/>
      <point x="373" y="3"/>
      <point x="419" y="78"/>
    </contour>
    <contour>
      <point x="116" y="220" type="curve" smooth="yes"/>
      <point x="116" y="308"/>
      <point x="146" y="379"/>
      <point x="225" y="391" type="curve"/>
      <point x="225" y="53" type="line"/>
      <point x="153" y="64"/>
      <point x="116" y="123"/>
    </contour>
  </outline>
</glyph>
<glyph name="yen" format="1">
  <advance width="587"/>
  <unicode hex="00A5"/>
  <outline>
    <contour>
      <point x="237" y="465" type="line"/>
      <point x="166" y="465" type="line"/>
      <point x="298" y="259" type="line"/>
      <point x="303" y="259" type="line"/>
      <point x="430" y="465" type="line"/>
      <point x="357" y="465" type="line"/>
      <point x="357" y="521" type="line"/>
      <point x="553" y="521" type="line"/>
      <point x="553" y="465" type="line"/>
      <point x="502" y="465" type="line"/>
      <point x="364" y="249" type="line"/>
      <point x="467" y="249" type="line"/>
      <point x="467" y="206" type="line"/>
      <point x="336" y="206" type="line"/>
      <point x="332" y="199" type="line"/>
      <point x="332" y="152" type="line"/>
      <point x="467" y="152" type="line"/>
      <point x="467" y="110" type="line"/>
      <point x="332" y="110" type="line"/>
      <point x="332" y="56" type="line"/>
      <point x="428" y="56" type="line"/>
      <point x="428" y="0" type="line"/>
      <point x="169" y="0" type="line"/>
      <point x="169" y="56" type="line"/>
      <point x="262" y="56" type="line"/>
      <point x="262" y="110" type="line"/>
      <point x="125" y="110" type="line"/>
      <point x="125" y="152" type="line"/>
      <point x="262" y="152" type="line"/>
      <point x="262" y="200" type="line"/>
      <point x="258" y="206" type="line"/>
      <point x="125" y="206" type="line"/>
      <point x="125" y="249" type="line"/>
      <point x="229" y="249" type="line"/>
      <point x="86" y="465" type="line"/>
      <point x="34" y="465" type="line"/>
      <point x="34" y="521" type="line"/>
      <point x="237" y="521" type="line"/>
    </contour>
  </outline>
</glyph>
<glyph name="section" format="1">
  <advance width="589"/>
  <unicode hex="00A7"/>
  <outline>
    <contour>
      <point x="503" y="137" type="curve" smooth="yes"/>
      <point x="503" y="164"/>
      <point x="495" y="186"/>
      <point x="480" y="202" type="curve"/>
      <point x="525" y="224"/>
      <point x="554" y="257"/>
      <point x="554" y="303" type="curve" smooth="yes"/>
      <point x="554" y="404"/>
      <point x="410" y="418"/>
      <point x="295" y="437" type="curve" smooth="yes"/>
      <point x="218" y="450"/>
      <point x="156" y="468"/>
      <point x="156" y="527" type="curve" smooth="yes"/>
      <point x="156" y="582"/>
      <point x="210" y="607"/>
      <point x="283" y="607" type="curve" smooth="yes"/>
      <point x="325" y="607"/>
      <point x="373" y="598"/>
      <point x="414" y="580" type="curve"/>
      <point x="425" y="487" type="line"/>
      <point x="483" y="493" type="line"/>
      <point x="475" y="620" type="line"/>
      <point x="417" y="647"/>
      <point x="355" y="660"/>
      <point x="279" y="660" type="curve" smooth="yes"/>
      <point x="168" y="660"/>
      <point x="85" y="611"/>
      <point x="85" y="522" type="curve" smooth="yes"/>
      <point x="85" y="487"/>
      <point x="98" y="462"/>
      <point x="119" y="443" type="curve"/>
      <point x="72" y="424"/>
      <point x="39" y="393"/>
      <point x="39" y="346" type="curve" smooth="yes"/>
      <point x="39" y="257"/>
      <point x="162" y="235"/>
      <point x="269" y="222" type="curve"/>
      <point x="368" y="207"/>
      <point x="432" y="197"/>
      <point x="432" y="132" type="curve" smooth="yes"/>
      <point x="432" y="68"/>
      <point x="370" y="44"/>
      <point x="302" y="44" type="curve" smooth="yes"/>
      <point x="250" y="44"/>
      <point x="191" y="53"/>
      <point x="145" y="75" type="curve"/>
      <point x="149" y="151" type="line"/>
      <point x="91" y="157" type="line"/>
      <point x="79" y="47" type="line"/>
      <point x="136" y="11"/>
      <point x="227" y="-10"/>
      <point x="301" y="-10" type="curve" smooth="yes"/>
      <point x="424" y="-10"/>
      <point x="503" y="44"/>
    </contour>
    <contour>
      <point x="486" y="293" type="curve" smooth="yes"/>
      <point x="486" y="269"/>
      <point x="470" y="252"/>
      <point x="438" y="239" type="curve"/>
      <point x="399" y="257"/>
      <point x="348" y="266"/>
      <point x="295" y="274" type="curve" smooth="yes"/>
      <point x="175" y="294"/>
      <point x="106" y="304"/>
      <point x="106" y="354" type="curve" smooth="yes"/>
      <point x="106" y="381"/>
      <point x="128" y="402"/>
      <point x="160" y="414" type="curve"/>
      <point x="193" y="399"/>
      <point x="232" y="391"/>
      <point x="269" y="385" type="curve" smooth="yes"/>
      <point x="363" y="369"/>
      <point x="486" y="358"/>
    </contour>
  </outline>
</glyph>
<glyph name="dieresis" format="1">
  <advance width="395"/>
  <unicode hex="00A8"/>
  <outline>
    <contour>
      <point x="62" y="555" type="line"/>
      <point x="143" y="555" type="line"/>
      <point x="143" y="640" type="line"/>
      <point x="62" y="640" type="line"/>
    </contour>
    <contour>
      <point x="233" y="555" type="line"/>
      <point x="314" y="555" type="line"/>
      <point x="314" y="640" type="line"/>
      <point x="233" y="640" type="line"/>
    </contour>
  </outline>
</glyph>
<glyph name="guillemotleft" format="1">
  <advance width="451"/>
  <unicode hex="00AB"/>
  <outline>
    <contour>
      <point x="239" y="25" type="line"/>
      <point x="110" y="271" type="line"/>
      <point x="239" y="511" type="line"/>
      <point x="179" y="511" type="line"/>
      <point x="41" y="271" type="line"/>
      <point x="179" y="25" type="line"/>
    </contour>
    <contour>
      <point x="404" y="25" type="line"/>
      <point x="275" y="271" type="line"/>
      <point x="404" y="511" type="line"/>
      <point x="343" y="511" type="line"/>
      <point x="205" y="271" type="line"/>
      <point x="343" y="25" type="line"/>
    </contour>
  </outline>
</glyph>
<glyph name="logicalnot" format="1">
  <advance width="605"/>
  <unicode hex="00AC"/>
  <outline>
    <contour>
      <point x="491" y="99" type="line"/>
      <point x="543" y="99" type="line"/>
      <point x="543" y="308" type="line"/>
      <point x="62" y="308" type="line"/>
      <point x="62" y="256" type="line"/>
      <point x="491" y="256" type="line"/>
    </contour>
  </outline>
</glyph>
<glyph name="macron" format="1">
  <advance width="335"/>
  <unicode hex="00AF"/>
  <outline>
    <contour>
      <point x="286" y="564" type="line"/>
      <point x="286" y="621" type="line"/>
      <point x="42" y="621" type="line"/>
      <point x="42" y="564" type="line"/>
    </contour>
  </outline>
</glyph>
<glyph name="plusminus" format="1">
  <advance width="451"/>
  <unicode hex="00B1"/>
  <outline>
    <contour>
      <point x="53" y="259" type="line"/>
      <point x="202" y="259" type="line"/>
      <point x="202" y="113" type="line"/>
      <point x="255" y="113" type="line"/>
      <point x="255" y="259" type="line"/>
      <point x="400" y="259" type="line"/>
      <point x="400" y="313" type="line"/>
      <point x="255" y="313" type="line"/>
      <point x="255" y="460" type="line"/>
      <point x="202" y="460" type="line"/>
      <point x="202" y="313" type="line"/>
      <point x="53" y="313" type="line"/>
    </contour>
    <contour>
      <point x="53" y="0" type="line"/>
      <point x="400" y="0" type="line"/>
      <point x="400" y="53" type="line"/>
      <point x="53" y="53" type="line"/>
    </contour>
  </outline>
</glyph>
<glyph name="twosuperior" format="1">
  <advance width="347"/>
  <unicode hex="00B2"/>
  <outline>
    <contour>
      <point x="87" y="667" type="line"/>
      <point x="100" y="723" type="line"/>
      <point x="118" y="735"/>
      <point x="135" y="740"/>
      <point x="157" y="740" type="curve" smooth="yes"/>
      <point x="208" y="740"/>
      <point x="228" y="715"/>
      <point x="228" y="683" type="curve" smooth="yes"/>
      <point x="228" y="607"/>
      <point x="117" y="526"/>
      <point x="34" y="456" type="curve"/>
      <point x="39" y="415" type="line"/>
      <point x="311" y="415" type="line"/>
      <point x="321" y="509" type="line"/>
      <point x="274" y="514" type="line"/>
      <point x="264" y="460" type="line"/>
      <point x="108" y="460" type="line"/>
      <point x="159" y="502"/>
      <point x="292" y="592"/>
      <point x="292" y="688" type="curve" smooth="yes"/>
      <point x="292" y="737"/>
      <point x="257" y="785"/>
      <point x="172" y="785" type="curve" smooth="yes"/>
      <point x="129" y="785"/>
      <point x="82" y="773"/>
      <point x="53" y="748" type="curve"/>
      <point x="42" y="672" type="line"/>
    </contour>
  </outline>
</glyph>
<glyph name="threesuperior" format="1">
  <advance width="342"/>
  <unicode hex="00B3"/>
  <outline>
    <contour>
      <point x="93" y="673" type="line"/>
      <point x="104" y="723" type="line"/>
      <point x="123" y="734"/>
      <point x="141" y="739"/>
      <point x="164" y="739" type="curve"/>
      <point x="204" y="739"/>
      <point x="227" y="719"/>
      <point x="227" y="687" type="curve" smooth="yes"/>
      <point x="227" y="649"/>
      <point x="198" y="626"/>
      <point x="138" y="623" type="curve"/>
      <point x="138" y="585" type="line"/>
      <point x="215" y="583"/>
      <point x="242" y="559"/>
      <point x="242" y="522" type="curve" smooth="yes"/>
      <point x="242" y="483"/>
      <point x="213" y="454"/>
      <point x="163" y="454" type="curve" smooth="yes"/>
      <point x="111" y="454"/>
      <point x="87" y="485"/>
      <point x="79" y="517" type="curve"/>
      <point x="37" y="505" type="line"/>
      <point x="45" y="445"/>
      <point x="93" y="408"/>
      <point x="161" y="408" type="curve" smooth="yes"/>
      <point x="239" y="408"/>
      <point x="305" y="444"/>
      <point x="305" y="516" type="curve" smooth="yes"/>
      <point x="305" y="557"/>
      <point x="283" y="597"/>
      <point x="215" y="607" type="curve"/>
      <point x="215" y="609" type="line"/>
      <point x="269" y="625"/>
      <point x="289" y="659"/>
      <point x="289" y="695" type="curve" smooth="yes"/>
      <point x="289" y="749"/>
      <point x="245" y="784"/>
      <point x="178" y="784" type="curve" smooth="yes"/>
      <point x="139" y="784"/>
      <point x="87" y="773"/>
      <point x="57" y="747" type="curve"/>
      <point x="48" y="678" type="line"/>
    </contour>
  </outline>
</glyph>
<glyph name="acute" format="1">
  <advance width="440"/>
  <unicode hex="00B4"/>
  <outline>
    <contour>
      <point x="364" y="624" type="line"/>
      <point x="324" y="683" type="line"/>
      <point x="170" y="551" type="line"/>
      <point x="192" y="520" type="line"/>
    </contour>
  </outline>
</glyph>
<glyph name="paragraph" format="1">
  <advance width="618"/>
  <unicode hex="00B6"/>
  <outline>
    <contour>
      <point x="578" y="650" type="line"/>
      <point x="578" y="588" type="line"/>
      <point x="502" y="588" type="line"/>
      <point x="502" y="0" type="line"/>
      <point x="435" y="0" type="line"/>
      <point x="435" y="588" type="line"/>
      <point x="372" y="588" type="line"/>
      <point x="372" y="0" type="line"/>
      <point x="304" y="0" type="line"/>
      <point x="304" y="310" type="line"/>
      <point x="247" y="310" type="line" smooth="yes"/>
      <point x="124" y="310"/>
      <point x="30" y="357"/>
      <point x="30" y="484" type="curve" smooth="yes"/>
      <point x="30" y="575"/>
      <point x="102" y="650"/>
      <point x="253" y="650" type="curve" smooth="yes"/>
    </contour>
  </outline>
</glyph>
<glyph name="periodcentered" format="1">
  <advance width="219"/>
  <unicode hex="00B7"/>
  <outline>
    <contour>
      <point x="59" y="256" type="line"/>
      <point x="156" y="256" type="line"/>
      <point x="156" y="358" type="line"/>
      <point x="59" y="358" type="line"/>
    </contour>
  </outline>
</glyph>
<glyph name="cedilla" format="1">
  <advance width="256"/>
  <unicode hex="00B8"/>
  <outline>
    <contour>
      <point x="259" y="-125" type="curve" smooth="yes"/>
      <point x="259" y="-81"/>
      <point x="232" y="-47"/>
      <point x="170" y="-47" type="curve" smooth="yes"/>
      <point x="162" y="-47" type="line"/>
      <point x="162" y="6" type="line"/>
      <point x="110" y="6" type="line"/>
      <point x="110" y="-80" type="line"/>
      <point x="140" y="-80" type="line" smooth="yes"/>
      <point x="172" y="-80"/>
      <point x="198" y="-87"/>
      <point x="198" y="-120" type="curve" smooth="yes"/>
      <point x="198" y="-150"/>
      <point x="177" y="-161"/>
      <point x="147" y="-161" type="curve" smooth="yes"/>
      <point x="115" y="-161"/>
      <point x="89" y="-151"/>
      <point x="72" y="-138" type="curve"/>
      <point x="55" y="-179" type="line"/>
      <point x="79" y="-199"/>
      <point x="113" y="-209"/>
      <point x="151" y="-209" type="curve" smooth="yes"/>
      <point x="209" y="-209"/>
      <point x="259" y="-185"/>
    </contour>
  </outline>
</glyph>
<glyph name="onesuperior" format="1">
  <advance width="260"/>
  <unicode hex="00B9"/>
  <outline>
    <contour>
      <point x="35" y="460" type="line"/>
      <point x="110" y="460" type="line"/>
      <point x="110" y="734" type="line"/>
      <point x="35" y="734" type="line"/>
      <point x="35" y="779" type="line"/>
      <point x="168" y="779" type="line"/>
      <point x="168" y="460" type="line"/>
      <point x="240" y="460" type="line"/>
      <point x="240" y="415" type="line"/>
      <point x="35" y="415" type="line"/>
    </contour>
  </outline>
</glyph>
<glyph name="onequarter" format="1">
  <advance width="708"/>
  <unicode hex="00BC"/>
  <outline>
    <contour>
      <point x="557" y="-1" type="line"/>
      <point x="615" y="-1" type="line"/>
      <point x="615" y="89" type="line"/>
      <point x="672" y="89" type="line"/>
      <point x="676" y="133" type="line"/>
      <point x="615" y="133" type="line"/>
      <point x="615" y="364" type="line"/>
      <point x="501" y="364" type="line"/>
      <point x="371" y="132" type="line"/>
      <point x="377" y="89" type="line"/>
      <point x="557" y="89" type="line"/>
    </contour>
    <contour>
      <point x="567" y="650" type="line"/>
      <point x="377" y="325" type="line"/>
      <point x="195" y="0" type="line"/>
      <point x="142" y="0" type="line"/>
      <point x="339" y="337" type="line"/>
      <point x="514" y="650" type="line"/>
    </contour>
    <contour>
      <point x="44" y="331" type="line"/>
      <point x="119" y="331" type="line"/>
      <point x="119" y="605" type="line"/>
      <point x="44" y="605" type="line"/>
      <point x="44" y="650" type="line"/>
      <point x="177" y="650" type="line"/>
      <point x="177" y="331" type="line"/>
      <point x="249" y="331" type="line"/>
      <point x="249" y="286" type="line"/>
      <point x="44" y="286" type="line"/>
    </contour>
    <contour>
      <point x="530" y="319" type="line"/>
      <point x="557" y="319" type="line"/>
      <point x="557" y="133" type="line"/>
      <point x="424" y="133" type="line"/>
    </contour>
  </outline>
</glyph>
<glyph name="threequarters" format="1">
  <advance width="734"/>
  <unicode hex="00BE"/>
  <outline>
    <contour>
      <point x="583" y="-1" type="line"/>
      <point x="641" y="-1" type="line"/>
      <point x="641" y="89" type="line"/>
      <point x="698" y="89" type="line"/>
      <point x="702" y="133" type="line"/>
      <point x="641" y="133" type="line"/>
      <point x="641" y="364" type="line"/>
      <point x="527" y="364" type="line"/>
      <point x="397" y="132" type="line"/>
      <point x="403" y="89" type="line"/>
      <point x="583" y="89" type="line"/>
    </contour>
    <contour>
      <point x="97" y="549" type="line"/>
      <point x="108" y="599" type="line"/>
      <point x="127" y="610"/>
      <point x="145" y="615"/>
      <point x="168" y="615" type="curve" smooth="yes"/>
      <point x="208" y="615"/>
      <point x="231" y="595"/>
      <point x="231" y="563" type="curve" smooth="yes"/>
      <point x="231" y="525"/>
      <point x="202" y="502"/>
      <point x="142" y="499" type="curve"/>
      <point x="142" y="461" type="line"/>
      <point x="219" y="459"/>
      <point x="246" y="435"/>
      <point x="246" y="398" type="curve" smooth="yes"/>
      <point x="246" y="359"/>
      <point x="217" y="330"/>
      <point x="167" y="330" type="curve" smooth="yes"/>
      <point x="115" y="330"/>
      <point x="91" y="361"/>
      <point x="83" y="393" type="curve"/>
      <point x="41" y="381" type="line"/>
      <point x="49" y="321"/>
      <point x="97" y="284"/>
      <point x="165" y="284" type="curve" smooth="yes"/>
      <point x="243" y="284"/>
      <point x="309" y="320"/>
      <point x="309" y="392" type="curve" smooth="yes"/>
      <point x="309" y="433"/>
      <point x="287" y="473"/>
      <point x="219" y="483" type="curve"/>
      <point x="219" y="485" type="line"/>
      <point x="273" y="501"/>
      <point x="293" y="535"/>
      <point x="293" y="571" type="curve" smooth="yes"/>
      <point x="293" y="625"/>
      <point x="249" y="660"/>
      <point x="182" y="660" type="curve" smooth="yes"/>
      <point x="143" y="660"/>
      <point x="91" y="649"/>
      <point x="61" y="623" type="curve"/>
      <point x="52" y="554" type="line"/>
    </contour>
    <contour>
      <point x="595" y="650" type="line"/>
      <point x="405" y="325" type="line"/>
      <point x="223" y="0" type="line"/>
      <point x="170" y="0" type="line"/>
      <point x="367" y="337" type="line"/>
      <point x="542" y="650" type="line"/>
    </contour>
    <contour>
      <point x="556" y="319" type="line"/>
      <point x="583" y="319" type="line"/>
      <point x="583" y="133" type="line"/>
      <point x="450" y="133" type="line"/>
    </contour>
  </outline>
</glyph>
<glyph name="questiondown" format="1">
  <advance width="440"/>
  <unicode hex="00BF"/>
  <outline>
    <contour>
      <point x="338" y="-14" type="line"/>
      <point x="325" y="-110" type="line"/>
      <point x="295" y="-135"/>
      <point x="259" y="-149"/>
      <point x="217" y="-149" type="curve" smooth="yes"/>
      <point x="144" y="-149"/>
      <point x="106" y="-114"/>
      <point x="106" y="-69" type="curve" smooth="yes"/>
      <point x="106" y="39"/>
      <point x="307" y="60"/>
      <point x="307" y="180" type="curve" smooth="yes"/>
      <point x="307" y="231"/>
      <point x="270" y="270"/>
      <point x="179" y="265" type="curve"/>
      <point x="179" y="215" type="line"/>
      <point x="214" y="215"/>
      <point x="232" y="200"/>
      <point x="232" y="174" type="curve" smooth="yes"/>
      <point x="232" y="87"/>
      <point x="28" y="56"/>
      <point x="28" y="-79" type="curve" smooth="yes"/>
      <point x="28" y="-163"/>
      <point x="110" y="-214"/>
      <point x="212" y="-214" type="curve" smooth="yes"/>
      <point x="280" y="-214"/>
      <point x="348" y="-180"/>
      <point x="388" y="-139" type="curve"/>
      <point x="396" y="-19" type="line"/>
    </contour>
    <contour>
      <point x="277" y="446" type="line"/>
      <point x="188" y="446" type="line"/>
      <point x="188" y="349" type="line"/>
      <point x="277" y="349" type="line"/>
    </contour>
  </outline>
</glyph>
<glyph name="Adieresis" format="1">
  <advance width="648"/>
  <unicode hex="00C4"/>
  <outline>
    <contour>
      <point x="655" y="0" type="line"/>
      <point x="655" y="64" type="line"/>
      <point x="589" y="64" type="line"/>
      <point x="356" y="650" type="line"/>
      <point x="171" y="650" type="line"/>
      <point x="171" y="586" type="line"/>
      <point x="275" y="586" type="line"/>
      <point x="62" y="64" type="line"/>
      <point x="1" y="64" type="line"/>
      <point x="1" y="0" type="line"/>
      <point x="230" y="0" type="line"/>
      <point x="230" y="64" type="line"/>
      <point x="136" y="64" type="line"/>
      <point x="186" y="189" type="line"/>
      <point x="464" y="189" type="line"/>
      <point x="511" y="64" type="line"/>
      <point x="424" y="64" type="line"/>
      <point x="424" y="0" type="line"/>
    </contour>
    <contour>
      <point x="443" y="246" type="line"/>
      <point x="208" y="246" type="line"/>
      <point x="325" y="544" type="line"/>
      <point x="331" y="544" type="line"/>
    </contour>
    <contour>
      <point x="197" y="718" type="line"/>
      <point x="278" y="718" type="line"/>
      <point x="278" y="803" type="line"/>
      <point x="197" y="803" type="line"/>
    </contour>
    <contour>
      <point x="369" y="718" type="line"/>
      <point x="449" y="718" type="line"/>
      <point x="449" y="803" type="line"/>
      <point x="369" y="803" type="line"/>
    </contour>
  </outline>
</glyph>
<glyph name="Aring" format="1">
  <advance width="648"/>
  <unicode hex="00C5"/>
  <outline>
    <contour>
      <point x="655" y="0" type="line"/>
      <point x="655" y="64" type="line"/>
      <point x="589" y="64" type="line"/>
      <point x="356" y="650" type="line"/>
      <point x="171" y="650" type="line"/>
      <point x="171" y="586" type="line"/>
      <point x="275" y="586" type="line"/>
      <point x="62" y="64" type="line"/>
      <point x="1" y="64" type="line"/>
      <point x="1" y="0" type="line"/>
      <point x="230" y="0" type="line"/>
      <point x="230" y="64" type="line"/>
      <point x="136" y="64" type="line"/>
      <point x="186" y="189" type="line"/>
      <point x="464" y="189" type="line"/>
      <point x="511" y="64" type="line"/>
      <point x="424" y="64" type="line"/>
      <point x="424" y="0" type="line"/>
    </contour>
    <contour>
      <point x="443" y="246" type="line"/>
      <point x="208" y="246" type="line"/>
      <point x="325" y="544" type="line"/>
      <point x="331" y="544" type="line"/>
    </contour>
    <contour>
      <point x="421" y="784" type="curve" smooth="yes"/>
      <point x="421" y="836"/>
      <point x="391" y="874"/>
      <point x="323" y="874" type="curve" smooth="yes"/>
      <point x="260" y="874"/>
      <point x="224" y="837"/>
      <point x="224" y="782" type="curve" smooth="yes"/>
      <point x="224" y="725"/>
      <point x="257" y="690"/>
      <point x="322" y="690" type="curve" smooth="yes"/>
      <point x="388" y="690"/>
      <point x="421" y="729"/>
    </contour>
    <contour>
      <point x="372" y="784" type="curve" smooth="yes"/>
      <point x="372" y="753"/>
      <point x="357" y="730"/>
      <point x="322" y="730" type="curve" smooth="yes"/>
      <point x="288" y="730"/>
      <point x="273" y="751"/>
      <point x="273" y="782" type="curve" smooth="yes"/>
      <point x="273" y="812"/>
      <point x="288" y="834"/>
      <point x="322" y="834" type="curve" smooth="yes"/>
      <point x="359" y="834"/>
      <point x="372" y="811"/>
    </contour>
  </outline>
</glyph>
<glyph name="Ecircumflex" format="1">
  <advance width="589"/>
  <unicode hex="00CA"/>
  <outline>
    <contour>
      <point x="526" y="0" type="line"/>
      <point x="545" y="184" type="line"/>
      <point x="482" y="191" type="line"/>
      <point x="462" y="64" type="line"/>
      <point x="197" y="64" type="line"/>
      <point x="197" y="298" type="line"/>
      <point x="504" y="298" type="line"/>
      <point x="504" y="362" type="line"/>
      <point x="197" y="362" type="line"/>
      <point x="197" y="586" type="line"/>
      <point x="453" y="586" type="line"/>
      <point x="473" y="459" type="line"/>
      <point x="537" y="466" type="line"/>
      <point x="517" y="650" type="line"/>
      <point x="42" y="650" type="line"/>
      <point x="42" y="586" type="line"/>
      <point x="124" y="586" type="line"/>
      <point x="124" y="64" type="line"/>
      <point x="42" y="64" type="line"/>
      <point x="42" y="0" type="line"/>
    </contour>
    <contour>
      <point x="468" y="737" type="line"/>
      <point x="342" y="827" type="line"/>
      <point x="321" y="827" type="line"/>
      <point x="194" y="734" type="line"/>
      <point x="213" y="701" type="line"/>
      <point x="329" y="764" type="line"/>
      <point x="449" y="702" type="line"/>
    </contour>
  </outline>
</glyph>
<glyph name="Edieresis" format="1">
  <advance width="589"/>
  <unicode hex="00CB"/>
  <outline>
    <contour>
      <point x="196" y="718" type="line"/>
      <point x="277" y="718" type="line"/>
      <point x="277" y="803" type="line"/>
      <point x="196" y="803" type="line"/>
    </contour>
    <contour>
      <point x="368" y="718" type="line"/>
      <point x="448" y="718" type="line"/>
      <point x="448" y="803" type="line"/>
      <point x="368" y="803" type="line"/>
    </contour>
    <contour>
      <point x="526" y="0" type="line"/>
      <point x="545" y="184" type="line"/>
      <point x="482" y="191" type="line"/>
      <point x="462" y="64" type="line"/>
      <point x="197" y="64" type="line"/>
      <point x="197" y="298" type="line"/>
      <point x="504" y="298" type="line"/>
      <point x="504" y="362" type="line"/>
      <point x="197" y="362" type="line"/>
      <point x="197" y="586" type="line"/>
      <point x="453" y="586" type="line"/>
      <point x="473" y="459" type="line"/>
      <point x="537" y="466" type="line"/>
      <point x="517" y="650" type="line"/>
      <point x="42" y="650" type="line"/>
      <point x="42" y="586" type="line"/>
      <point x="124" y="586" type="line"/>
      <point x="124" y="64" type="line"/>
      <point x="42" y="64" type="line"/>
      <point x="42" y="0" type="line"/>
    </contour>
  </outline>
</glyph>
<glyph name="Igrave" format="1">
  <advance width="322"/>
  <unicode hex="00CC"/>
  <outline>
    <contour>
      <point x="279" y="0" type="line"/>
      <point x="279" y="64" type="line"/>
      <point x="198" y="64" type="line"/>
      <point x="198" y="586" type="line"/>
      <point x="279" y="586" type="line"/>
      <point x="279" y="650" type="line"/>
      <point x="42" y="650" type="line"/>
      <point x="42" y="586" type="line"/>
      <point x="124" y="586" type="line"/>
      <point x="124" y="64" type="line"/>
      <point x="42" y="64" type="line"/>
      <point x="42" y="0" type="line"/>
    </contour>
    <contour>
      <point x="246" y="740" type="line"/>
      <point x="55" y="813" type="line"/>
      <point x="38" y="745" type="line"/>
      <point x="236" y="703" type="line"/>
    </contour>
  </outline>
</glyph>
<glyph name="Iacute" format="1">
  <advance width="322"/>
  <unicode hex="00CD"/>
  <outline>
    <contour>
      <point x="279" y="0" type="line"/>
      <point x="279" y="64" type="line"/>
      <point x="198" y="64" type="line"/>
      <point x="198" y="586" type="line"/>
      <point x="279" y="586" type="line"/>
      <point x="279" y="650" type="line"/>
      <point x="42" y="650" type="line"/>
      <point x="42" y="586" type="line"/>
      <point x="124" y="586" type="line"/>
      <point x="124" y="64" type="line"/>
      <point x="42" y="64" type="line"/>
      <point x="42" y="0" type="line"/>
    </contour>
    <contour>
      <point x="283" y="745" type="line"/>
      <point x="266" y="813" type="line"/>
      <point x="75" y="740" type="line"/>
      <point x="86" y="703" type="line"/>
    </contour>
  </outline>
</glyph>
<glyph name="Ntilde" format="1">
  <advance width="738"/>
  <unicode hex="00D1"/>
  <outline>
    <contour>
      <point x="506" y="798" type="curve"/>
      <point x="470" y="807" type="line"/>
      <point x="459" y="770"/>
      <point x="441" y="765"/>
      <point x="423" y="765" type="curve" smooth="yes"/>
      <point x="375" y="765"/>
      <point x="348" y="800"/>
      <point x="304" y="800" type="curve" smooth="yes"/>
      <point x="253" y="800"/>
      <point x="227" y="752"/>
      <point x="222" y="718" type="curve"/>
      <point x="255" y="705" type="line"/>
      <point x="265" y="737"/>
      <point x="286" y="744"/>
      <point x="305" y="744" type="curve" smooth="yes"/>
      <point x="344" y="744"/>
      <point x="377" y="709"/>
      <point x="428" y="709" type="curve" smooth="yes"/>
      <point x="476" y="709"/>
      <point x="496" y="744"/>
    </contour>
    <contour>
      <point x="703" y="586" type="line"/>
      <point x="703" y="650" type="line"/>
      <point x="454" y="650" type="line"/>
      <point x="454" y="586" type="line"/>
      <point x="552" y="586" type="line"/>
      <point x="552" y="149" type="line"/>
      <point x="548" y="149" type="line"/>
      <point x="178" y="650" type="line"/>
      <point x="38" y="650" type="line"/>
      <point x="38" y="586" type="line"/>
      <point x="124" y="586" type="line"/>
      <point x="124" y="64" type="line"/>
      <point x="49" y="64" type="line"/>
      <point x="49" y="0" type="line"/>
      <point x="297" y="0" type="line"/>
      <point x="297" y="64" type="line"/>
      <point x="194" y="64" type="line"/>
      <point x="194" y="512" type="line"/>
      <point x="198" y="512" type="line"/>
      <point x="575" y="0" type="line"/>
      <point x="622" y="0" type="line"/>
      <point x="622" y="586" type="line"/>
    </contour>
  </outline>
</glyph>
<glyph name="Oacute" format="1">
  <advance width="728"/>
  <unicode hex="00D3"/>
  <outline>
    <contour>
      <point x="518" y="745" type="line"/>
      <point x="501" y="813" type="line"/>
      <point x="310" y="740" type="line"/>
      <point x="321" y="703" type="line"/>
    </contour>
    <contour>
      <point x="690" y="325" type="curve" smooth="yes"/>
      <point x="690" y="510"/>
      <point x="559" y="660"/>
      <point x="364" y="660" type="curve" smooth="yes"/>
      <point x="172" y="660"/>
      <point x="39" y="512"/>
      <point x="39" y="325" type="curve" smooth="yes"/>
      <point x="39" y="141"/>
      <point x="166" y="-10"/>
      <point x="362" y="-10" type="curve" smooth="yes"/>
      <point x="558" y="-10"/>
      <point x="690" y="141"/>
    </contour>
    <contour>
      <point x="611" y="324" type="curve" smooth="yes"/>
      <point x="611" y="173"/>
      <point x="519" y="56"/>
      <point x="366" y="56" type="curve" smooth="yes"/>
      <point x="208" y="56"/>
      <point x="118" y="179"/>
      <point x="118" y="326" type="curve" smooth="yes"/>
      <point x="118" y="475"/>
      <point x="210" y="594"/>
      <point x="364" y="594" type="curve" smooth="yes"/>
      <point x="515" y="594"/>
      <point x="611" y="480"/>
    </contour>
  </outline>
</glyph>
<glyph name="Yacute" format="1">
  <advance width="613"/>
  <unicode hex="00DD"/>
  <outline>
    <contour>
      <point x="610" y="586" type="line"/>
      <point x="610" y="650" type="line"/>
      <point x="382" y="650" type="line"/>
      <point x="382" y="586" type="line"/>
      <point x="472" y="586" type="line"/>
      <point x="313" y="316" type="line"/>
      <point x="308" y="316" type="line"/>
      <point x="144" y="586" type="line"/>
      <point x="233" y="586" type="line"/>
      <point x="233" y="650" type="line"/>
      <point x="-4" y="650" type="line"/>
      <point x="-4" y="586" type="line"/>
      <point x="60" y="586" type="line"/>
      <point x="271" y="249" type="line"/>
      <point x="271" y="64" type="line"/>
      <point x="159" y="64" type="line"/>
      <point x="159" y="0" type="line"/>
      <point x="458" y="0" type="line"/>
      <point x="458" y="64" type="line"/>
      <point x="344" y="64" type="line"/>
      <point x="344" y="248" type="line"/>
      <point x="546" y="586" type="line"/>
    </contour>
    <contour>
      <point x="441" y="745" type="line"/>
      <point x="424" y="813" type="line"/>
      <point x="233" y="740" type="line"/>
      <point x="244" y="703" type="line"/>
    </contour>
  </outline>
</glyph>
<glyph name="Thorn" format="1">
  <advance width="572"/>
  <unicode hex="00DE"/>
  <outline>
    <contour>
      <point x="279" y="0" type="line"/>
      <point x="279" y="64" type="line"/>
      <point x="198" y="64" type="line"/>
      <point x="198" y="139" type="line"/>
      <point x="329" y="139" type="line" smooth="yes"/>
      <point x="457" y="139"/>
      <point x="549" y="209"/>
      <point x="549" y="340" type="curve" smooth="yes"/>
      <point x="549" y="444"/>
      <point x="483" y="525"/>
      <point x="323" y="525" type="curve" smooth="yes"/>
      <point x="198" y="525" type="line"/>
      <point x="198" y="586" type="line"/>
      <point x="279" y="586" type="line"/>
      <point x="279" y="650" type="line"/>
      <point x="42" y="650" type="line"/>
      <point x="42" y="586" type="line"/>
      <point x="124" y="586" type="line"/>
      <point x="124" y="64" type="line"/>
      <point x="42" y="64" type="line"/>
      <point x="42" y="0" type="line"/>
    </contour>
    <contour>
      <point x="317" y="471" type="line" smooth="yes"/>
      <point x="423" y="471"/>
      <point x="471" y="421"/>
      <point x="471" y="338" type="curve" smooth="yes"/>
      <point x="471" y="246"/>
      <point x="418" y="194"/>
      <point x="319" y="194" type="curve" smooth="yes"/>
      <point x="198" y="194" type="line"/>
      <point x="198" y="471" type="line"/>
    </contour>
  </outline>
</glyph>
<glyph name="ecircumflex" format="1">
  <advance width="470"/>
  <unicode hex="00EA"/>
  <outline>
    <contour>
      <point x="380" y="553" type="line"/>
      <point x="259" y="671" type="line"/>
      <point x="237" y="671" type="line"/>
      <point x="116" y="551" type="line"/>
      <point x="141" y="519" type="line"/>
      <point x="242" y="603" type="line"/>
      <point x="353" y="519" type="line"/>
    </contour>
    <contour>
      <point x="435" y="128" type="curve"/>
      <point x="376" y="141" type="line"/>
      <point x="362" y="86"/>
      <point x="323" y="50"/>
      <point x="253" y="50" type="curve" smooth="yes"/>
      <point x="165" y="50"/>
      <point x="116" y="107"/>
      <point x="112" y="206" type="curve"/>
      <point x="425" y="206" type="line"/>
      <point x="429" y="224"/>
      <point x="431" y="242"/>
      <point x="431" y="259" type="curve" smooth="yes"/>
      <point x="430" y="364"/>
      <point x="364" y="454"/>
      <point x="242" y="454" type="curve" smooth="yes"/>
      <point x="116" y="454"/>
      <point x="38" y="354"/>
      <point x="38" y="216" type="curve" smooth="yes"/>
      <point x="38" y="72"/>
      <point x="122" y="-10"/>
      <point x="248" y="-10" type="curve" smooth="yes"/>
      <point x="358" y="-10"/>
      <point x="423" y="52"/>
    </contour>
    <contour>
      <point x="357" y="258" type="curve"/>
      <point x="113" y="258" type="line"/>
      <point x="122" y="333"/>
      <point x="158" y="396"/>
      <point x="240" y="396" type="curve" smooth="yes"/>
      <point x="327" y="396"/>
      <point x="364" y="324"/>
    </contour>
  </outline>
</glyph>
<glyph name="igrave" format="1">
  <advance width="280"/>
  <unicode hex="00EC"/>
  <outline>
    <contour>
      <point x="34" y="57" type="line"/>
      <point x="112" y="57" type="line"/>
      <point x="112" y="388" type="line"/>
      <point x="32" y="388" type="line"/>
      <point x="32" y="445" type="line"/>
      <point x="182" y="445" type="line"/>
      <point x="182" y="57" type="line"/>
      <point x="260" y="57" type="line"/>
      <point x="260" y="0" type="line"/>
      <point x="34" y="0" type="line"/>
    </contour>
    <contour>
      <point x="186" y="551" type="line"/>
      <point x="32" y="683" type="line"/>
      <point x="-8" y="624" type="line"/>
      <point x="165" y="520" type="line"/>
    </contour>
  </outline>
</glyph>
<glyph name="iacute" format="1">
  <advance width="280"/>
  <unicode hex="00ED"/>
  <outline>
    <contour>
      <point x="34" y="57" type="line"/>
      <point x="112" y="57" type="line"/>
      <point x="112" y="388" type="line"/>
      <point x="32" y="388" type="line"/>
      <point x="32" y="445" type="line"/>
      <point x="182" y="445" type="line"/>
      <point x="182" y="57" type="line"/>
      <point x="260" y="57" type="line"/>
      <point x="260" y="0" type="line"/>
      <point x="34" y="0" type="line"/>
    </contour>
    <contour>
      <point x="241" y="624" type="line"/>
      <point x="201" y="683" type="line"/>
      <point x="47" y="551" type="line"/>
      <point x="69" y="520" type="line"/>
    </contour>
  </outline>
</glyph>
<glyph name="icircumflex" format="1">
  <advance width="279"/>
  <unicode hex="00EE"/>
  <outline>
    <contour>
      <point x="34" y="57" type="line"/>
      <point x="112" y="57" type="line"/>
      <point x="112" y="388" type="line"/>
      <point x="32" y="388" type="line"/>
      <point x="32" y="445" type="line"/>
      <point x="182" y="445" type="line"/>
      <point x="182" y="57" type="line"/>
      <point x="260" y="57" type="line"/>
      <point x="260" y="0" type="line"/>
      <point x="34" y="0" type="line"/>
    </contour>
    <contour>
      <point x="265" y="553" type="line"/>
      <point x="144" y="671" type="line"/>
      <point x="122" y="671" type="line"/>
      <point x="1" y="551" type="line"/>
      <point x="26" y="519" type="line"/>
      <point x="127" y="603" type="line"/>
      <point x="238" y="519" type="line"/>
    </contour>
  </outline>
</glyph>
<glyph name="idieresis" format="1">
  <advance width="280"/>
  <unicode hex="00EF"/>
  <outline>
    <contour>
      <point x="34" y="57" type="line"/>
      <point x="112" y="57" type="line"/>
      <point x="112" y="388" type="line"/>
      <point x="32" y="388" type="line"/>
      <point x="32" y="445" type="line"/>
      <point x="182" y="445" type="line"/>
      <point x="182" y="57" type="line"/>
      <point x="260" y="57" type="line"/>
      <point x="260" y="0" type="line"/>
      <point x="34" y="0" type="line"/>
    </contour>
    <contour>
      <point x="173" y="555" type="line"/>
      <point x="254" y="555" type="line"/>
      <point x="254" y="640" type="line"/>
      <point x="173" y="640" type="line"/>
    </contour>
    <contour>
      <point x="2" y="555" type="line"/>
      <point x="83" y="555" type="line"/>
      <point x="83" y="640" type="line"/>
      <point x="2" y="640" type="line"/>
    </contour>
  </outline>
</glyph>
<glyph name="ntilde" format="1">
  <advance width="573"/>
  <unicode hex="00F1"/>
  <outline>
    <contour>
      <point x="564" y="0" type="line"/>
      <point x="564" y="57" type="line"/>
      <point x="487" y="57" type="line"/>
      <point x="487" y="285" type="line" smooth="yes"/>
      <point x="487" y="403"/>
      <point x="421" y="454"/>
      <point x="334" y="454" type="curve" smooth="yes"/>
      <point x="263" y="454"/>
      <point x="208" y="421"/>
      <point x="178" y="366" type="curve"/>
      <point x="178" y="445" type="line"/>
      <point x="28" y="445" type="line"/>
      <point x="28" y="388" type="line"/>
      <point x="108" y="388" type="line"/>
      <point x="108" y="57" type="line"/>
      <point x="30" y="57" type="line"/>
      <point x="30" y="0" type="line"/>
      <point x="256" y="0" type="line"/>
      <point x="256" y="57" type="line"/>
      <point x="178" y="57" type="line"/>
      <point x="178" y="265" type="line"/>
      <point x="181" y="333"/>
      <point x="233" y="395"/>
      <point x="313" y="395" type="curve" smooth="yes"/>
      <point x="373" y="395"/>
      <point x="416" y="360"/>
      <point x="416" y="264" type="curve" smooth="yes"/>
      <point x="416" y="57" type="line"/>
      <point x="339" y="57" type="line"/>
      <point x="339" y="0" type="line"/>
    </contour>
    <contour>
      <point x="434" y="646" type="curve"/>
      <point x="398" y="655" type="line"/>
      <point x="387" y="619"/>
      <point x="369" y="612"/>
      <point x="351" y="612" type="curve" smooth="yes"/>
      <point x="303" y="612"/>
      <point x="276" y="649"/>
      <point x="231" y="649" type="curve" smooth="yes"/>
      <point x="180" y="649"/>
      <point x="155" y="596"/>
      <point x="150" y="561" type="curve"/>
      <point x="183" y="549" type="line"/>
      <point x="193" y="581"/>
      <point x="215" y="592"/>
      <point x="234" y="592" type="curve" smooth="yes"/>
      <point x="271" y="592"/>
      <point x="305" y="553"/>
      <point x="357" y="553" type="curve" smooth="yes"/>
      <point x="403" y="553"/>
      <point x="425" y="592"/>
    </contour>
  </outline>
</glyph>
<glyph name="otilde" format="1">
  <advance width="513"/>
  <unicode hex="00F5"/>
  <outline>
    <contour>
      <point x="476" y="223" type="curve" smooth="yes"/>
      <point x="476" y="349"/>
      <point x="402" y="455"/>
      <point x="257" y="455" type="curve" smooth="yes"/>
      <point x="113" y="455"/>
      <point x="37" y="349"/>
      <point x="37" y="219" type="curve" smooth="yes"/>
      <point x="37" y="85"/>
      <point x="118" y="-10"/>
      <point x="253" y="-10" type="curve" smooth="yes"/>
      <point x="390" y="-10"/>
      <point x="476" y="88"/>
    </contour>
    <contour>
      <point x="402" y="224" type="curve" smooth="yes"/>
      <point x="402" y="124"/>
      <point x="350" y="50"/>
      <point x="255" y="50" type="curve" smooth="yes"/>
      <point x="160" y="50"/>
      <point x="110" y="126"/>
      <point x="110" y="223" type="curve" smooth="yes"/>
      <point x="110" y="322"/>
      <point x="162" y="395"/>
      <point x="255" y="395" type="curve" smooth="yes"/>
      <point x="348" y="395"/>
      <point x="402" y="326"/>
    </contour>
    <contour>
      <point x="396" y="646" type="curve"/>
      <point x="360" y="655" type="line"/>
      <point x="349" y="619"/>
      <point x="331" y="612"/>
      <point x="313" y="612" type="curve" smooth="yes"/>
      <point x="265" y="612"/>
      <point x="238" y="649"/>
      <point x="193" y="649" type="curve" smooth="yes"/>
      <point x="142" y="649"/>
      <point x="117" y="596"/>
      <point x="112" y="561" type="curve"/>
      <point x="145" y="549" type="line"/>
      <point x="155" y="581"/>
      <point x="177" y="592"/>
      <point x="196" y="592" type="curve" smooth="yes"/>
      <point x="233" y="592"/>
      <point x="267" y="553"/>
      <point x="319" y="553" type="curve" smooth="yes"/>
      <point x="365" y="553"/>
      <point x="387" y="592"/>
    </contour>
  </outline>
</glyph>
<glyph name="odieresis" format="1">
  <advance width="513"/>
  <unicode hex="00F6"/>
  <outline>
    <contour>
      <point x="131" y="555" type="line"/>
      <point x="212" y="555" type="line"/>
      <point x="212" y="640" type="line"/>
      <point x="131" y="640" type="line"/>
    </contour>
    <contour>
      <point x="302" y="555" type="line"/>
      <point x="383" y="555" type="line"/>
      <point x="383" y="640" type="line"/>
      <point x="302" y="640" type="line"/>
    </contour>
    <contour>
      <point x="476" y="223" type="curve" smooth="yes"/>
      <point x="476" y="349"/>
      <point x="402" y="455"/>
      <point x="257" y="455" type="curve" smooth="yes"/>
      <point x="113" y="455"/>
      <point x="37" y="349"/>
      <point x="37" y="219" type="curve" smooth="yes"/>
      <point x="37" y="85"/>
      <point x="118" y="-10"/>
      <point x="253" y="-10" type="curve" smooth="yes"/>
      <point x="390" y="-10"/>
      <point x="476" y="88"/>
    </contour>
    <contour>
      <point x="402" y="224" type="curve" smooth="yes"/>
      <point x="402" y="124"/>
      <point x="350" y="50"/>
      <point x="255" y="50" type="curve" smooth="yes"/>
      <point x="160" y="50"/>
      <point x="110" y="126"/>
      <point x="110" y="223" type="curve" smooth="yes"/>
      <point x="110" y="322"/>
      <point x="162" y="395"/>
      <point x="255" y="395" type="curve" smooth="yes"/>
      <point x="348" y="395"/>
      <point x="402" y="326"/>
    </contour>
  </outline>
</glyph>
<glyph name="ydieresis" format="1">
  <advance width="511"/>
  <unicode hex="00FF"/>
  <outline>
    <contour>
      <point x="502" y="388" type="line"/>
      <point x="502" y="445" type="line"/>
      <point x="306" y="445" type="line"/>
      <point x="306" y="388" type="line"/>
      <point x="378" y="388" type="line"/>
      <point x="267" y="89" type="line"/>
      <point x="261" y="89" type="line"/>
      <point x="136" y="388" type="line"/>
      <point x="214" y="388" type="line"/>
      <point x="214" y="445" type="line"/>
      <point x="8" y="445" type="line"/>
      <point x="8" y="388" type="line"/>
      <point x="61" y="388" type="line"/>
      <point x="223" y="1" type="line"/>
      <point x="165" y="-156" type="line"/>
      <point x="82" y="-156" type="line"/>
      <point x="82" y="-213" type="line"/>
      <point x="308" y="-213" type="line"/>
      <point x="308" y="-156" type="line"/>
      <point x="232" y="-156" type="line"/>
      <point x="292" y="0" type="line"/>
      <point x="449" y="388" type="line"/>
    </contour>
    <contour>
      <point x="143" y="555" type="line"/>
      <point x="224" y="555" type="line"/>
      <point x="224" y="640" type="line"/>
      <point x="143" y="640" type="line"/>
    </contour>
    <contour>
      <point x="314" y="555" type="line"/>
      <point x="395" y="555" type="line"/>
      <point x="395" y="640" type="line"/>
      <point x="314" y="640" type="line"/>
    </contour>
  </outline>
</glyph>
<glyph name="Cdotaccent" format="1">
  <advance width="646"/>
  <unicode hex="010A"/>
  <outline>
    <contour>
      <point x="312" y="718" type="line"/>
      <point x="393" y="718" type="line"/>
      <point x="393" y="803" type="line"/>
      <point x="312" y="803" type="line"/>
    </contour>
    <contour>
      <point x="575" y="50" type="curve"/>
      <point x="592" y="175" type="line"/>
      <point x="530" y="181" type="line"/>
      <point x="511" y="85" type="line"/>
      <point x="469" y="64"/>
      <point x="426" y="56"/>
      <point x="368" y="56" type="curve" smooth="yes"/>
      <point x="213" y="56"/>
      <point x="117" y="163"/>
      <point x="117" y="324" type="curve" smooth="yes"/>
      <point x="117" y="482"/>
      <point x="213" y="594"/>
      <point x="355" y="594" type="curve" smooth="yes"/>
      <point x="428" y="594"/>
      <point x="474" y="576"/>
      <point x="516" y="548" type="curve"/>
      <point x="534" y="453" type="line"/>
      <point x="597" y="459" type="line"/>
      <point x="579" y="584" type="line"/>
      <point x="526" y="629"/>
      <point x="457" y="660"/>
      <point x="349" y="660" type="curve" smooth="yes"/>
      <point x="160" y="660"/>
      <point x="40" y="501"/>
      <point x="40" y="321" type="curve" smooth="yes"/>
      <point x="40" y="132"/>
      <point x="169" y="-10"/>
      <point x="358" y="-10" type="curve" smooth="yes"/>
      <point x="450" y="-10"/>
      <point x="523" y="10"/>
    </contour>
  </outline>
</glyph>
<glyph name="Ccaron" format="1">
  <advance width="646"/>
  <unicode hex="010C"/>
  <outline>
    <contour>
      <point x="575" y="50" type="curve"/>
      <point x="592" y="175" type="line"/>
      <point x="530" y="181" type="line"/>
      <point x="511" y="85" type="line"/>
      <point x="469" y="64"/>
      <point x="426" y="56"/>
      <point x="368" y="56" type="curve" smooth="yes"/>
      <point x="213" y="56"/>
      <point x="117" y="163"/>
      <point x="117" y="324" type="curve" smooth="yes"/>
      <point x="117" y="482"/>
      <point x="213" y="594"/>
      <point x="355" y="594" type="curve" smooth="yes"/>
      <point x="428" y="594"/>
      <point x="474" y="576"/>
      <point x="516" y="548" type="curve"/>
      <point x="534" y="453" type="line"/>
      <point x="597" y="459" type="line"/>
      <point x="579" y="584" type="line"/>
      <point x="526" y="629"/>
      <point x="457" y="660"/>
      <point x="349" y="660" type="curve" smooth="yes"/>
      <point x="160" y="660"/>
      <point x="40" y="501"/>
      <point x="40" y="321" type="curve" smooth="yes"/>
      <point x="40" y="132"/>
      <point x="169" y="-10"/>
      <point x="358" y="-10" type="curve" smooth="yes"/>
      <point x="450" y="-10"/>
      <point x="523" y="10"/>
    </contour>
    <contour>
      <point x="494" y="792" type="line"/>
      <point x="475" y="827" type="line"/>
      <point x="360" y="763" type="line"/>
      <point x="240" y="824" type="line"/>
      <point x="220" y="790" type="line"/>
      <point x="346" y="701" type="line"/>
      <point x="368" y="701" type="line"/>
    </contour>
  </outline>
</glyph>
<glyph name="Dcroat" format="1">
  <advance width="706"/>
  <unicode hex="0110"/>
  <outline>
    <contour>
      <point x="665" y="326" type="curve" smooth="yes"/>
      <point x="665" y="514"/>
      <point x="545" y="650"/>
      <point x="333" y="650" type="curve" smooth="yes"/>
      <point x="42" y="650" type="line"/>
      <point x="42" y="587" type="line"/>
      <point x="124" y="587" type="line"/>
      <point x="124" y="370" type="line"/>
      <point x="46" y="370" type="line"/>
      <point x="46" y="308" type="line"/>
      <point x="124" y="308" type="line"/>
      <point x="124" y="63" type="line"/>
      <point x="42" y="63" type="line"/>
      <point x="42" y="0" type="line"/>
      <point x="336" y="0" type="line" smooth="yes"/>
      <point x="541" y="0"/>
      <point x="665" y="135"/>
    </contour>
    <contour>
      <point x="587" y="325" type="curve" smooth="yes"/>
      <point x="587" y="164"/>
      <point x="497" y="63"/>
      <point x="332" y="63" type="curve" smooth="yes"/>
      <point x="197" y="63" type="line"/>
      <point x="197" y="308" type="line"/>
      <point x="332" y="308" type="line"/>
      <point x="332" y="370" type="line"/>
      <point x="197" y="370" type="line"/>
      <point x="197" y="587" type="line"/>
      <point x="332" y="587" type="line" smooth="yes"/>
      <point x="497" y="587"/>
      <point x="587" y="482"/>
    </contour>
  </outline>
</glyph>
<glyph name="Emacron" format="1">
  <advance width="589"/>
  <unicode hex="0112"/>
  <outline>
    <contour>
      <point x="462" y="733" type="line"/>
      <point x="462" y="790" type="line"/>
      <point x="183" y="790" type="line"/>
      <point x="183" y="733" type="line"/>
    </contour>
    <contour>
      <point x="526" y="0" type="line"/>
      <point x="545" y="184" type="line"/>
      <point x="482" y="191" type="line"/>
      <point x="462" y="64" type="line"/>
      <point x="197" y="64" type="line"/>
      <point x="197" y="298" type="line"/>
      <point x="504" y="298" type="line"/>
      <point x="504" y="362" type="line"/>
      <point x="197" y="362" type="line"/>
      <point x="197" y="586" type="line"/>
      <point x="453" y="586" type="line"/>
      <point x="473" y="459" type="line"/>
      <point x="537" y="466" type="line"/>
      <point x="517" y="650" type="line"/>
      <point x="42" y="650" type="line"/>
      <point x="42" y="586" type="line"/>
      <point x="124" y="586" type="line"/>
      <point x="124" y="64" type="line"/>
      <point x="42" y="64" type="line"/>
      <point x="42" y="0" type="line"/>
    </contour>
  </outline>
</glyph>
<glyph name="ebreve" format="1">
  <advance width="470"/>
  <unicode hex="0115"/>
  <outline>
    <contour>
      <point x="435" y="128" type="curve"/>
      <point x="376" y="141" type="line"/>
      <point x="362" y="86"/>
      <point x="323" y="50"/>
      <point x="253" y="50" type="curve" smooth="yes"/>
      <point x="165" y="50"/>
      <point x="116" y="107"/>
      <point x="112" y="206" type="curve"/>
      <point x="425" y="206" type="line"/>
      <point x="429" y="224"/>
      <point x="431" y="242"/>
      <point x="431" y="259" type="curve" smooth="yes"/>
      <point x="430" y="364"/>
      <point x="364" y="454"/>
      <point x="242" y="454" type="curve" smooth="yes"/>
      <point x="116" y="454"/>
      <point x="38" y="354"/>
      <point x="38" y="216" type="curve" smooth="yes"/>
      <point x="38" y="72"/>
      <point x="122" y="-10"/>
      <point x="248" y="-10" type="curve" smooth="yes"/>
      <point x="358" y="-10"/>
      <point x="423" y="52"/>
    </contour>
    <contour>
      <point x="357" y="258" type="curve"/>
      <point x="113" y="258" type="line"/>
      <point x="122" y="333"/>
      <point x="158" y="396"/>
      <point x="240" y="396" type="curve" smooth="yes"/>
      <point x="327" y="396"/>
      <point x="364" y="324"/>
    </contour>
    <contour>
      <point x="366" y="655" type="curve"/>
      <point x="307" y="655" type="line"/>
      <point x="307" y="604"/>
      <point x="288" y="580"/>
      <point x="244" y="580" type="curve" smooth="yes"/>
      <point x="203" y="580"/>
      <point x="180" y="601"/>
      <point x="180" y="655" type="curve"/>
      <point x="121" y="655" type="line"/>
      <point x="121" y="574"/>
      <point x="162" y="532"/>
      <point x="243" y="532" type="curve" smooth="yes"/>
      <point x="323" y="532"/>
      <point x="366" y="572"/>
    </contour>
  </outline>
</glyph>
<glyph name="eogonek" format="1">
  <advance width="470"/>
  <unicode hex="0119"/>
  <outline>
    <contour>
      <point x="435" y="128" type="curve"/>
      <point x="376" y="141" type="line"/>
      <point x="362" y="86"/>
      <point x="323" y="50"/>
      <point x="253" y="50" type="curve" smooth="yes"/>
      <point x="165" y="50"/>
      <point x="116" y="107"/>
      <point x="112" y="206" type="curve"/>
      <point x="425" y="206" type="line"/>
      <point x="429" y="224"/>
      <point x="431" y="242"/>
      <point x="431" y="259" type="curve" smooth="yes"/>
      <point x="430" y="364"/>
      <point x="364" y="454"/>
      <point x="242" y="454" type="curve" smooth="yes"/>
      <point x="116" y="454"/>
      <point x="38" y="354"/>
      <point x="38" y="216" type="curve" smooth="yes"/>
      <point x="38" y="73"/>
      <point x="120" y="-8"/>
      <point x="244" y="-10" type="curve"/>
      <point x="211" y="-35"/>
      <point x="187" y="-73"/>
      <point x="187" y="-118" type="curve" smooth="yes"/>
      <point x="187" y="-175"/>
      <point x="229" y="-209"/>
      <point x="291" y="-209" type="curve" smooth="yes"/>
      <point x="322" y="-209"/>
      <point x="348" y="-201"/>
      <point x="370" y="-189" type="curve"/>
      <point x="361" y="-140" type="line"/>
      <point x="343" y="-151"/>
      <point x="325" y="-155"/>
      <point x="307" y="-155" type="curve" smooth="yes"/>
      <point x="273" y="-155"/>
      <point x="249" y="-141"/>
      <point x="249" y="-99" type="curve" smooth="yes"/>
      <point x="249" y="-67"/>
      <point x="264" y="-32"/>
      <point x="309" y="-3" type="curve"/>
      <point x="382" y="15"/>
      <point x="425" y="67"/>
    </contour>
    <contour>
      <point x="357" y="258" type="curve"/>
      <point x="113" y="258" type="line"/>
      <point x="122" y="333"/>
      <point x="158" y="396"/>
      <point x="240" y="396" type="curve" smooth="yes"/>
      <point x="327" y="396"/>
      <point x="364" y="324"/>
    </contour>
  </outline>
</glyph>
<glyph name="Gbreve" format="1">
  <advance width="691"/>
  <unicode hex="011E"/>
  <outline>
    <contour>
      <point x="479" y="816" type="curve"/>
      <point x="421" y="816" type="line"/>
      <point x="421" y="765"/>
      <point x="402" y="747"/>
      <point x="357" y="747" type="curve" smooth="yes"/>
      <point x="316" y="747"/>
      <point x="293" y="763"/>
      <point x="293" y="816" type="curve"/>
      <point x="235" y="816" type="line"/>
      <point x="235" y="735"/>
      <point x="276" y="699"/>
      <point x="357" y="699" type="curve" smooth="yes"/>
      <point x="438" y="699"/>
      <point x="479" y="733"/>
    </contour>
    <contour>
      <point x="664" y="270" type="line"/>
      <point x="664" y="335" type="line"/>
      <point x="385" y="335" type="line"/>
      <point x="385" y="270" type="line"/>
      <point x="540" y="270" type="line"/>
      <point x="540" y="212" type="line" smooth="yes"/>
      <point x="540" y="133"/>
      <point x="471" y="56"/>
      <point x="353" y="56" type="curve" smooth="yes"/>
      <point x="211" y="56"/>
      <point x="118" y="164"/>
      <point x="118" y="325" type="curve" smooth="yes"/>
      <point x="118" y="483"/>
      <point x="215" y="594"/>
      <point x="361" y="594" type="curve" smooth="yes"/>
      <point x="441" y="594"/>
      <point x="489" y="571"/>
      <point x="525" y="547" type="curve"/>
      <point x="545" y="455" type="line"/>
      <point x="607" y="462" type="line"/>
      <point x="589" y="584" type="line"/>
      <point x="540" y="628"/>
      <point x="461" y="660"/>
      <point x="357" y="660" type="curve" smooth="yes"/>
      <point x="170" y="660"/>
      <point x="40" y="509"/>
      <point x="40" y="322" type="curve" smooth="yes"/>
      <point x="40" y="136"/>
      <point x="162" y="-10"/>
      <point x="340" y="-10" type="curve" smooth="yes"/>
      <point x="436" y="-10"/>
      <point x="509" y="33"/>
      <point x="548" y="90" type="curve"/>
      <point x="557" y="0" type="line"/>
      <point x="613" y="0" type="line"/>
      <point x="613" y="270" type="line"/>
    </contour>
  </outline>
</glyph>
<glyph name="Hcircumflex" format="1">
  <advance width="755"/>
  <unicode hex="0124"/>
  <outline>
    <contour>
      <point x="713" y="0" type="line"/>
      <point x="713" y="64" type="line"/>
      <point x="631" y="64" type="line"/>
      <point x="631" y="586" type="line"/>
      <point x="713" y="586" type="line"/>
      <point x="713" y="650" type="line"/>
      <point x="476" y="650" type="line"/>
      <point x="476" y="586" type="line"/>
      <point x="558" y="586" type="line"/>
      <point x="558" y="362" type="line"/>
      <point x="197" y="362" type="line"/>
      <point x="197" y="586" type="line"/>
      <point x="279" y="586" type="line"/>
      <point x="279" y="650" type="line"/>
      <point x="42" y="650" type="line"/>
      <point x="42" y="586" type="line"/>
      <point x="124" y="586" type="line"/>
      <point x="124" y="64" type="line"/>
      <point x="42" y="64" type="line"/>
      <point x="42" y="0" type="line"/>
      <point x="279" y="0" type="line"/>
      <point x="279" y="64" type="line"/>
      <point x="197" y="64" type="line"/>
      <point x="197" y="300" type="line"/>
      <point x="558" y="300" type="line"/>
      <point x="558" y="64" type="line"/>
      <point x="476" y="64" type="line"/>
      <point x="476" y="0" type="line"/>
    </contour>
    <contour>
      <point x="518" y="737" type="line"/>
      <point x="392" y="827" type="line"/>
      <point x="371" y="827" type="line"/>
      <point x="244" y="734" type="line"/>
      <point x="263" y="701" type="line"/>
      <point x="379" y="764" type="line"/>
      <point x="499" y="702" type="line"/>
    </contour>
  </outline>
</glyph>
<glyph name="Itilde" format="1">
  <advance width="322"/>
  <unicode hex="0128"/>
  <outline>
    <contour>
      <point x="279" y="0" type="line"/>
      <point x="279" y="64" type="line"/>
      <point x="198" y="64" type="line"/>
      <point x="198" y="586" type="line"/>
      <point x="279" y="586" type="line"/>
      <point x="279" y="650" type="line"/>
      <point x="42" y="650" type="line"/>
      <point x="42" y="586" type="line"/>
      <point x="124" y="586" type="line"/>
      <point x="124" y="64" type="line"/>
      <point x="42" y="64" type="line"/>
      <point x="42" y="0" type="line"/>
    </contour>
    <contour>
      <point x="308" y="798" type="curve"/>
      <point x="272" y="807" type="line"/>
      <point x="261" y="770"/>
      <point x="243" y="765"/>
      <point x="225" y="765" type="curve" smooth="yes"/>
      <point x="177" y="765"/>
      <point x="150" y="800"/>
      <point x="106" y="800" type="curve" smooth="yes"/>
      <point x="55" y="800"/>
      <point x="29" y="752"/>
      <point x="24" y="718" type="curve"/>
      <point x="57" y="705" type="line"/>
      <point x="67" y="737"/>
      <point x="88" y="744"/>
      <point x="107" y="744" type="curve" smooth="yes"/>
      <point x="146" y="744"/>
      <point x="179" y="709"/>
      <point x="230" y="709" type="curve" smooth="yes"/>
      <point x="278" y="709"/>
      <point x="298" y="744"/>
    </contour>
  </outline>
</glyph>
<glyph name="itilde" format="1">
  <advance width="279"/>
  <unicode hex="0129"/>
  <outline>
    <contour>
      <point x="34" y="57" type="line"/>
      <point x="112" y="57" type="line"/>
      <point x="112" y="388" type="line"/>
      <point x="32" y="388" type="line"/>
      <point x="32" y="445" type="line"/>
      <point x="182" y="445" type="line"/>
      <point x="182" y="57" type="line"/>
      <point x="260" y="57" type="line"/>
      <point x="260" y="0" type="line"/>
      <point x="34" y="0" type="line"/>
    </contour>
    <contour>
      <point x="276" y="646" type="curve"/>
      <point x="240" y="655" type="line"/>
      <point x="229" y="619"/>
      <point x="211" y="612"/>
      <point x="193" y="612" type="curve" smooth="yes"/>
      <point x="145" y="612"/>
      <point x="118" y="649"/>
      <point x="73" y="649" type="curve" smooth="yes"/>
      <point x="22" y="649"/>
      <point x="-3" y="596"/>
      <point x="-8" y="561" type="curve"/>
      <point x="25" y="549" type="line"/>
      <point x="35" y="581"/>
      <point x="57" y="592"/>
      <point x="76" y="592" type="curve" smooth="yes"/>
      <point x="113" y="592"/>
      <point x="147" y="553"/>
      <point x="199" y="553" type="curve" smooth="yes"/>
      <point x="245" y="553"/>
      <point x="267" y="592"/>
    </contour>
  </outline>
</glyph>
<glyph name="Imacron" format="1">
  <advance width="322"/>
  <unicode hex="012A"/>
  <outline>
    <contour>
      <point x="279" y="0" type="line"/>
      <point x="279" y="64" type="line"/>
      <point x="198" y="64" type="line"/>
      <point x="198" y="586" type="line"/>
      <point x="279" y="586" type="line"/>
      <point x="279" y="650" type="line"/>
      <point x="42" y="650" type="line"/>
      <point x="42" y="586" type="line"/>
      <point x="124" y="586" type="line"/>
      <point x="124" y="64" type="line"/>
      <point x="42" y="64" type="line"/>
      <point x="42" y="0" type="line"/>
    </contour>
    <contour>
      <point x="303" y="733" type="line"/>
      <point x="303" y="790" type="line"/>
      <point x="24" y="790" type="line"/>
      <point x="24" y="733" type="line"/>
    </contour>
  </outline>
</glyph>
<glyph name="ibreve" format="1">
  <advance width="279"/>
  <unicode hex="012D"/>
  <outline>
    <contour>
      <point x="34" y="57" type="line"/>
      <point x="112" y="57" type="line"/>
      <point x="112" y="388" type="line"/>
      <point x="32" y="388" type="line"/>
      <point x="32" y="445" type="line"/>
      <point x="182" y="445" type="line"/>
      <point x="182" y="57" type="line"/>
      <point x="260" y="57" type="line"/>
      <point x="260" y="0" type="line"/>
      <point x="34" y="0" type="line"/>
    </contour>
    <contour>
      <point x="265" y="655" type="curve"/>
      <point x="206" y="655" type="line"/>
      <point x="206" y="604"/>
      <point x="187" y="580"/>
      <point x="143" y="580" type="curve" smooth="yes"/>
      <point x="102" y="580"/>
      <point x="79" y="601"/>
      <point x="79" y="655" type="curve"/>
      <point x="20" y="655" type="line"/>
      <point x="20" y="574"/>
      <point x="61" y="532"/>
      <point x="142" y="532" type="curve" smooth="yes"/>
      <point x="222" y="532"/>
      <point x="265" y="572"/>
    </contour>
  </outline>
</glyph>
<glyph name="Iogonek" format="1">
  <advance width="322"/>
  <unicode hex="012E"/>
  <outline>
    <contour>
      <point x="248" y="-189" type="curve"/>
      <point x="239" y="-140" type="line"/>
      <point x="221" y="-151"/>
      <point x="203" y="-155"/>
      <point x="185" y="-155" type="curve" smooth="yes"/>
      <point x="151" y="-155"/>
      <point x="127" y="-141"/>
      <point x="127" y="-99" type="curve" smooth="yes"/>
      <point x="127" y="-66"/>
      <point x="143" y="-29"/>
      <point x="191" y="0" type="curve"/>
      <point x="279" y="0" type="line"/>
      <point x="279" y="64" type="line"/>
      <point x="198" y="64" type="line"/>
      <point x="198" y="586" type="line"/>
      <point x="279" y="586" type="line"/>
      <point x="279" y="650" type="line"/>
      <point x="42" y="650" type="line"/>
      <point x="42" y="586" type="line"/>
      <point x="124" y="586" type="line"/>
      <point x="124" y="64" type="line"/>
      <point x="42" y="64" type="line"/>
      <point x="42" y="0" type="line"/>
      <point x="137" y="0" type="line"/>
      <point x="96" y="-25"/>
      <point x="65" y="-67"/>
      <point x="65" y="-118" type="curve" smooth="yes"/>
      <point x="65" y="-175"/>
      <point x="107" y="-209"/>
      <point x="169" y="-209" type="curve" smooth="yes"/>
      <point x="200" y="-209"/>
      <point x="226" y="-201"/>
    </contour>
  </outline>
</glyph>
<glyph name="dotlessi" format="1">
  <advance width="280"/>
  <unicode hex="0131"/>
  <outline>
    <contour>
      <point x="34" y="57" type="line"/>
      <point x="112" y="57" type="line"/>
      <point x="112" y="388" type="line"/>
      <point x="32" y="388" type="line"/>
      <point x="32" y="445" type="line"/>
      <point x="182" y="445" type="line"/>
      <point x="182" y="57" type="line"/>
      <point x="260" y="57" type="line"/>
      <point x="260" y="0" type="line"/>
      <point x="34" y="0" type="line"/>
    </contour>
    <contour>
      <point x="302" y="566" type="move" name="top"/>
    </contour>
  </outline>
</glyph>
<glyph name="IJ" format="1">
  <advance width="777"/>
  <unicode hex="0132"/>
  <outline>
    <contour>
      <point x="279" y="0" type="line"/>
      <point x="279" y="64" type="line"/>
      <point x="198" y="64" type="line"/>
      <point x="198" y="586" type="line"/>
      <point x="279" y="586" type="line"/>
      <point x="279" y="650" type="line"/>
      <point x="42" y="650" type="line"/>
      <point x="42" y="586" type="line"/>
      <point x="124" y="586" type="line"/>
      <point x="124" y="64" type="line"/>
      <point x="42" y="64" type="line"/>
      <point x="42" y="0" type="line"/>
    </contour>
    <contour>
      <point x="739" y="586" type="line"/>
      <point x="739" y="650" type="line"/>
      <point x="465" y="650" type="line"/>
      <point x="465" y="586" type="line"/>
      <point x="594" y="586" type="line"/>
      <point x="594" y="166" type="line" smooth="yes"/>
      <point x="594" y="101"/>
      <point x="565" y="59"/>
      <point x="494" y="59" type="curve" smooth="yes"/>
      <point x="450" y="59"/>
      <point x="419" y="75"/>
      <point x="391" y="129" type="curve"/>
      <point x="338" y="89" type="line"/>
      <point x="366" y="30"/>
      <point x="415" y="-10"/>
      <point x="500" y="-10" type="curve" smooth="yes"/>
      <point x="605" y="-10"/>
      <point x="667" y="48"/>
      <point x="667" y="166" type="curve" smooth="yes"/>
      <point x="667" y="586" type="line"/>
    </contour>
  </outline>
</glyph>
<glyph name="kcommaaccent" format="1">
  <advance width="520"/>
  <unicode hex="0137"/>
  <outline>
    <contour>
      <point x="295" y="-64" type="line"/>
      <point x="228" y="-64" type="line"/>
      <point x="220" y="-218" type="line"/>
      <point x="277" y="-218" type="line"/>
    </contour>
    <contour>
      <point x="509" y="0" type="line"/>
      <point x="509" y="57" type="line"/>
      <point x="446" y="57" type="line"/>
      <point x="299" y="241" type="line"/>
      <point x="418" y="388" type="line"/>
      <point x="486" y="388" type="line"/>
      <point x="486" y="445" type="line"/>
      <point x="278" y="445" type="line"/>
      <point x="278" y="388" type="line"/>
      <point x="347" y="388" type="line"/>
      <point x="245" y="262" type="line"/>
      <point x="165" y="262" type="line"/>
      <point x="165" y="688" type="line"/>
      <point x="15" y="688" type="line"/>
      <point x="15" y="631" type="line"/>
      <point x="94" y="631" type="line"/>
      <point x="94" y="57" type="line"/>
      <point x="17" y="57" type="line"/>
      <point x="17" y="0" type="line"/>
      <point x="229" y="0" type="line"/>
      <point x="229" y="57" type="line"/>
      <point x="165" y="57" type="line"/>
      <point x="165" y="208" type="line"/>
      <point x="244" y="208" type="line"/>
      <point x="366" y="57" type="line"/>
      <point x="299" y="57" type="line"/>
      <point x="299" y="0" type="line"/>
    </contour>
  </outline>
</glyph>
<glyph name="Lacute" format="1">
  <advance width="545"/>
  <unicode hex="0139"/>
  <outline>
    <contour>
      <point x="298" y="745" type="line"/>
      <point x="281" y="813" type="line"/>
      <point x="90" y="740" type="line"/>
      <point x="101" y="703" type="line"/>
    </contour>
    <contour>
      <point x="511" y="0" type="line"/>
      <point x="531" y="208" type="line"/>
      <point x="466" y="213" type="line"/>
      <point x="446" y="64" type="line"/>
      <point x="197" y="64" type="line"/>
      <point x="197" y="586" type="line"/>
      <point x="306" y="586" type="line"/>
      <point x="306" y="650" type="line"/>
      <point x="42" y="650" type="line"/>
      <point x="42" y="586" type="line"/>
      <point x="124" y="586" type="line"/>
      <point x="124" y="64" type="line"/>
      <point x="42" y="64" type="line"/>
      <point x="42" y="0" type="line"/>
    </contour>
  </outline>
</glyph>
<glyph name="Lcaron" format="1">
  <advance width="545"/>
  <unicode hex="013D"/>
  <outline>
    <contour>
      <point x="434" y="682" type="line"/>
      <point x="368" y="682" type="line"/>
      <point x="355" y="458" type="line"/>
      <point x="412" y="458" type="line"/>
    </contour>
    <contour>
      <point x="511" y="0" type="line"/>
      <point x="531" y="208" type="line"/>
      <point x="466" y="213" type="line"/>
      <point x="446" y="64" type="line"/>
      <point x="197" y="64" type="line"/>
      <point x="197" y="586" type="line"/>
      <point x="306" y="586" type="line"/>
      <point x="306" y="650" type="line"/>
      <point x="42" y="650" type="line"/>
      <point x="42" y="586" type="line"/>
      <point x="124" y="586" type="line"/>
      <point x="124" y="64" type="line"/>
      <point x="42" y="64" type="line"/>
      <point x="42" y="0" type="line"/>
    </contour>
  </outline>
</glyph>
<glyph name="lcaron" format="1">
  <advance width="276"/>
  <unicode hex="013E"/>
  <outline>
    <contour>
      <point x="314" y="681" type="line"/>
      <point x="248" y="681" type="line"/>
      <point x="235" y="457" type="line"/>
      <point x="292" y="457" type="line"/>
    </contour>
    <contour>
      <point x="246" y="0" type="line"/>
      <point x="246" y="57" type="line"/>
      <point x="168" y="57" type="line"/>
      <point x="168" y="688" type="line"/>
      <point x="19" y="688" type="line"/>
      <point x="19" y="631" type="line"/>
      <point x="98" y="631" type="line"/>
      <point x="98" y="57" type="line"/>
      <point x="20" y="57" type="line"/>
      <point x="20" y="0" type="line"/>
    </contour>
  </outline>
</glyph>
<glyph name="Ldot" format="1">
  <advance width="545"/>
  <unicode hex="013F"/>
  <outline>
    <contour>
      <point x="511" y="0" type="line"/>
      <point x="531" y="208" type="line"/>
      <point x="466" y="213" type="line"/>
      <point x="446" y="64" type="line"/>
      <point x="197" y="64" type="line"/>
      <point x="197" y="586" type="line"/>
      <point x="306" y="586" type="line"/>
      <point x="306" y="650" type="line"/>
      <point x="42" y="650" type="line"/>
      <point x="42" y="586" type="line"/>
      <point x="124" y="586" type="line"/>
      <point x="124" y="64" type="line"/>
      <point x="42" y="64" type="line"/>
      <point x="42" y="0" type="line"/>
    </contour>
    <contour>
      <point x="333" y="295" type="line"/>
      <point x="410" y="295" type="line"/>
      <point x="410" y="386" type="line"/>
      <point x="333" y="386" type="line"/>
    </contour>
  </outline>
</glyph>
<glyph name="Nacute" format="1">
  <advance width="738"/>
  <unicode hex="0143"/>
  <outline>
    <contour>
      <point x="514" y="745" type="line"/>
      <point x="497" y="813" type="line"/>
      <point x="306" y="740" type="line"/>
      <point x="317" y="703" type="line"/>
    </contour>
    <contour>
      <point x="703" y="586" type="line"/>
      <point x="703" y="650" type="line"/>
      <point x="454" y="650" type="line"/>
      <point x="454" y="586" type="line"/>
      <point x="552" y="586" type="line"/>
      <point x="552" y="149" type="line"/>
      <point x="548" y="149" type="line"/>
      <point x="178" y="650" type="line"/>
      <point x="38" y="650" type="line"/>
      <point x="38" y="586" type="line"/>
      <point x="124" y="586" type="line"/>
      <point x="124" y="64" type="line"/>
      <point x="49" y="64" type="line"/>
      <point x="49" y="0" type="line"/>
      <point x="297" y="0" type="line"/>
      <point x="297" y="64" type="line"/>
      <point x="194" y="64" type="line"/>
      <point x="194" y="512" type="line"/>
      <point x="198" y="512" type="line"/>
      <point x="575" y="0" type="line"/>
      <point x="622" y="0" type="line"/>
      <point x="622" y="586" type="line"/>
    </contour>
  </outline>
</glyph>
<glyph name="obreve" format="1">
  <advance width="513"/>
  <unicode hex="014F"/>
  <outline>
    <contour>
      <point x="476" y="223" type="curve" smooth="yes"/>
      <point x="476" y="349"/>
      <point x="402" y="455"/>
      <point x="257" y="455" type="curve" smooth="yes"/>
      <point x="113" y="455"/>
      <point x="37" y="349"/>
      <point x="37" y="219" type="curve" smooth="yes"/>
      <point x="37" y="85"/>
      <point x="118" y="-10"/>
      <point x="253" y="-10" type="curve" smooth="yes"/>
      <point x="390" y="-10"/>
      <point x="476" y="88"/>
    </contour>
    <contour>
      <point x="402" y="224" type="curve" smooth="yes"/>
      <point x="402" y="124"/>
      <point x="350" y="50"/>
      <point x="255" y="50" type="curve" smooth="yes"/>
      <point x="160" y="50"/>
      <point x="110" y="126"/>
      <point x="110" y="223" type="curve" smooth="yes"/>
      <point x="110" y="322"/>
      <point x="162" y="395"/>
      <point x="255" y="395" type="curve" smooth="yes"/>
      <point x="348" y="395"/>
      <point x="402" y="326"/>
    </contour>
    <contour>
      <point x="384" y="655" type="curve"/>
      <point x="325" y="655" type="line"/>
      <point x="325" y="604"/>
      <point x="306" y="580"/>
      <point x="262" y="580" type="curve" smooth="yes"/>
      <point x="221" y="580"/>
      <point x="198" y="601"/>
      <point x="198" y="655" type="curve"/>
      <point x="139" y="655" type="line"/>
      <point x="139" y="574"/>
      <point x="180" y="532"/>
      <point x="261" y="532" type="curve" smooth="yes"/>
      <point x="341" y="532"/>
      <point x="384" y="572"/>
    </contour>
  </outline>
</glyph>
<glyph name="OE" format="1">
  <advance width="998"/>
  <unicode hex="0152"/>
  <outline>
    <contour>
      <point x="937" y="0" type="line"/>
      <point x="957" y="184" type="line"/>
      <point x="892" y="191" type="line"/>
      <point x="872" y="64" type="line"/>
      <point x="606" y="64" type="line"/>
      <point x="606" y="298" type="line"/>
      <point x="912" y="298" type="line"/>
      <point x="912" y="362" type="line"/>
      <point x="606" y="362" type="line"/>
      <point x="606" y="586" type="line"/>
      <point x="863" y="586" type="line"/>
      <point x="883" y="459" type="line"/>
      <point x="948" y="466" type="line"/>
      <point x="928" y="650" type="line"/>
      <point x="533" y="650" type="line"/>
      <point x="533" y="611" type="line"/>
      <point x="487" y="641"/>
      <point x="431" y="660"/>
      <point x="365" y="660" type="curve" smooth="yes"/>
      <point x="175" y="660"/>
      <point x="39" y="512"/>
      <point x="39" y="325" type="curve" smooth="yes"/>
      <point x="39" y="141"/>
      <point x="170" y="-10"/>
      <point x="365" y="-10" type="curve" smooth="yes"/>
      <point x="432" y="-10"/>
      <point x="487" y="8"/>
      <point x="533" y="38" type="curve"/>
      <point x="533" y="0" type="line"/>
    </contour>
    <contour>
      <point x="533" y="116" type="line"/>
      <point x="495" y="78"/>
      <point x="436" y="56"/>
      <point x="369" y="56" type="curve" smooth="yes"/>
      <point x="208" y="56"/>
      <point x="117" y="183"/>
      <point x="117" y="327" type="curve" smooth="yes"/>
      <point x="117" y="475"/>
      <point x="213" y="594"/>
      <point x="368" y="594" type="curve" smooth="yes"/>
      <point x="432" y="594"/>
      <point x="489" y="573"/>
      <point x="533" y="534" type="curve"/>
    </contour>
  </outline>
</glyph>
<glyph name="scedilla" format="1">
  <advance width="438"/>
  <unicode hex="015F"/>
  <outline>
    <contour>
      <point x="338" y="-125" type="curve" smooth="yes"/>
      <point x="338" y="-81"/>
      <point x="311" y="-47"/>
      <point x="249" y="-47" type="curve" smooth="yes"/>
      <point x="241" y="-47" type="line"/>
      <point x="241" y="-8" type="line"/>
      <point x="332" y="0"/>
      <point x="399" y="50"/>
      <point x="399" y="129" type="curve" smooth="yes"/>
      <point x="399" y="306"/>
      <point x="123" y="214"/>
      <point x="123" y="330" type="curve" smooth="yes"/>
      <point x="123" y="376"/>
      <point x="163" y="396"/>
      <point x="219" y="396" type="curve" smooth="yes"/>
      <point x="255" y="396"/>
      <point x="283" y="388"/>
      <point x="310" y="374" type="curve"/>
      <point x="321" y="302" type="line"/>
      <point x="379" y="309" type="line"/>
      <point x="368" y="413" type="line"/>
      <point x="331" y="435"/>
      <point x="274" y="454"/>
      <point x="213" y="454" type="curve" smooth="yes"/>
      <point x="132" y="454"/>
      <point x="48" y="419"/>
      <point x="48" y="325" type="curve" smooth="yes"/>
      <point x="48" y="152"/>
      <point x="327" y="245"/>
      <point x="327" y="123" type="curve" smooth="yes"/>
      <point x="327" y="72"/>
      <point x="269" y="48"/>
      <point x="207" y="48" type="curve" smooth="yes"/>
      <point x="170" y="48"/>
      <point x="137" y="56"/>
      <point x="108" y="70" type="curve"/>
      <point x="111" y="129" type="line"/>
      <point x="55" y="135" type="line"/>
      <point x="41" y="34" type="line"/>
      <point x="75" y="12"/>
      <point x="132" y="-6"/>
      <point x="189" y="-9" type="curve"/>
      <point x="189" y="-80" type="line"/>
      <point x="219" y="-80" type="line" smooth="yes"/>
      <point x="251" y="-80"/>
      <point x="277" y="-87"/>
      <point x="277" y="-120" type="curve" smooth="yes"/>
      <point x="277" y="-150"/>
      <point x="256" y="-161"/>
      <point x="226" y="-161" type="curve" smooth="yes"/>
      <point x="194" y="-161"/>
      <point x="168" y="-151"/>
      <point x="151" y="-138" type="curve"/>
      <point x="134" y="-179" type="line"/>
      <point x="158" y="-199"/>
      <point x="192" y="-209"/>
      <point x="230" y="-209" type="curve" smooth="yes"/>
      <point x="288" y="-209"/>
      <point x="338" y="-185"/>
    </contour>
  </outline>
</glyph>
<glyph name="tcaron" format="1">
  <advance width="371"/>
  <unicode hex="0165"/>
  <outline>
    <contour>
      <point x="326" y="761" type="line"/>
      <point x="260" y="761" type="line"/>
      <point x="247" y="537" type="line"/>
      <point x="304" y="537" type="line"/>
    </contour>
    <contour>
      <point x="366" y="120" type="curve"/>
      <point x="313" y="137" type="line"/>
      <point x="300" y="65"/>
      <point x="267" y="51"/>
      <point x="232" y="51" type="curve" smooth="yes"/>
      <point x="178" y="51"/>
      <point x="157" y="86"/>
      <point x="157" y="140" type="curve" smooth="yes"/>
      <point x="157" y="389" type="line"/>
      <point x="331" y="389" type="line"/>
      <point x="331" y="445" type="line"/>
      <point x="157" y="445" type="line"/>
      <point x="157" y="588" type="line"/>
      <point x="87" y="588" type="line"/>
      <point x="87" y="445" type="line"/>
      <point x="15" y="445" type="line"/>
      <point x="15" y="389" type="line"/>
      <point x="87" y="389" type="line"/>
      <point x="87" y="131" type="line" smooth="yes"/>
      <point x="87" y="44"/>
      <point x="136" y="-10"/>
      <point x="225" y="-10" type="curve" smooth="yes"/>
      <point x="305" y="-10"/>
      <point x="354" y="34"/>
    </contour>
  </outline>
</glyph>
<glyph name="tbar" format="1">
  <advance width="373"/>
  <unicode hex="0167"/>
  <outline>
    <contour>
      <point x="23" y="230" type="line"/>
      <point x="88" y="230" type="line"/>
      <point x="88" y="131" type="line" smooth="yes"/>
      <point x="88" y="44"/>
      <point x="137" y="-10"/>
      <point x="226" y="-10" type="curve" smooth="yes"/>
      <point x="306" y="-10"/>
      <point x="355" y="34"/>
      <point x="367" y="120" type="curve"/>
      <point x="314" y="137" type="line"/>
      <point x="301" y="65"/>
      <point x="268" y="51"/>
      <point x="233" y="51" type="curve" smooth="yes"/>
      <point x="179" y="51"/>
      <point x="158" y="86"/>
      <point x="158" y="140" type="curve" smooth="yes"/>
      <point x="158" y="230" type="line"/>
      <point x="322" y="230" type="line"/>
      <point x="322" y="283" type="line"/>
      <point x="158" y="283" type="line"/>
      <point x="158" y="389" type="line"/>
      <point x="332" y="389" type="line"/>
      <point x="332" y="445" type="line"/>
      <point x="158" y="445" type="line"/>
      <point x="158" y="588" type="line"/>
      <point x="88" y="588" type="line"/>
      <point x="88" y="445" type="line"/>
      <point x="16" y="445" type="line"/>
      <point x="16" y="389" type="line"/>
      <point x="88" y="389" type="line"/>
      <point x="88" y="283" type="line"/>
      <point x="23" y="283" type="line"/>
    </contour>
  </outline>
</glyph>
<glyph name="Utilde" format="1">
  <advance width="717"/>
  <unicode hex="0168"/>
  <outline>
    <contour>
      <point x="510" y="798" type="curve"/>
      <point x="474" y="807" type="line"/>
      <point x="463" y="770"/>
      <point x="445" y="765"/>
      <point x="427" y="765" type="curve" smooth="yes"/>
      <point x="379" y="765"/>
      <point x="352" y="800"/>
      <point x="308" y="800" type="curve" smooth="yes"/>
      <point x="257" y="800"/>
      <point x="231" y="752"/>
      <point x="226" y="718" type="curve"/>
      <point x="259" y="705" type="line"/>
      <point x="269" y="737"/>
      <point x="290" y="744"/>
      <point x="309" y="744" type="curve" smooth="yes"/>
      <point x="348" y="744"/>
      <point x="381" y="709"/>
      <point x="432" y="709" type="curve" smooth="yes"/>
      <point x="480" y="709"/>
      <point x="500" y="744"/>
    </contour>
    <contour>
      <point x="680" y="586" type="line"/>
      <point x="680" y="650" type="line"/>
      <point x="455" y="650" type="line"/>
      <point x="455" y="586" type="line"/>
      <point x="548" y="586" type="line"/>
      <point x="548" y="267" type="line" smooth="yes"/>
      <point x="548" y="128"/>
      <point x="482" y="56"/>
      <point x="361" y="56" type="curve" smooth="yes"/>
      <point x="236" y="56"/>
      <point x="177" y="130"/>
      <point x="177" y="258" type="curve" smooth="yes"/>
      <point x="177" y="586" type="line"/>
      <point x="267" y="586" type="line"/>
      <point x="267" y="650" type="line"/>
      <point x="36" y="650" type="line"/>
      <point x="36" y="586" type="line"/>
      <point x="103" y="586" type="line"/>
      <point x="103" y="256" type="line" smooth="yes"/>
      <point x="103" y="116"/>
      <point x="164" y="-10"/>
      <point x="357" y="-10" type="curve" smooth="yes"/>
      <point x="557" y="-10"/>
      <point x="617" y="129"/>
      <point x="617" y="267" type="curve" smooth="yes"/>
      <point x="617" y="586" type="line"/>
    </contour>
  </outline>
</glyph>
<glyph name="utilde" format="1">
  <advance width="562"/>
  <unicode hex="0169"/>
  <outline>
    <contour>
      <point x="546" y="0" type="line"/>
      <point x="546" y="57" type="line"/>
      <point x="466" y="57" type="line"/>
      <point x="466" y="445" type="line"/>
      <point x="303" y="445" type="line"/>
      <point x="303" y="388" type="line"/>
      <point x="396" y="388" type="line"/>
      <point x="396" y="184" type="line"/>
      <point x="394" y="120"/>
      <point x="340" y="50"/>
      <point x="264" y="50" type="curve" smooth="yes"/>
      <point x="201" y="50"/>
      <point x="157" y="84"/>
      <point x="157" y="180" type="curve" smooth="yes"/>
      <point x="157" y="445" type="line"/>
      <point x="9" y="445" type="line"/>
      <point x="9" y="388" type="line"/>
      <point x="87" y="388" type="line"/>
      <point x="87" y="160" type="line" smooth="yes"/>
      <point x="87" y="41"/>
      <point x="154" y="-10"/>
      <point x="241" y="-10" type="curve" smooth="yes"/>
      <point x="312" y="-10"/>
      <point x="368" y="28"/>
      <point x="396" y="84" type="curve"/>
      <point x="396" y="0" type="line"/>
    </contour>
    <contour>
      <point x="415" y="646" type="curve"/>
      <point x="379" y="655" type="line"/>
      <point x="368" y="619"/>
      <point x="350" y="612"/>
      <point x="332" y="612" type="curve" smooth="yes"/>
      <point x="284" y="612"/>
      <point x="257" y="649"/>
      <point x="212" y="649" type="curve" smooth="yes"/>
      <point x="161" y="649"/>
      <point x="136" y="596"/>
      <point x="131" y="561" type="curve"/>
      <point x="164" y="549" type="line"/>
      <point x="174" y="581"/>
      <point x="196" y="592"/>
      <point x="215" y="592" type="curve" smooth="yes"/>
      <point x="252" y="592"/>
      <point x="286" y="553"/>
      <point x="338" y="553" type="curve" smooth="yes"/>
      <point x="384" y="553"/>
      <point x="406" y="592"/>
    </contour>
  </outline>
</glyph>
<glyph name="umacron" format="1">
  <advance width="562"/>
  <unicode hex="016B"/>
  <outline>
    <contour>
      <point x="546" y="0" type="line"/>
      <point x="546" y="57" type="line"/>
      <point x="466" y="57" type="line"/>
      <point x="466" y="445" type="line"/>
      <point x="303" y="445" type="line"/>
      <point x="303" y="388" type="line"/>
      <point x="396" y="388" type="line"/>
      <point x="396" y="184" type="line"/>
      <point x="394" y="120"/>
      <point x="340" y="50"/>
      <point x="264" y="50" type="curve" smooth="yes"/>
      <point x="201" y="50"/>
      <point x="157" y="84"/>
      <point x="157" y="180" type="curve" smooth="yes"/>
      <point x="157" y="445" type="line"/>
      <point x="9" y="445" type="line"/>
      <point x="9" y="388" type="line"/>
      <point x="87" y="388" type="line"/>
      <point x="87" y="160" type="line" smooth="yes"/>
      <point x="87" y="41"/>
      <point x="154" y="-10"/>
      <point x="241" y="-10" type="curve" smooth="yes"/>
      <point x="312" y="-10"/>
      <point x="368" y="28"/>
      <point x="396" y="84" type="curve"/>
      <point x="396" y="0" type="line"/>
    </contour>
    <contour>
      <point x="391" y="564" type="line"/>
      <point x="391" y="621" type="line"/>
      <point x="147" y="621" type="line"/>
      <point x="147" y="564" type="line"/>
    </contour>
  </outline>
</glyph>
<glyph name="Ubreve" format="1">
  <advance width="717"/>
  <unicode hex="016C"/>
  <outline>
    <contour>
      <point x="483" y="816" type="curve"/>
      <point x="425" y="816" type="line"/>
      <point x="425" y="765"/>
      <point x="406" y="747"/>
      <point x="361" y="747" type="curve" smooth="yes"/>
      <point x="320" y="747"/>
      <point x="297" y="763"/>
      <point x="297" y="816" type="curve"/>
      <point x="239" y="816" type="line"/>
      <point x="239" y="735"/>
      <point x="280" y="699"/>
      <point x="361" y="699" type="curve" smooth="yes"/>
      <point x="442" y="699"/>
      <point x="483" y="733"/>
    </contour>
    <contour>
      <point x="680" y="586" type="line"/>
      <point x="680" y="650" type="line"/>
      <point x="455" y="650" type="line"/>
      <point x="455" y="586" type="line"/>
      <point x="548" y="586" type="line"/>
      <point x="548" y="267" type="line" smooth="yes"/>
      <point x="548" y="128"/>
      <point x="482" y="56"/>
      <point x="361" y="56" type="curve" smooth="yes"/>
      <point x="236" y="56"/>
      <point x="177" y="130"/>
      <point x="177" y="258" type="curve" smooth="yes"/>
      <point x="177" y="586" type="line"/>
      <point x="267" y="586" type="line"/>
      <point x="267" y="650" type="line"/>
      <point x="36" y="650" type="line"/>
      <point x="36" y="586" type="line"/>
      <point x="103" y="586" type="line"/>
      <point x="103" y="256" type="line" smooth="yes"/>
      <point x="103" y="116"/>
      <point x="164" y="-10"/>
      <point x="357" y="-10" type="curve" smooth="yes"/>
      <point x="557" y="-10"/>
      <point x="617" y="129"/>
      <point x="617" y="267" type="curve" smooth="yes"/>
      <point x="617" y="586" type="line"/>
    </contour>
  </outline>
</glyph>
<glyph name="Uhungarumlaut" format="1">
  <advance width="717"/>
  <unicode hex="0170"/>
  <outline>
    <contour>
      <point x="680" y="586" type="line"/>
      <point x="680" y="650" type="line"/>
      <point x="455" y="650" type="line"/>
      <point x="455" y="586" type="line"/>
      <point x="548" y="586" type="line"/>
      <point x="548" y="267" type="line" smooth="yes"/>
      <point x="548" y="128"/>
      <point x="482" y="56"/>
      <point x="361" y="56" type="curve" smooth="yes"/>
      <point x="236" y="56"/>
      <point x="177" y="130"/>
      <point x="177" y="258" type="curve" smooth="yes"/>
      <point x="177" y="586" type="line"/>
      <point x="267" y="586" type="line"/>
      <point x="267" y="650" type="line"/>
      <point x="36" y="650" type="line"/>
      <point x="36" y="586" type="line"/>
      <point x="103" y="586" type="line"/>
      <point x="103" y="256" type="line" smooth="yes"/>
      <point x="103" y="116"/>
      <point x="164" y="-10"/>
      <point x="357" y="-10" type="curve" smooth="yes"/>
      <point x="557" y="-10"/>
      <point x="617" y="129"/>
      <point x="617" y="267" type="curve" smooth="yes"/>
      <point x="617" y="586" type="line"/>
    </contour>
    <contour>
      <point x="578" y="745" type="line"/>
      <point x="560" y="813" type="line"/>
      <point x="370" y="740" type="line"/>
      <point x="380" y="703" type="line"/>
    </contour>
    <contour>
      <point x="427" y="831" type="line"/>
      <point x="378" y="882" type="line"/>
      <point x="244" y="729" type="line"/>
      <point x="270" y="703" type="line"/>
    </contour>
  </outline>
</glyph>
<glyph name="Zdotaccent" format="1">
  <advance width="577"/>
  <unicode hex="017B"/>
  <outline>
    <contour>
      <point x="256" y="718" type="line"/>
      <point x="337" y="718" type="line"/>
      <point x="337" y="803" type="line"/>
      <point x="256" y="803" type="line"/>
    </contour>
    <contour>
      <point x="514" y="0" type="line"/>
      <point x="540" y="193" type="line"/>
      <point x="477" y="202" type="line"/>
      <point x="449" y="64" type="line"/>
      <point x="135" y="64" type="line"/>
      <point x="135" y="67" type="line"/>
      <point x="521" y="610" type="line"/>
      <point x="519" y="650" type="line"/>
      <point x="71" y="650" type="line"/>
      <point x="46" y="462" type="line"/>
      <point x="108" y="453" type="line"/>
      <point x="136" y="586" type="line"/>
      <point x="416" y="586" type="line"/>
      <point x="416" y="583" type="line"/>
      <point x="32" y="44" type="line"/>
      <point x="34" y="0" type="line"/>
    </contour>
  </outline>
</glyph>
<glyph name="uni018F" format="1">
  <advance width="684"/>
  <unicode hex="018F"/>
  <outline>
    <contour>
      <point x="122" y="435" type="line"/>
      <point x="135" y="541" type="line"/>
      <point x="189" y="575"/>
      <point x="260" y="594"/>
      <point x="333" y="594" type="curve" smooth="yes"/>
      <point x="475" y="594"/>
      <point x="554" y="497"/>
      <point x="564" y="346" type="curve"/>
      <point x="44" y="346" type="line"/>
      <point x="44" y="282" type="line" smooth="yes"/>
      <point x="44" y="102"/>
      <point x="157" y="-10"/>
      <point x="334" y="-10" type="curve" smooth="yes"/>
      <point x="542" y="-10"/>
      <point x="643" y="144"/>
      <point x="643" y="323" type="curve" smooth="yes"/>
      <point x="643" y="511"/>
      <point x="539" y="660"/>
      <point x="337" y="660" type="curve" smooth="yes"/>
      <point x="227" y="660"/>
      <point x="136" y="626"/>
      <point x="72" y="578" type="curve"/>
      <point x="63" y="442" type="line"/>
    </contour>
    <contour>
      <point x="565" y="288" type="line"/>
      <point x="557" y="162"/>
      <point x="493" y="56"/>
      <point x="337" y="56" type="curve" smooth="yes"/>
      <point x="179" y="56"/>
      <point x="123" y="165"/>
      <point x="123" y="282" type="curve" smooth="yes"/>
      <point x="123" y="288" type="line"/>
    </contour>
  </outline>
</glyph>
<glyph name="florin" format="1">
  <advance width="387"/>
  <unicode hex="0192"/>
  <outline>
    <contour>
      <point x="53" y="272" type="line"/>
      <point x="133" y="272" type="line"/>
      <point x="140" y="381" type="line" smooth="yes"/>
      <point x="146" y="478"/>
      <point x="204" y="529"/>
      <point x="301" y="529" type="curve" smooth="yes"/>
      <point x="317" y="529"/>
      <point x="346" y="528"/>
      <point x="367" y="525" type="curve"/>
      <point x="367" y="473" type="line"/>
      <point x="342" y="476"/>
      <point x="321" y="479"/>
      <point x="302" y="479" type="curve" smooth="yes"/>
      <point x="243" y="479"/>
      <point x="214" y="456"/>
      <point x="209" y="379" type="curve" smooth="yes"/>
      <point x="203" y="272" type="line"/>
      <point x="320" y="272" type="line"/>
      <point x="320" y="226" type="line"/>
      <point x="200" y="226" type="line"/>
      <point x="189" y="18" type="line" smooth="yes"/>
      <point x="185" y="-47"/>
      <point x="165" y="-112"/>
      <point x="61" y="-112" type="curve" smooth="yes"/>
      <point x="51" y="-112"/>
      <point x="40" y="-111"/>
      <point x="18" y="-108" type="curve"/>
      <point x="18" y="-58" type="line"/>
      <point x="34" y="-62"/>
      <point x="50" y="-62"/>
      <point x="61" y="-62" type="curve" smooth="yes"/>
      <point x="104" y="-62"/>
      <point x="116" y="-41"/>
      <point x="120" y="29" type="curve" smooth="yes"/>
      <point x="131" y="226" type="line"/>
      <point x="53" y="226" type="line"/>
    </contour>
  </outline>
</glyph>
<glyph name="uni01C9" format="1">
  <advance width="518"/>
  <unicode hex="01C9"/>
  <outline>
    <contour>
      <point x="443" y="-13" type="curve" smooth="yes"/>
      <point x="443" y="445" type="line"/>
      <point x="273" y="445" type="line"/>
      <point x="273" y="388" type="line"/>
      <point x="372" y="388" type="line"/>
      <point x="372" y="-13" type="line" smooth="yes"/>
      <point x="372" y="-157"/>
      <point x="305" y="-170"/>
      <point x="250" y="-170" type="curve"/>
      <point x="252" y="-224" type="line"/>
      <point x="362" y="-233"/>
      <point x="443" y="-183"/>
    </contour>
    <contour>
      <point x="367" y="560" type="line"/>
      <point x="443" y="560" type="line"/>
      <point x="443" y="651" type="line"/>
      <point x="367" y="651" type="line"/>
    </contour>
    <contour>
      <point x="246" y="0" type="line"/>
      <point x="246" y="57" type="line"/>
      <point x="168" y="57" type="line"/>
      <point x="168" y="688" type="line"/>
      <point x="19" y="688" type="line"/>
      <point x="19" y="631" type="line"/>
      <point x="98" y="631" type="line"/>
      <point x="98" y="57" type="line"/>
      <point x="20" y="57" type="line"/>
      <point x="20" y="0" type="line"/>
    </contour>
  </outline>
</glyph>
<glyph name="uni01CA" format="1">
  <advance width="1185"/>
  <unicode hex="01CA"/>
  <outline>
    <contour>
      <point x="1146" y="586" type="line"/>
      <point x="1146" y="650" type="line"/>
      <point x="872" y="650" type="line"/>
      <point x="872" y="586" type="line"/>
      <point x="1001" y="586" type="line"/>
      <point x="1001" y="166" type="line" smooth="yes"/>
      <point x="1001" y="101"/>
      <point x="972" y="59"/>
      <point x="901" y="59" type="curve" smooth="yes"/>
      <point x="857" y="59"/>
      <point x="826" y="75"/>
      <point x="798" y="129" type="curve"/>
      <point x="745" y="89" type="line"/>
      <point x="773" y="30"/>
      <point x="822" y="-10"/>
      <point x="907" y="-10" type="curve" smooth="yes"/>
      <point x="1012" y="-10"/>
      <point x="1074" y="48"/>
      <point x="1074" y="166" type="curve" smooth="yes"/>
      <point x="1074" y="586" type="line"/>
    </contour>
    <contour>
      <point x="703" y="586" type="line"/>
      <point x="703" y="650" type="line"/>
      <point x="454" y="650" type="line"/>
      <point x="454" y="586" type="line"/>
      <point x="552" y="586" type="line"/>
      <point x="552" y="149" type="line"/>
      <point x="548" y="149" type="line"/>
      <point x="178" y="650" type="line"/>
      <point x="38" y="650" type="line"/>
      <point x="38" y="586" type="line"/>
      <point x="124" y="586" type="line"/>
      <point x="124" y="64" type="line"/>
      <point x="49" y="64" type="line"/>
      <point x="49" y="0" type="line"/>
      <point x="297" y="0" type="line"/>
      <point x="297" y="64" type="line"/>
      <point x="194" y="64" type="line"/>
      <point x="194" y="512" type="line"/>
      <point x="198" y="512" type="line"/>
      <point x="575" y="0" type="line"/>
      <point x="622" y="0" type="line"/>
      <point x="622" y="586" type="line"/>
    </contour>
  </outline>
</glyph>
<glyph name="uni01D3" format="1">
  <advance width="717"/>
  <unicode hex="01D3"/>
  <outline>
    <contour>
      <point x="498" y="792" type="line"/>
      <point x="479" y="827" type="line"/>
      <point x="364" y="763" type="line"/>
      <point x="244" y="824" type="line"/>
      <point x="224" y="790" type="line"/>
      <point x="350" y="701" type="line"/>
      <point x="372" y="701" type="line"/>
    </contour>
    <contour>
      <point x="680" y="586" type="line"/>
      <point x="680" y="650" type="line"/>
      <point x="455" y="650" type="line"/>
      <point x="455" y="586" type="line"/>
      <point x="548" y="586" type="line"/>
      <point x="548" y="267" type="line" smooth="yes"/>
      <point x="548" y="128"/>
      <point x="482" y="56"/>
      <point x="361" y="56" type="curve" smooth="yes"/>
      <point x="236" y="56"/>
      <point x="177" y="130"/>
      <point x="177" y="258" type="curve" smooth="yes"/>
      <point x="177" y="586" type="line"/>
      <point x="267" y="586" type="line"/>
      <point x="267" y="650" type="line"/>
      <point x="36" y="650" type="line"/>
      <point x="36" y="586" type="line"/>
      <point x="103" y="586" type="line"/>
      <point x="103" y="256" type="line" smooth="yes"/>
      <point x="103" y="116"/>
      <point x="164" y="-10"/>
      <point x="357" y="-10" type="curve" smooth="yes"/>
      <point x="557" y="-10"/>
      <point x="617" y="129"/>
      <point x="617" y="267" type="curve" smooth="yes"/>
      <point x="617" y="586" type="line"/>
    </contour>
  </outline>
</glyph>
<glyph name="AEmacron" format="1">
  <advance width="919"/>
  <unicode hex="01E2"/>
  <outline>
    <contour>
      <point x="798" y="733" type="line"/>
      <point x="798" y="790" type="line"/>
      <point x="519" y="790" type="line"/>
      <point x="519" y="733" type="line"/>
    </contour>
    <contour>
      <point x="855" y="0" type="line"/>
      <point x="874" y="184" type="line"/>
      <point x="810" y="191" type="line"/>
      <point x="790" y="64" type="line"/>
      <point x="527" y="64" type="line"/>
      <point x="527" y="298" type="line"/>
      <point x="833" y="298" type="line"/>
      <point x="833" y="362" type="line"/>
      <point x="527" y="362" type="line"/>
      <point x="527" y="586" type="line"/>
      <point x="781" y="586" type="line"/>
      <point x="801" y="459" type="line"/>
      <point x="865" y="467" type="line"/>
      <point x="846" y="650" type="line"/>
      <point x="220" y="650" type="line"/>
      <point x="220" y="586" type="line"/>
      <point x="317" y="586" type="line"/>
      <point x="59" y="64" type="line"/>
      <point x="-7" y="64" type="line"/>
      <point x="-7" y="0" type="line"/>
      <point x="222" y="0" type="line"/>
      <point x="222" y="64" type="line"/>
      <point x="132" y="64" type="line"/>
      <point x="194" y="189" type="line"/>
      <point x="453" y="189" type="line"/>
      <point x="453" y="64" type="line"/>
      <point x="372" y="64" type="line"/>
      <point x="372" y="0" type="line"/>
    </contour>
    <contour>
      <point x="453" y="246" type="line"/>
      <point x="221" y="246" type="line"/>
      <point x="387" y="586" type="line"/>
      <point x="453" y="586" type="line"/>
    </contour>
  </outline>
</glyph>
<glyph name="aemacron" format="1">
  <advance width="759"/>
  <unicode hex="01E3"/>
  <outline>
    <contour>
      <point x="504" y="564" type="line"/>
      <point x="504" y="621" type="line"/>
      <point x="260" y="621" type="line"/>
      <point x="260" y="564" type="line"/>
    </contour>
    <contour>
      <point x="724" y="128" type="curve"/>
      <point x="665" y="141" type="line"/>
      <point x="651" y="86"/>
      <point x="613" y="51"/>
      <point x="543" y="51" type="curve" smooth="yes"/>
      <point x="455" y="51"/>
      <point x="406" y="107"/>
      <point x="402" y="206" type="curve"/>
      <point x="714" y="206" type="line"/>
      <point x="718" y="224"/>
      <point x="720" y="242"/>
      <point x="720" y="259" type="curve" smooth="yes"/>
      <point x="720" y="364"/>
      <point x="654" y="454"/>
      <point x="531" y="454" type="curve" smooth="yes"/>
      <point x="466" y="454"/>
      <point x="415" y="427"/>
      <point x="379" y="382" type="curve"/>
      <point x="357" y="429"/>
      <point x="312" y="454"/>
      <point x="247" y="454" type="curve" smooth="yes"/>
      <point x="177" y="454"/>
      <point x="130" y="443"/>
      <point x="82" y="411" type="curve"/>
      <point x="65" y="308" type="line"/>
      <point x="123" y="301" type="line"/>
      <point x="141" y="378" type="line"/>
      <point x="168" y="391"/>
      <point x="195" y="396"/>
      <point x="231" y="396" type="curve" smooth="yes"/>
      <point x="307" y="396"/>
      <point x="328" y="349"/>
      <point x="328" y="288" type="curve" smooth="yes"/>
      <point x="328" y="248" type="line"/>
      <point x="304" y="250"/>
      <point x="275" y="252"/>
      <point x="250" y="252" type="curve" smooth="yes"/>
      <point x="149" y="252"/>
      <point x="39" y="227"/>
      <point x="39" y="115" type="curve" smooth="yes"/>
      <point x="39" y="20"/>
      <point x="117" y="-10"/>
      <point x="179" y="-10" type="curve" smooth="yes"/>
      <point x="270" y="-10"/>
      <point x="323" y="45"/>
      <point x="354" y="95" type="curve"/>
      <point x="387" y="27"/>
      <point x="453" y="-10"/>
      <point x="537" y="-10" type="curve" smooth="yes"/>
      <point x="647" y="-10"/>
      <point x="712" y="52"/>
    </contour>
    <contour>
      <point x="646" y="257" type="curve"/>
      <point x="403" y="257" type="line"/>
      <point x="411" y="333"/>
      <point x="447" y="395"/>
      <point x="529" y="395" type="curve" smooth="yes"/>
      <point x="617" y="395"/>
      <point x="653" y="323"/>
    </contour>
    <contour>
      <point x="114" y="123" type="curve" smooth="yes"/>
      <point x="114" y="192"/>
      <point x="179" y="206"/>
      <point x="247" y="206" type="curve" smooth="yes"/>
      <point x="274" y="206"/>
      <point x="303" y="203"/>
      <point x="328" y="201" type="curve"/>
      <point x="328" y="168" type="line"/>
      <point x="324" y="94"/>
      <point x="259" y="48"/>
      <point x="197" y="48" type="curve" smooth="yes"/>
      <point x="158" y="48"/>
      <point x="114" y="66"/>
    </contour>
  </outline>
</glyph>
<glyph name="uni021B" format="1">
  <advance width="371"/>
  <unicode hex="021B"/>
  <outline>
    <contour>
      <point x="265" y="-64" type="line"/>
      <point x="198" y="-64" type="line"/>
      <point x="190" y="-218" type="line"/>
      <point x="247" y="-218" type="line"/>
    </contour>
    <contour>
      <point x="366" y="120" type="curve"/>
      <point x="313" y="137" type="line"/>
      <point x="300" y="65"/>
      <point x="267" y="51"/>
      <point x="232" y="51" type="curve" smooth="yes"/>
      <point x="178" y="51"/>
      <point x="157" y="86"/>
      <point x="157" y="140" type="curve" smooth="yes"/>
      <point x="157" y="389" type="line"/>
      <point x="331" y="389" type="line"/>
      <point x="331" y="445" type="line"/>
      <point x="157" y="445" type="line"/>
      <point x="157" y="588" type="line"/>
      <point x="87" y="588" type="line"/>
      <point x="87" y="445" type="line"/>
      <point x="15" y="445" type="line"/>
      <point x="15" y="389" type="line"/>
      <point x="87" y="389" type="line"/>
      <point x="87" y="131" type="line" smooth="yes"/>
      <point x="87" y="44"/>
      <point x="136" y="-10"/>
      <point x="225" y="-10" type="curve" smooth="yes"/>
      <point x="305" y="-10"/>
      <point x="354" y="34"/>
    </contour>
  </outline>
</glyph>
<glyph name="dotlessj" format="1">
  <advance width="252"/>
  <unicode hex="0237"/>
  <outline>
    <contour>
      <point x="7" y="445" type="line"/>
      <point x="177" y="445" type="line"/>
      <point x="177" y="-13" type="line" smooth="yes"/>
      <point x="177" y="-183"/>
      <point x="96" y="-233"/>
      <point x="-14" y="-224" type="curve"/>
      <point x="-16" y="-173" type="line"/>
      <point x="39" y="-173"/>
      <point x="106" y="-157"/>
      <point x="106" y="-13" type="curve" smooth="yes"/>
      <point x="106" y="388" type="line"/>
      <point x="7" y="388" type="line"/>
    </contour>
  </outline>
</glyph>
<glyph name="circumflex" format="1">
  <advance width="338"/>
  <unicode hex="02C6"/>
  <outline>
    <contour>
      <point x="322" y="553" type="line"/>
      <point x="201" y="671" type="line"/>
      <point x="179" y="671" type="line"/>
      <point x="58" y="551" type="line"/>
      <point x="83" y="519" type="line"/>
      <point x="184" y="603" type="line"/>
      <point x="295" y="519" type="line"/>
    </contour>
  </outline>
</glyph>
<glyph name="dotaccent" format="1">
  <advance width="209"/>
  <unicode hex="02D9"/>
  <outline>
    <contour>
      <point x="64" y="553" type="line"/>
      <point x="141" y="553" type="line"/>
      <point x="141" y="644" type="line"/>
      <point x="64" y="644" type="line"/>
    </contour>
  </outline>
</glyph>
<glyph name="ring" format="1">
  <advance width="260"/>
  <unicode hex="02DA"/>
  <outline>
    <contour>
      <point x="229" y="607" type="curve" smooth="yes"/>
      <point x="229" y="660"/>
      <point x="199" y="698"/>
      <point x="131" y="698" type="curve" smooth="yes"/>
      <point x="68" y="698"/>
      <point x="32" y="660"/>
      <point x="32" y="606" type="curve" smooth="yes"/>
      <point x="32" y="549"/>
      <point x="65" y="514"/>
      <point x="130" y="514" type="curve" smooth="yes"/>
      <point x="196" y="514"/>
      <point x="229" y="553"/>
    </contour>
    <contour>
      <point x="180" y="608" type="curve" smooth="yes"/>
      <point x="180" y="578"/>
      <point x="165" y="554"/>
      <point x="130" y="554" type="curve" smooth="yes"/>
      <point x="96" y="554"/>
      <point x="81" y="574"/>
      <point x="81" y="606" type="curve" smooth="yes"/>
      <point x="81" y="635"/>
      <point x="96" y="658"/>
      <point x="130" y="658" type="curve" smooth="yes"/>
      <point x="167" y="658"/>
      <point x="180" y="635"/>
    </contour>
  </outline>
</glyph>
<glyph name="tilde" format="1">
  <advance width="374"/>
  <unicode hex="02DC"/>
  <outline>
    <contour>
      <point x="319" y="646" type="curve"/>
      <point x="283" y="655" type="line"/>
      <point x="272" y="619"/>
      <point x="254" y="612"/>
      <point x="236" y="612" type="curve" smooth="yes"/>
      <point x="188" y="612"/>
      <point x="161" y="649"/>
      <point x="116" y="649" type="curve" smooth="yes"/>
      <point x="65" y="649"/>
      <point x="40" y="596"/>
      <point x="35" y="561" type="curve"/>
      <point x="68" y="549" type="line"/>
      <point x="78" y="581"/>
      <point x="100" y="592"/>
      <point x="119" y="592" type="curve" smooth="yes"/>
      <point x="156" y="592"/>
      <point x="190" y="553"/>
      <point x="242" y="553" type="curve" smooth="yes"/>
      <point x="288" y="553"/>
      <point x="310" y="592"/>
    </contour>
  </outline>
</glyph>
<glyph name="hungarumlaut" format="1">
  <advance width="430"/>
  <unicode hex="02DD"/>
  <outline>
    <contour>
      <point x="382" y="624" type="line"/>
      <point x="342" y="683" type="line"/>
      <point x="188" y="551" type="line"/>
      <point x="209" y="520" type="line"/>
    </contour>
    <contour>
      <point x="226" y="678" type="line"/>
      <point x="169" y="718" type="line"/>
      <point x="69" y="541" type="line"/>
      <point x="100" y="519" type="line"/>
    </contour>
  </outline>
</glyph>
<glyph name="dotbelowcmb" format="1">
  <advance width="833"/>
  <unicode hex="0323"/>
  <outline>
    <contour>
      <point x="95" y="-174" type="line"/>
      <point x="172" y="-174" type="line"/>
      <point x="172" y="-83" type="line"/>
      <point x="95" y="-83" type="line"/>
    </contour>
  </outline>
</glyph>
<glyph name="uni0394" format="1">
  <advance width="492"/>
  <unicode hex="0394"/>
  <outline>
    <contour>
      <point x="-1" y="0" type="line"/>
      <point x="490" y="0" type="line"/>
      <point x="250" y="661" type="line"/>
    </contour>
    <contour>
      <point x="81" y="57" type="line"/>
      <point x="249" y="506" type="line"/>
      <point x="409" y="57" type="line"/>
    </contour>
  </outline>
</glyph>
<glyph name="pi" format="1">
  <advance width="583"/>
  <unicode hex="03C0"/>
  <outline>
    <contour>
      <point x="31" y="57" type="line"/>
      <point x="108" y="57" type="line"/>
      <point x="108" y="388" type="line"/>
      <point x="29" y="388" type="line"/>
      <point x="29" y="445" type="line"/>
      <point x="555" y="445" type="line"/>
      <point x="555" y="388" type="line"/>
      <point x="475" y="388" type="line"/>
      <point x="475" y="57" type="line"/>
      <point x="552" y="57" type="line"/>
      <point x="552" y="0" type="line"/>
      <point x="326" y="0" type="line"/>
      <point x="326" y="57" type="line"/>
      <point x="404" y="57" type="line"/>
      <point x="404" y="388" type="line"/>
      <point x="179" y="388" type="line"/>
      <point x="179" y="57" type="line"/>
      <point x="256" y="57" type="line"/>
      <point x="256" y="0" type="line"/>
      <point x="31" y="0" type="line"/>
    </contour>
  </outline>
</glyph>
<glyph name="uni1E47" format="1">
  <advance width="573"/>
  <unicode hex="1E47"/>
  <outline>
    <contour>
      <point x="257" y="-174" type="line"/>
      <point x="334" y="-174" type="line"/>
      <point x="334" y="-83" type="line"/>
      <point x="257" y="-83" type="line"/>
    </contour>
    <contour>
      <point x="564" y="0" type="line"/>
      <point x="564" y="57" type="line"/>
      <point x="487" y="57" type="line"/>
      <point x="487" y="285" type="line" smooth="yes"/>
      <point x="487" y="403"/>
      <point x="421" y="454"/>
      <point x="334" y="454" type="curve" smooth="yes"/>
      <point x="263" y="454"/>
      <point x="208" y="421"/>
      <point x="178" y="366" type="curve"/>
      <point x="178" y="445" type="line"/>
      <point x="28" y="445" type="line"/>
      <point x="28" y="388" type="line"/>
      <point x="108" y="388" type="line"/>
      <point x="108" y="57" type="line"/>
      <point x="30" y="57" type="line"/>
      <point x="30" y="0" type="line"/>
      <point x="256" y="0" type="line"/>
      <point x="256" y="57" type="line"/>
      <point x="178" y="57" type="line"/>
      <point x="178" y="265" type="line"/>
      <point x="181" y="333"/>
      <point x="233" y="395"/>
      <point x="313" y="395" type="curve" smooth="yes"/>
      <point x="373" y="395"/>
      <point x="416" y="360"/>
      <point x="416" y="264" type="curve" smooth="yes"/>
      <point x="416" y="57" type="line"/>
      <point x="339" y="57" type="line"/>
      <point x="339" y="0" type="line"/>
    </contour>
  </outline>
</glyph>
<glyph name="Wacute" format="1">
  <advance width="934"/>
  <unicode hex="1E82"/>
  <outline>
    <contour>
      <point x="608" y="745" type="line"/>
      <point x="591" y="813" type="line"/>
      <point x="400" y="740" type="line"/>
      <point x="411" y="703" type="line"/>
    </contour>
    <contour>
      <point x="929" y="586" type="line"/>
      <point x="929" y="650" type="line"/>
      <point x="706" y="650" type="line"/>
      <point x="706" y="586" type="line"/>
      <point x="800" y="586" type="line"/>
      <point x="674" y="116" type="line"/>
      <point x="670" y="116" type="line"/>
      <point x="518" y="586" type="line"/>
      <point x="583" y="586" type="line"/>
      <point x="583" y="650" type="line"/>
      <point x="359" y="650" type="line"/>
      <point x="359" y="586" type="line"/>
      <point x="424" y="586" type="line"/>
      <point x="274" y="119" type="line"/>
      <point x="270" y="119" type="line"/>
      <point x="133" y="586" type="line"/>
      <point x="225" y="586" type="line"/>
      <point x="225" y="650" type="line"/>
      <point x="0" y="650" type="line"/>
      <point x="0" y="586" type="line"/>
      <point x="55" y="586" type="line"/>
      <point x="241" y="0" type="line"/>
      <point x="300" y="0" type="line"/>
      <point x="466" y="520" type="line"/>
      <point x="470" y="520" type="line"/>
      <point x="641" y="0" type="line"/>
      <point x="700" y="0" type="line"/>
      <point x="874" y="586" type="line"/>
    </contour>
  </outline>
</glyph>
<glyph name="wacute" format="1">
  <advance width="765"/>
  <unicode hex="1E83"/>
  <outline>
    <contour>
      <point x="551" y="624" type="line"/>
      <point x="511" y="683" type="line"/>
      <point x="357" y="551" type="line"/>
      <point x="379" y="520" type="line"/>
    </contour>
    <contour>
      <point x="756" y="388" type="line"/>
      <point x="756" y="445" type="line"/>
      <point x="556" y="445" type="line"/>
      <point x="556" y="388" type="line"/>
      <point x="637" y="388" type="line"/>
      <point x="555" y="107" type="line"/>
      <point x="550" y="107" type="line"/>
      <point x="411" y="445" type="line"/>
      <point x="364" y="445" type="line"/>
      <point x="232" y="107" type="line"/>
      <point x="227" y="107" type="line"/>
      <point x="134" y="388" type="line"/>
      <point x="219" y="388" type="line"/>
      <point x="219" y="445" type="line"/>
      <point x="9" y="445" type="line"/>
      <point x="9" y="388" type="line"/>
      <point x="58" y="388" type="line"/>
      <point x="194" y="0" type="line"/>
      <point x="246" y="0" type="line"/>
      <point x="379" y="340" type="line"/>
      <point x="384" y="340" type="line"/>
      <point x="520" y="0" type="line"/>
      <point x="574" y="0" type="line"/>
      <point x="705" y="388" type="line"/>
    </contour>
  </outline>
</glyph>
<glyph name="Wdieresis" format="1">
  <advance width="934"/>
  <unicode hex="1E84"/>
  <outline>
    <contour>
      <point x="347" y="718" type="line"/>
      <point x="428" y="718" type="line"/>
      <point x="428" y="803" type="line"/>
      <point x="347" y="803" type="line"/>
    </contour>
    <contour>
      <point x="519" y="718" type="line"/>
      <point x="599" y="718" type="line"/>
      <point x="599" y="803" type="line"/>
      <point x="519" y="803" type="line"/>
    </contour>
    <contour>
      <point x="929" y="586" type="line"/>
      <point x="929" y="650" type="line"/>
      <point x="706" y="650" type="line"/>
      <point x="706" y="586" type="line"/>
      <point x="800" y="586" type="line"/>
      <point x="674" y="116" type="line"/>
      <point x="670" y="116" type="line"/>
      <point x="518" y="586" type="line"/>
      <point x="583" y="586" type="line"/>
      <point x="583" y="650" type="line"/>
      <point x="359" y="650" type="line"/>
      <point x="359" y="586" type="line"/>
      <point x="424" y="586" type="line"/>
      <point x="274" y="119" type="line"/>
      <point x="270" y="119" type="line"/>
      <point x="133" y="586" type="line"/>
      <point x="225" y="586" type="line"/>
      <point x="225" y="650" type="line"/>
      <point x="0" y="650" type="line"/>
      <point x="0" y="586" type="line"/>
      <point x="55" y="586" type="line"/>
      <point x="241" y="0" type="line"/>
      <point x="300" y="0" type="line"/>
      <point x="466" y="520" type="line"/>
      <point x="470" y="520" type="line"/>
      <point x="641" y="0" type="line"/>
      <point x="700" y="0" type="line"/>
      <point x="874" y="586" type="line"/>
    </contour>
  </outline>
</glyph>
<glyph name="wdieresis" format="1">
  <advance width="765"/>
  <unicode hex="1E85"/>
  <outline>
    <contour>
      <point x="264" y="555" type="line"/>
      <point x="345" y="555" type="line"/>
      <point x="345" y="640" type="line"/>
      <point x="264" y="640" type="line"/>
    </contour>
    <contour>
      <point x="435" y="555" type="line"/>
      <point x="516" y="555" type="line"/>
      <point x="516" y="640" type="line"/>
      <point x="435" y="640" type="line"/>
    </contour>
    <contour>
      <point x="756" y="388" type="line"/>
      <point x="756" y="445" type="line"/>
      <point x="556" y="445" type="line"/>
      <point x="556" y="388" type="line"/>
      <point x="637" y="388" type="line"/>
      <point x="555" y="107" type="line"/>
      <point x="550" y="107" type="line"/>
      <point x="411" y="445" type="line"/>
      <point x="364" y="445" type="line"/>
      <point x="232" y="107" type="line"/>
      <point x="227" y="107" type="line"/>
      <point x="134" y="388" type="line"/>
      <point x="219" y="388" type="line"/>
      <point x="219" y="445" type="line"/>
      <point x="9" y="445" type="line"/>
      <point x="9" y="388" type="line"/>
      <point x="58" y="388" type="line"/>
      <point x="194" y="0" type="line"/>
      <point x="246" y="0" type="line"/>
      <point x="379" y="340" type="line"/>
      <point x="384" y="340" type="line"/>
      <point x="520" y="0" type="line"/>
      <point x="574" y="0" type="line"/>
      <point x="705" y="388" type="line"/>
    </contour>
  </outline>
</glyph>
<glyph name="Ygrave" format="1">
  <advance width="613"/>
  <unicode hex="1EF2"/>
  <outline>
    <contour>
      <point x="610" y="586" type="line"/>
      <point x="610" y="650" type="line"/>
      <point x="382" y="650" type="line"/>
      <point x="382" y="586" type="line"/>
      <point x="472" y="586" type="line"/>
      <point x="313" y="316" type="line"/>
      <point x="308" y="316" type="line"/>
      <point x="144" y="586" type="line"/>
      <point x="233" y="586" type="line"/>
      <point x="233" y="650" type="line"/>
      <point x="-4" y="650" type="line"/>
      <point x="-4" y="586" type="line"/>
      <point x="60" y="586" type="line"/>
      <point x="271" y="249" type="line"/>
      <point x="271" y="64" type="line"/>
      <point x="159" y="64" type="line"/>
      <point x="159" y="0" type="line"/>
      <point x="458" y="0" type="line"/>
      <point x="458" y="64" type="line"/>
      <point x="344" y="64" type="line"/>
      <point x="344" y="248" type="line"/>
      <point x="546" y="586" type="line"/>
    </contour>
    <contour>
      <point x="370" y="740" type="line"/>
      <point x="179" y="813" type="line"/>
      <point x="162" y="745" type="line"/>
      <point x="360" y="703" type="line"/>
    </contour>
  </outline>
</glyph>
<glyph name="ygrave" format="1">
  <advance width="511"/>
  <unicode hex="1EF3"/>
  <outline>
    <contour>
      <point x="502" y="388" type="line"/>
      <point x="502" y="445" type="line"/>
      <point x="306" y="445" type="line"/>
      <point x="306" y="388" type="line"/>
      <point x="378" y="388" type="line"/>
      <point x="267" y="89" type="line"/>
      <point x="261" y="89" type="line"/>
      <point x="136" y="388" type="line"/>
      <point x="214" y="388" type="line"/>
      <point x="214" y="445" type="line"/>
      <point x="8" y="445" type="line"/>
      <point x="8" y="388" type="line"/>
      <point x="61" y="388" type="line"/>
      <point x="223" y="1" type="line"/>
      <point x="165" y="-156" type="line"/>
      <point x="82" y="-156" type="line"/>
      <point x="82" y="-213" type="line"/>
      <point x="308" y="-213" type="line"/>
      <point x="308" y="-156" type="line"/>
      <point x="232" y="-156" type="line"/>
      <point x="292" y="0" type="line"/>
      <point x="449" y="388" type="line"/>
    </contour>
    <contour>
      <point x="315" y="551" type="line"/>
      <point x="161" y="683" type="line"/>
      <point x="121" y="624" type="line"/>
      <point x="294" y="520" type="line"/>
    </contour>
  </outline>
</glyph>
<glyph name="uni2012" format="1">
  <advance width="347"/>
  <unicode hex="2012"/>
  <outline>
    <contour>
      <point x="347" y="281" type="line"/>
      <point x="0" y="281" type="line"/>
      <point x="0" y="221" type="line"/>
      <point x="347" y="221" type="line"/>
    </contour>
  </outline>
</glyph>
<glyph name="endash" format="1">
  <advance width="623"/>
  <unicode hex="2013"/>
  <outline>
    <contour>
      <point x="61" y="257" type="line"/>
      <point x="563" y="257" type="line"/>
      <point x="563" y="206" type="line"/>
      <point x="61" y="206" type="line"/>
    </contour>
  </outline>
</glyph>
<glyph name="emdash" format="1">
  <advance width="1079"/>
  <unicode hex="2014"/>
  <outline>
    <contour>
      <point x="74" y="257" type="line"/>
      <point x="1014" y="257" type="line"/>
      <point x="1014" y="206" type="line"/>
      <point x="74" y="206" type="line"/>
    </contour>
  </outline>
</glyph>
<glyph name="quoteleft" format="1">
  <advance width="203"/>
  <unicode hex="2018"/>
  <outline>
    <contour>
      <point x="167" y="656" type="line"/>
      <point x="98" y="656" type="line"/>
      <point x="45" y="440" type="line"/>
      <point x="115" y="440" type="line"/>
    </contour>
  </outline>
</glyph>
<glyph name="quoteright" format="1">
  <advance width="201"/>
  <unicode hex="2019"/>
  <outline>
    <contour>
      <point x="44" y="479" type="line"/>
      <point x="113" y="479" type="line"/>
      <point x="166" y="695" type="line"/>
      <point x="96" y="695" type="line"/>
    </contour>
  </outline>
</glyph>
<glyph name="quotedblright" format="1">
  <advance width="363"/>
  <unicode hex="201D"/>
  <outline>
    <contour>
      <point x="40" y="454" type="line"/>
      <point x="109" y="454" type="line"/>
      <point x="162" y="670" type="line"/>
      <point x="92" y="670" type="line"/>
    </contour>
    <contour>
      <point x="204" y="454" type="line"/>
      <point x="273" y="454" type="line"/>
      <point x="326" y="670" type="line"/>
      <point x="256" y="670" type="line"/>
    </contour>
  </outline>
</glyph>
<glyph name="dagger" format="1">
  <advance width="467"/>
  <unicode hex="2020"/>
  <outline>
    <contour>
      <point x="29" y="428" type="line"/>
      <point x="202" y="428" type="line"/>
      <point x="202" y="650" type="line"/>
      <point x="265" y="650" type="line"/>
      <point x="265" y="428" type="line"/>
      <point x="439" y="428" type="line"/>
      <point x="439" y="366" type="line"/>
      <point x="265" y="366" type="line"/>
      <point x="265" y="-141" type="line"/>
      <point x="202" y="-141" type="line"/>
      <point x="202" y="366" type="line"/>
      <point x="29" y="366" type="line"/>
    </contour>
  </outline>
</glyph>
<glyph name="guilsinglleft" format="1">
  <advance width="287"/>
  <unicode hex="2039"/>
  <outline>
    <contour>
      <point x="239" y="25" type="line"/>
      <point x="110" y="271" type="line"/>
      <point x="239" y="511" type="line"/>
      <point x="179" y="511" type="line"/>
      <point x="41" y="271" type="line"/>
      <point x="179" y="25" type="line"/>
    </contour>
  </outline>
</glyph>
<glyph name="fraction" format="1">
  <advance width="136"/>
  <unicode hex="2044"/>
  <outline>
    <contour>
      <point x="281" y="650" type="line"/>
      <point x="91" y="325" type="line"/>
      <point x="-91" y="0" type="line"/>
      <point x="-144" y="0" type="line"/>
      <point x="53" y="337" type="line"/>
      <point x="228" y="650" type="line"/>
    </contour>
  </outline>
</glyph>
<glyph name="i.superior" format="1">
  <advance width="205"/>
  <unicode hex="2071"/>
  <outline>
    <contour>
      <point x="29" y="458" type="line"/>
      <point x="78" y="458" type="line"/>
      <point x="78" y="662" type="line"/>
      <point x="27" y="662" type="line"/>
      <point x="27" y="705" type="line"/>
      <point x="136" y="705" type="line"/>
      <point x="136" y="458" type="line"/>
      <point x="184" y="458" type="line"/>
      <point x="184" y="415" type="line"/>
      <point x="29" y="415" type="line"/>
    </contour>
    <contour>
      <point x="74" y="781" type="line"/>
      <point x="135" y="781" type="line"/>
      <point x="135" y="844" type="line"/>
      <point x="74" y="844" type="line"/>
    </contour>
  </outline>
</glyph>
<glyph name="foursuperior" format="1">
  <advance width="356"/>
  <unicode hex="2074"/>
  <outline>
    <contour>
      <point x="208" y="414" type="line"/>
      <point x="266" y="414" type="line"/>
      <point x="266" y="504" type="line"/>
      <point x="323" y="504" type="line"/>
      <point x="327" y="548" type="line"/>
      <point x="266" y="548" type="line"/>
      <point x="266" y="779" type="line"/>
      <point x="152" y="779" type="line"/>
      <point x="22" y="547" type="line"/>
      <point x="28" y="504" type="line"/>
      <point x="208" y="504" type="line"/>
    </contour>
    <contour>
      <point x="181" y="734" type="line"/>
      <point x="208" y="734" type="line"/>
      <point x="208" y="548" type="line"/>
      <point x="75" y="548" type="line"/>
    </contour>
  </outline>
</glyph>
<glyph name="fivesuperior" format="1">
  <advance width="334"/>
  <unicode hex="2075"/>
  <outline>
    <contour>
      <point x="302" y="524" type="curve" smooth="yes"/>
      <point x="302" y="619"/>
      <point x="223" y="639"/>
      <point x="139" y="639" type="curve" smooth="yes"/>
      <point x="112" y="639" type="line"/>
      <point x="112" y="734" type="line"/>
      <point x="235" y="734" type="line"/>
      <point x="241" y="684" type="line"/>
      <point x="287" y="689" type="line"/>
      <point x="282" y="779" type="line"/>
      <point x="57" y="779" type="line"/>
      <point x="57" y="610" type="line"/>
      <point x="77" y="594" type="line"/>
      <point x="94" y="595"/>
      <point x="112" y="597"/>
      <point x="132" y="597" type="curve" smooth="yes"/>
      <point x="187" y="597"/>
      <point x="240" y="586"/>
      <point x="240" y="524" type="curve" smooth="yes"/>
      <point x="240" y="481"/>
      <point x="211" y="454"/>
      <point x="160" y="454" type="curve" smooth="yes"/>
      <point x="108" y="454"/>
      <point x="85" y="485"/>
      <point x="77" y="517" type="curve"/>
      <point x="35" y="505" type="line"/>
      <point x="43" y="445"/>
      <point x="91" y="408"/>
      <point x="159" y="408" type="curve" smooth="yes"/>
      <point x="237" y="408"/>
      <point x="302" y="444"/>
    </contour>
  </outline>
</glyph>
<glyph name="sevensuperior" format="1">
  <advance width="308"/>
  <unicode hex="2077"/>
  <outline>
    <contour>
      <point x="29" y="779" type="line"/>
      <point x="29" y="672" type="line"/>
      <point x="80" y="672" type="line"/>
      <point x="80" y="734" type="line"/>
      <point x="229" y="734" type="line"/>
      <point x="90" y="415" type="line"/>
      <point x="148" y="415" type="line"/>
      <point x="292" y="752" type="line"/>
      <point x="284" y="779" type="line"/>
    </contour>
  </outline>
</glyph>
<glyph name="eightsuperior" format="1">
  <advance width="353"/>
  <unicode hex="2078"/>
  <outline>
    <contour>
      <point x="172" y="409" type="curve" smooth="yes"/>
      <point x="255" y="409"/>
      <point x="316" y="446"/>
      <point x="316" y="509" type="curve" smooth="yes"/>
      <point x="316" y="563"/>
      <point x="271" y="590"/>
      <point x="223" y="611" type="curve"/>
      <point x="266" y="628"/>
      <point x="303" y="649"/>
      <point x="303" y="695" type="curve" smooth="yes"/>
      <point x="303" y="749"/>
      <point x="249" y="785"/>
      <point x="176" y="785" type="curve" smooth="yes"/>
      <point x="99" y="785"/>
      <point x="47" y="746"/>
      <point x="47" y="689" type="curve" smooth="yes"/>
      <point x="47" y="643"/>
      <point x="84" y="618"/>
      <point x="126" y="598" type="curve"/>
      <point x="80" y="580"/>
      <point x="37" y="557"/>
      <point x="37" y="504" type="curve" smooth="yes"/>
      <point x="37" y="442"/>
      <point x="95" y="409"/>
    </contour>
    <contour>
      <point x="110" y="695" type="curve" smooth="yes"/>
      <point x="110" y="723"/>
      <point x="136" y="742"/>
      <point x="176" y="742" type="curve" smooth="yes"/>
      <point x="211" y="742"/>
      <point x="243" y="727"/>
      <point x="243" y="688" type="curve" smooth="yes"/>
      <point x="243" y="656"/>
      <point x="218" y="641"/>
      <point x="188" y="627" type="curve"/>
      <point x="146" y="645"/>
      <point x="110" y="661"/>
    </contour>
    <contour>
      <point x="175" y="452" type="curve" smooth="yes"/>
      <point x="126" y="452"/>
      <point x="96" y="476"/>
      <point x="96" y="514" type="curve" smooth="yes"/>
      <point x="96" y="550"/>
      <point x="126" y="567"/>
      <point x="160" y="583" type="curve"/>
      <point x="208" y="563"/>
      <point x="253" y="545"/>
      <point x="253" y="505" type="curve" smooth="yes"/>
      <point x="253" y="473"/>
      <point x="220" y="452"/>
    </contour>
  </outline>
</glyph>
<glyph name="plussuperior" format="1">
  <advance width="292"/>
  <unicode hex="207A"/>
  <outline>
    <contour>
      <point x="30" y="578" type="line"/>
      <point x="128" y="578" type="line"/>
      <point x="128" y="485" type="line"/>
      <point x="169" y="485" type="line"/>
      <point x="169" y="578" type="line"/>
      <point x="262" y="578" type="line"/>
      <point x="262" y="617" type="line"/>
      <point x="169" y="617" type="line"/>
      <point x="169" y="711" type="line"/>
      <point x="128" y="711" type="line"/>
      <point x="128" y="617" type="line"/>
      <point x="30" y="617" type="line"/>
    </contour>
  </outline>
</glyph>
<glyph name="minussuperior" format="1">
  <advance width="329"/>
  <unicode hex="207B"/>
  <outline>
    <contour>
      <point x="49" y="578" type="line"/>
      <point x="281" y="578" type="line"/>
      <point x="281" y="617" type="line"/>
      <point x="49" y="617" type="line"/>
    </contour>
  </outline>
</glyph>
<glyph name="equalsuperior" format="1">
  <advance width="401"/>
  <unicode hex="207C"/>
  <outline>
    <contour>
      <point x="51" y="645" type="line"/>
      <point x="348" y="645" type="line"/>
      <point x="348" y="685" type="line"/>
      <point x="51" y="685" type="line"/>
    </contour>
    <contour>
      <point x="51" y="510" type="line"/>
      <point x="348" y="510" type="line"/>
      <point x="348" y="549" type="line"/>
      <point x="51" y="549" type="line"/>
    </contour>
  </outline>
</glyph>
<glyph name="parenrightsuperior" format="1">
  <advance width="219"/>
  <unicode hex="207E"/>
  <outline>
    <contour>
      <point x="76" y="303" type="curve"/>
      <point x="24" y="303" type="line"/>
      <point x="95" y="388"/>
      <point x="131" y="480"/>
      <point x="131" y="576" type="curve" smooth="yes"/>
      <point x="131" y="671"/>
      <point x="95" y="769"/>
      <point x="24" y="854" type="curve"/>
      <point x="77" y="854" type="line"/>
      <point x="148" y="764"/>
      <point x="180" y="669"/>
      <point x="180" y="576" type="curve" smooth="yes"/>
      <point x="180" y="482"/>
      <point x="146" y="389"/>
    </contour>
  </outline>
</glyph>
<glyph name="oneinferior" format="1">
  <advance width="260"/>
  <unicode hex="2081"/>
  <outline>
    <contour>
      <point x="35" y="45" type="line"/>
      <point x="110" y="45" type="line"/>
      <point x="110" y="319" type="line"/>
      <point x="35" y="319" type="line"/>
      <point x="35" y="364" type="line"/>
      <point x="168" y="364" type="line"/>
      <point x="168" y="45" type="line"/>
      <point x="240" y="45" type="line"/>
      <point x="240" y="0" type="line"/>
      <point x="35" y="0" type="line"/>
    </contour>
  </outline>
</glyph>
<glyph name="fourinferior" format="1">
  <advance width="356"/>
  <unicode hex="2084"/>
  <outline>
    <contour>
      <point x="208" y="-1" type="line"/>
      <point x="266" y="-1" type="line"/>
      <point x="266" y="89" type="line"/>
      <point x="323" y="89" type="line"/>
      <point x="327" y="133" type="line"/>
      <point x="266" y="133" type="line"/>
      <point x="266" y="364" type="line"/>
      <point x="152" y="364" type="line"/>
      <point x="22" y="132" type="line"/>
      <point x="28" y="89" type="line"/>
      <point x="208" y="89" type="line"/>
    </contour>
    <contour>
      <point x="181" y="319" type="line"/>
      <point x="208" y="319" type="line"/>
      <point x="208" y="133" type="line"/>
      <point x="75" y="133" type="line"/>
    </contour>
  </outline>
</glyph>
<glyph name="fiveinferior" format="1">
  <advance width="334"/>
  <unicode hex="2085"/>
  <outline>
    <contour>
      <point x="302" y="109" type="curve" smooth="yes"/>
      <point x="302" y="204"/>
      <point x="223" y="224"/>
      <point x="139" y="224" type="curve" smooth="yes"/>
      <point x="112" y="224" type="line"/>
      <point x="112" y="319" type="line"/>
      <point x="235" y="319" type="line"/>
      <point x="241" y="269" type="line"/>
      <point x="287" y="274" type="line"/>
      <point x="282" y="364" type="line"/>
      <point x="57" y="364" type="line"/>
      <point x="57" y="195" type="line"/>
      <point x="77" y="179" type="line"/>
      <point x="94" y="180"/>
      <point x="112" y="182"/>
      <point x="132" y="182" type="curve" smooth="yes"/>
      <point x="187" y="182"/>
      <point x="240" y="171"/>
      <point x="240" y="109" type="curve" smooth="yes"/>
      <point x="240" y="66"/>
      <point x="211" y="39"/>
      <point x="160" y="39" type="curve" smooth="yes"/>
      <point x="108" y="39"/>
      <point x="85" y="70"/>
      <point x="77" y="102" type="curve"/>
      <point x="35" y="90" type="line"/>
      <point x="43" y="30"/>
      <point x="91" y="-7"/>
      <point x="159" y="-7" type="curve" smooth="yes"/>
      <point x="237" y="-7"/>
      <point x="302" y="29"/>
    </contour>
  </outline>
</glyph>
<glyph name="sixinferior" format="1">
  <advance width="348"/>
  <unicode hex="2086"/>
  <outline>
    <contour>
      <point x="195" y="325" type="curve" smooth="yes"/>
      <point x="215" y="325"/>
      <point x="240" y="320"/>
      <point x="268" y="287" type="curve"/>
      <point x="300" y="321" type="line"/>
      <point x="263" y="360"/>
      <point x="221" y="370"/>
      <point x="188" y="370" type="curve" smooth="yes"/>
      <point x="88" y="370"/>
      <point x="39" y="283"/>
      <point x="39" y="168" type="curve" smooth="yes"/>
      <point x="39" y="69"/>
      <point x="75" y="-6"/>
      <point x="177" y="-6" type="curve" smooth="yes"/>
      <point x="265" y="-6"/>
      <point x="308" y="48"/>
      <point x="308" y="118" type="curve" smooth="yes"/>
      <point x="308" y="175"/>
      <point x="280" y="229"/>
      <point x="200" y="229" type="curve" smooth="yes"/>
      <point x="143" y="229"/>
      <point x="114" y="203"/>
      <point x="101" y="175" type="curve"/>
      <point x="103" y="281"/>
      <point x="130" y="325"/>
    </contour>
    <contour>
      <point x="183" y="185" type="curve" smooth="yes"/>
      <point x="230" y="185"/>
      <point x="249" y="159"/>
      <point x="249" y="115" type="curve" smooth="yes"/>
      <point x="249" y="70"/>
      <point x="230" y="41"/>
      <point x="179" y="41" type="curve" smooth="yes"/>
      <point x="126" y="41"/>
      <point x="108" y="73"/>
      <point x="103" y="119" type="curve"/>
      <point x="105" y="150"/>
      <point x="125" y="185"/>
    </contour>
  </outline>
</glyph>
<glyph name="eightinferior" format="1">
  <advance width="352"/>
  <unicode hex="2088"/>
  <outline>
    <contour>
      <point x="172" y="-6" type="curve" smooth="yes"/>
      <point x="255" y="-6"/>
      <point x="316" y="31"/>
      <point x="316" y="94" type="curve" smooth="yes"/>
      <point x="316" y="148"/>
      <point x="271" y="175"/>
      <point x="223" y="196" type="curve"/>
      <point x="266" y="213"/>
      <point x="303" y="234"/>
      <point x="303" y="280" type="curve" smooth="yes"/>
      <point x="303" y="334"/>
      <point x="249" y="370"/>
      <point x="176" y="370" type="curve" smooth="yes"/>
      <point x="99" y="370"/>
      <point x="47" y="331"/>
      <point x="47" y="274" type="curve" smooth="yes"/>
      <point x="47" y="228"/>
      <point x="84" y="203"/>
      <point x="126" y="183" type="curve"/>
      <point x="80" y="165"/>
      <point x="37" y="142"/>
      <point x="37" y="89" type="curve" smooth="yes"/>
      <point x="37" y="27"/>
      <point x="95" y="-6"/>
    </contour>
    <contour>
      <point x="110" y="280" type="curve" smooth="yes"/>
      <point x="110" y="308"/>
      <point x="136" y="327"/>
      <point x="176" y="327" type="curve" smooth="yes"/>
      <point x="211" y="327"/>
      <point x="243" y="312"/>
      <point x="243" y="273" type="curve" smooth="yes"/>
      <point x="243" y="241"/>
      <point x="218" y="226"/>
      <point x="188" y="212" type="curve"/>
      <point x="146" y="230"/>
      <point x="110" y="246"/>
    </contour>
    <contour>
      <point x="175" y="37" type="curve" smooth="yes"/>
      <point x="126" y="37"/>
      <point x="96" y="61"/>
      <point x="96" y="99" type="curve" smooth="yes"/>
      <point x="96" y="135"/>
      <point x="126" y="152"/>
      <point x="160" y="168" type="curve"/>
      <point x="208" y="148"/>
      <point x="253" y="130"/>
      <point x="253" y="90" type="curve" smooth="yes"/>
      <point x="253" y="58"/>
      <point x="220" y="37"/>
    </contour>
  </outline>
</glyph>
<glyph name="nineinferior" format="1">
  <advance width="348"/>
  <unicode hex="2089"/>
  <outline>
    <contour>
      <point x="156" y="39" type="curve" smooth="yes"/>
      <point x="137" y="39"/>
      <point x="107" y="44"/>
      <point x="80" y="77" type="curve"/>
      <point x="48" y="43" type="line"/>
      <point x="84" y="4"/>
      <point x="129" y="-6"/>
      <point x="163" y="-6" type="curve" smooth="yes"/>
      <point x="262" y="-6"/>
      <point x="309" y="79"/>
      <point x="309" y="194" type="curve" smooth="yes"/>
      <point x="309" y="295"/>
      <point x="273" y="370"/>
      <point x="170" y="370" type="curve" smooth="yes"/>
      <point x="83" y="370"/>
      <point x="39" y="316"/>
      <point x="39" y="246" type="curve" smooth="yes"/>
      <point x="39" y="189"/>
      <point x="67" y="135"/>
      <point x="148" y="135" type="curve" smooth="yes"/>
      <point x="204" y="135"/>
      <point x="233" y="160"/>
      <point x="246" y="189" type="curve"/>
      <point x="244" y="83"/>
      <point x="221" y="39"/>
    </contour>
    <contour>
      <point x="164" y="179" type="curve" smooth="yes"/>
      <point x="117" y="179"/>
      <point x="98" y="205"/>
      <point x="98" y="249" type="curve" smooth="yes"/>
      <point x="98" y="294"/>
      <point x="118" y="323"/>
      <point x="169" y="323" type="curve" smooth="yes"/>
      <point x="223" y="323"/>
      <point x="240" y="290"/>
      <point x="244" y="240" type="curve"/>
      <point x="240" y="211"/>
      <point x="218" y="179"/>
    </contour>
  </outline>
</glyph>
<glyph name="plus.inferior" format="1">
  <advance width="291"/>
  <unicode hex="208A"/>
  <outline>
    <contour>
      <point x="29" y="163" type="line"/>
      <point x="127" y="163" type="line"/>
      <point x="127" y="70" type="line"/>
      <point x="168" y="70" type="line"/>
      <point x="168" y="163" type="line"/>
      <point x="261" y="163" type="line"/>
      <point x="261" y="202" type="line"/>
      <point x="168" y="202" type="line"/>
      <point x="168" y="296" type="line"/>
      <point x="127" y="296" type="line"/>
      <point x="127" y="202" type="line"/>
      <point x="29" y="202" type="line"/>
    </contour>
  </outline>
</glyph>
<glyph name="minus.inferior" format="1">
  <advance width="329"/>
  <unicode hex="208B"/>
  <outline>
    <contour>
      <point x="49" y="163" type="line"/>
      <point x="281" y="163" type="line"/>
      <point x="281" y="202" type="line"/>
      <point x="49" y="202" type="line"/>
    </contour>
  </outline>
</glyph>
<glyph name="equal.inferior" format="1">
  <advance width="396"/>
  <unicode hex="208C"/>
  <outline>
    <contour>
      <point x="49" y="230" type="line"/>
      <point x="346" y="230" type="line"/>
      <point x="346" y="270" type="line"/>
      <point x="49" y="270" type="line"/>
    </contour>
    <contour>
      <point x="49" y="95" type="line"/>
      <point x="346" y="95" type="line"/>
      <point x="346" y="134" type="line"/>
      <point x="49" y="134" type="line"/>
    </contour>
  </outline>
</glyph>
<glyph name="a.inferior" format="1">
  <advance width="348"/>
  <unicode hex="2090"/>
  <outline>
    <contour>
      <point x="161" y="257" type="curve" smooth="yes"/>
      <point x="206" y="257"/>
      <point x="225" y="229"/>
      <point x="225" y="191" type="curve" smooth="yes"/>
      <point x="225" y="160" type="line"/>
      <point x="209" y="161"/>
      <point x="190" y="163"/>
      <point x="171" y="163" type="curve" smooth="yes"/>
      <point x="106" y="163"/>
      <point x="32" y="148"/>
      <point x="32" y="75" type="curve" smooth="yes"/>
      <point x="32" y="14"/>
      <point x="83" y="-7"/>
      <point x="124" y="-7" type="curve" smooth="yes"/>
      <point x="172" y="-7"/>
      <point x="207" y="22"/>
      <point x="225" y="53" type="curve"/>
      <point x="226" y="16"/>
      <point x="246" y="-7"/>
      <point x="282" y="-7" type="curve" smooth="yes"/>
      <point x="298" y="-7"/>
      <point x="313" y="-3"/>
      <point x="325" y="4" type="curve"/>
      <point x="325" y="35" type="line"/>
      <point x="319" y="33"/>
      <point x="312" y="32"/>
      <point x="307" y="32" type="curve" smooth="yes"/>
      <point x="291" y="32"/>
      <point x="283" y="41"/>
      <point x="283" y="62" type="curve" smooth="yes"/>
      <point x="283" y="198" type="line" smooth="yes"/>
      <point x="283" y="264"/>
      <point x="240" y="296"/>
      <point x="169" y="296" type="curve" smooth="yes"/>
      <point x="130" y="296"/>
      <point x="88" y="285"/>
      <point x="58" y="263" type="curve"/>
      <point x="49" y="196" type="line"/>
      <point x="94" y="191" type="line"/>
      <point x="105" y="241" type="line"/>
      <point x="123" y="250"/>
      <point x="139" y="257"/>
    </contour>
    <contour>
      <point x="225" y="117" type="line" smooth="yes"/>
      <point x="225" y="65"/>
      <point x="186" y="34"/>
      <point x="146" y="34" type="curve" smooth="yes"/>
      <point x="120" y="34"/>
      <point x="93" y="47"/>
      <point x="93" y="82" type="curve" smooth="yes"/>
      <point x="93" y="125"/>
      <point x="133" y="134"/>
      <point x="173" y="134" type="curve" smooth="yes"/>
      <point x="190" y="134"/>
      <point x="209" y="132"/>
      <point x="225" y="130" type="curve"/>
    </contour>
    <contour>
      <point x="116" y="368" type="move" name="top"/>
    </contour>
  </outline>
</glyph>
<glyph name="x.inferior" format="1">
  <advance width="361"/>
  <unicode hex="2093"/>
  <outline>
    <contour>
      <point x="19" y="43" type="line"/>
      <point x="58" y="43" type="line"/>
      <point x="151" y="144" type="line"/>
      <point x="57" y="247" type="line"/>
      <point x="20" y="247" type="line"/>
      <point x="20" y="290" type="line"/>
      <point x="161" y="290" type="line"/>
      <point x="161" y="247" type="line"/>
      <point x="121" y="247" type="line"/>
      <point x="184" y="173" type="line"/>
      <point x="251" y="247" type="line"/>
      <point x="216" y="247" type="line"/>
      <point x="216" y="290" type="line"/>
      <point x="338" y="290" type="line"/>
      <point x="338" y="247" type="line"/>
      <point x="303" y="247" type="line"/>
      <point x="212" y="149" type="line"/>
      <point x="309" y="43" type="line"/>
      <point x="345" y="43" type="line"/>
      <point x="345" y="0" type="line"/>
      <point x="208" y="0" type="line"/>
      <point x="208" y="43" type="line"/>
      <point x="245" y="43" type="line"/>
      <point x="178" y="118" type="line"/>
      <point x="112" y="43" type="line"/>
      <point x="147" y="43" type="line"/>
      <point x="147" y="0" type="line"/>
      <point x="19" y="0" type="line"/>
    </contour>
  </outline>
</glyph>
<glyph name="h.inferior" format="1">
  <advance width="400"/>
  <unicode hex="2095"/>
  <outline>
    <contour>
      <point x="227" y="43" type="line"/>
      <point x="276" y="43" type="line"/>
      <point x="276" y="170" type="line" smooth="yes"/>
      <point x="276" y="231"/>
      <point x="249" y="253"/>
      <point x="210" y="253" type="curve" smooth="yes"/>
      <point x="162" y="253"/>
      <point x="131" y="220"/>
      <point x="128" y="179" type="curve"/>
      <point x="128" y="43" type="line"/>
      <point x="176" y="43" type="line"/>
      <point x="176" y="0" type="line"/>
      <point x="22" y="0" type="line"/>
      <point x="22" y="43" type="line"/>
      <point x="70" y="43" type="line"/>
      <point x="70" y="404" type="line"/>
      <point x="22" y="404" type="line"/>
      <point x="22" y="447" type="line"/>
      <point x="128" y="447" type="line"/>
      <point x="128" y="240" type="line"/>
      <point x="148" y="274"/>
      <point x="184" y="296"/>
      <point x="230" y="296" type="curve" smooth="yes"/>
      <point x="288" y="296"/>
      <point x="334" y="263"/>
      <point x="334" y="187" type="curve" smooth="yes"/>
      <point x="334" y="43" type="line"/>
      <point x="382" y="43" type="line"/>
      <point x="382" y="0" type="line"/>
      <point x="227" y="0" type="line"/>
    </contour>
    <contour>
      <point x="201" y="368" type="move" name="top"/>
    </contour>
  </outline>
</glyph>
<glyph name="l.inferior" format="1">
  <advance width="198"/>
  <unicode hex="2097"/>
  <outline>
    <contour>
      <point x="22" y="43" type="line"/>
      <point x="70" y="43" type="line"/>
      <point x="70" y="404" type="line"/>
      <point x="20" y="404" type="line"/>
      <point x="20" y="447" type="line"/>
      <point x="128" y="447" type="line"/>
      <point x="128" y="43" type="line"/>
      <point x="177" y="43" type="line"/>
      <point x="177" y="0" type="line"/>
      <point x="22" y="0" type="line"/>
    </contour>
    <contour>
      <point x="204" y="368" type="move" name="top"/>
    </contour>
  </outline>
</glyph>
<glyph name="m.inferior" format="1">
  <advance width="600"/>
  <unicode hex="2098"/>
  <outline>
    <contour>
      <point x="427" y="43" type="line"/>
      <point x="476" y="43" type="line"/>
      <point x="476" y="170" type="line" smooth="yes"/>
      <point x="476" y="230"/>
      <point x="450" y="253"/>
      <point x="413" y="253" type="curve" smooth="yes"/>
      <point x="363" y="253"/>
      <point x="337" y="213"/>
      <point x="335" y="176" type="curve"/>
      <point x="335" y="43" type="line"/>
      <point x="383" y="43" type="line"/>
      <point x="383" y="0" type="line"/>
      <point x="228" y="0" type="line"/>
      <point x="228" y="43" type="line"/>
      <point x="277" y="43" type="line"/>
      <point x="277" y="170" type="line" smooth="yes"/>
      <point x="277" y="231"/>
      <point x="252" y="253"/>
      <point x="214" y="253" type="curve" smooth="yes"/>
      <point x="163" y="253"/>
      <point x="138" y="214"/>
      <point x="136" y="177" type="curve"/>
      <point x="136" y="43" type="line"/>
      <point x="182" y="43" type="line"/>
      <point x="182" y="0" type="line"/>
      <point x="29" y="0" type="line"/>
      <point x="29" y="43" type="line"/>
      <point x="78" y="43" type="line"/>
      <point x="78" y="247" type="line"/>
      <point x="27" y="247" type="line"/>
      <point x="27" y="290" type="line"/>
      <point x="136" y="290" type="line"/>
      <point x="136" y="239" type="line"/>
      <point x="154" y="273"/>
      <point x="186" y="296"/>
      <point x="233" y="296" type="curve" smooth="yes"/>
      <point x="277" y="296"/>
      <point x="316" y="274"/>
      <point x="330" y="226" type="curve"/>
      <point x="348" y="267"/>
      <point x="381" y="296"/>
      <point x="433" y="296" type="curve" smooth="yes"/>
      <point x="489" y="296"/>
      <point x="534" y="263"/>
      <point x="534" y="187" type="curve" smooth="yes"/>
      <point x="534" y="43" type="line"/>
      <point x="582" y="43" type="line"/>
      <point x="582" y="0" type="line"/>
      <point x="427" y="0" type="line"/>
    </contour>
    <contour>
      <point x="208" y="368" type="move" name="top"/>
    </contour>
  </outline>
</glyph>
<glyph name="p.inferior" format="1">
  <advance width="394"/>
  <unicode hex="209A"/>
  <outline>
    <contour>
      <point x="22" y="-95" type="line"/>
      <point x="70" y="-95" type="line"/>
      <point x="70" y="247" type="line"/>
      <point x="19" y="247" type="line"/>
      <point x="19" y="290" type="line"/>
      <point x="128" y="290" type="line"/>
      <point x="128" y="231" type="line"/>
      <point x="146" y="265"/>
      <point x="178" y="296"/>
      <point x="234" y="296" type="curve" smooth="yes"/>
      <point x="308" y="296"/>
      <point x="362" y="243"/>
      <point x="362" y="153" type="curve" smooth="yes"/>
      <point x="362" y="74"/>
      <point x="321" y="-7"/>
      <point x="226" y="-7" type="curve" smooth="yes"/>
      <point x="182" y="-7"/>
      <point x="147" y="9"/>
      <point x="128" y="41" type="curve"/>
      <point x="128" y="-95" type="line"/>
      <point x="193" y="-95" type="line"/>
      <point x="193" y="-138" type="line"/>
      <point x="22" y="-138" type="line"/>
    </contour>
    <contour>
      <point x="212" y="39" type="curve" smooth="yes"/>
      <point x="271" y="39"/>
      <point x="300" y="87"/>
      <point x="300" y="148" type="curve" smooth="yes"/>
      <point x="300" y="216"/>
      <point x="264" y="250"/>
      <point x="218" y="250" type="curve" smooth="yes"/>
      <point x="165" y="250"/>
      <point x="129" y="204"/>
      <point x="128" y="161" type="curve" smooth="yes"/>
      <point x="128" y="118" type="line" smooth="yes"/>
      <point x="128" y="69"/>
      <point x="166" y="39"/>
    </contour>
    <contour>
      <point x="217" y="368" type="move" name="top"/>
    </contour>
  </outline>
</glyph>
<glyph name="s.inferior" format="1">
  <advance width="316"/>
  <unicode hex="209B"/>
  <outline>
    <contour>
      <point x="157" y="37" type="curve" smooth="yes"/>
      <point x="127" y="37"/>
      <point x="101" y="45"/>
      <point x="87" y="55" type="curve"/>
      <point x="88" y="93" type="line"/>
      <point x="43" y="98" type="line"/>
      <point x="34" y="28" type="line"/>
      <point x="62" y="9"/>
      <point x="118" y="-7"/>
      <point x="168" y="-7" type="curve"/>
      <point x="238" y="-7"/>
      <point x="284" y="26"/>
      <point x="284" y="84" type="curve" smooth="yes"/>
      <point x="284" y="201"/>
      <point x="101" y="142"/>
      <point x="101" y="216" type="curve" smooth="yes"/>
      <point x="101" y="242"/>
      <point x="124" y="253"/>
      <point x="161" y="253" type="curve" smooth="yes"/>
      <point x="177" y="253"/>
      <point x="194" y="251"/>
      <point x="216" y="242" type="curve"/>
      <point x="226" y="200" type="line"/>
      <point x="271" y="206" type="line"/>
      <point x="262" y="269" type="line"/>
      <point x="223" y="291"/>
      <point x="186" y="296"/>
      <point x="150" y="296" type="curve"/>
      <point x="97" y="296"/>
      <point x="38" y="273"/>
      <point x="38" y="210" type="curve" smooth="yes"/>
      <point x="38" y="98"/>
      <point x="225" y="153"/>
      <point x="225" y="80" type="curve" smooth="yes"/>
      <point x="225" y="50"/>
      <point x="195" y="37"/>
    </contour>
  </outline>
</glyph>
<glyph name="lira" format="1">
  <advance width="579"/>
  <unicode hex="20A4"/>
  <outline>
    <contour>
      <point x="533" y="104" type="line"/>
      <point x="516" y="70"/>
      <point x="463" y="0"/>
      <point x="376" y="0" type="curve" smooth="yes"/>
      <point x="36" y="0" type="line"/>
      <point x="36" y="61" type="line"/>
      <point x="107" y="95"/>
      <point x="125" y="160"/>
      <point x="127" y="230" type="curve"/>
      <point x="51" y="230" type="line"/>
      <point x="51" y="279" type="line"/>
      <point x="127" y="279" type="line"/>
      <point x="127" y="360" type="line"/>
      <point x="51" y="360" type="line"/>
      <point x="51" y="409" type="line"/>
      <point x="127" y="409" type="line"/>
      <point x="127" y="417" type="line" smooth="yes"/>
      <point x="127" y="591"/>
      <point x="219" y="660"/>
      <point x="321" y="660" type="curve" smooth="yes"/>
      <point x="386" y="660"/>
      <point x="448" y="649"/>
      <point x="490" y="612" type="curve"/>
      <point x="508" y="488" type="line"/>
      <point x="447" y="481" type="line"/>
      <point x="430" y="569" type="line"/>
      <point x="400" y="588"/>
      <point x="367" y="594"/>
      <point x="327" y="594" type="curve" smooth="yes"/>
      <point x="255" y="594"/>
      <point x="199" y="552"/>
      <point x="199" y="418" type="curve" smooth="yes"/>
      <point x="199" y="409" type="line"/>
      <point x="426" y="409" type="line"/>
      <point x="426" y="360" type="line"/>
      <point x="199" y="360" type="line"/>
      <point x="199" y="279" type="line"/>
      <point x="426" y="279" type="line"/>
      <point x="426" y="230" type="line"/>
      <point x="199" y="230" type="line"/>
      <point x="197" y="173"/>
      <point x="183" y="103"/>
      <point x="122" y="64" type="curve"/>
      <point x="361" y="64" type="line" smooth="yes"/>
      <point x="432" y="64"/>
      <point x="467" y="102"/>
      <point x="493" y="141" type="curve"/>
    </contour>
  </outline>
</glyph>
<glyph name="mill" format="1">
  <advance width="908"/>
  <unicode hex="20A5"/>
  <outline>
    <contour>
      <point x="879" y="0" type="line"/>
      <point x="879" y="57" type="line"/>
      <point x="801" y="57" type="line"/>
      <point x="801" y="285" type="line" smooth="yes"/>
      <point x="801" y="403"/>
      <point x="737" y="454"/>
      <point x="652" y="454" type="curve" smooth="yes"/>
      <point x="635" y="454"/>
      <point x="619" y="452"/>
      <point x="605" y="448" type="curve"/>
      <point x="656" y="565" type="line"/>
      <point x="602" y="565" type="line"/>
      <point x="530" y="402" type="line"/>
      <point x="516" y="386"/>
      <point x="504" y="367"/>
      <point x="495" y="347" type="curve"/>
      <point x="476" y="421"/>
      <point x="421" y="454"/>
      <point x="352" y="454" type="curve" smooth="yes"/>
      <point x="281" y="454"/>
      <point x="232" y="416"/>
      <point x="203" y="362" type="curve"/>
      <point x="203" y="445" type="line"/>
      <point x="54" y="445" type="line"/>
      <point x="54" y="388" type="line"/>
      <point x="133" y="388" type="line"/>
      <point x="133" y="57" type="line"/>
      <point x="55" y="57" type="line"/>
      <point x="55" y="0" type="line"/>
      <point x="285" y="0" type="line"/>
      <point x="285" y="57" type="line"/>
      <point x="203" y="57" type="line"/>
      <point x="203" y="263" type="line"/>
      <point x="205" y="320"/>
      <point x="249" y="395"/>
      <point x="332" y="395" type="curve" smooth="yes"/>
      <point x="390" y="395"/>
      <point x="431" y="361"/>
      <point x="431" y="264" type="curve" smooth="yes"/>
      <point x="431" y="175" type="line"/>
      <point x="379" y="57" type="line"/>
      <point x="367" y="57" type="line"/>
      <point x="367" y="29" type="line"/>
      <point x="297" y="-130" type="line"/>
      <point x="351" y="-130" type="line"/>
      <point x="408" y="0" type="line"/>
      <point x="579" y="0" type="line"/>
      <point x="579" y="57" type="line"/>
      <point x="502" y="57" type="line"/>
      <point x="502" y="214" type="line"/>
      <point x="576" y="382" type="line"/>
      <point x="591" y="390"/>
      <point x="609" y="395"/>
      <point x="630" y="395" type="curve" smooth="yes"/>
      <point x="689" y="395"/>
      <point x="731" y="360"/>
      <point x="731" y="264" type="curve" smooth="yes"/>
      <point x="731" y="57" type="line"/>
      <point x="666" y="57" type="line"/>
      <point x="666" y="0" type="line"/>
    </contour>
  </outline>
</glyph>
<glyph name="naira" format="1">
  <advance width="767"/>
  <unicode hex="20A6"/>
  <outline>
    <contour>
      <point x="718" y="586" type="line"/>
      <point x="718" y="650" type="line"/>
      <point x="469" y="650" type="line"/>
      <point x="469" y="586" type="line"/>
      <point x="567" y="586" type="line"/>
      <point x="567" y="420" type="line"/>
      <point x="363" y="420" type="line"/>
      <point x="193" y="650" type="line"/>
      <point x="53" y="650" type="line"/>
      <point x="53" y="586" type="line"/>
      <point x="139" y="586" type="line"/>
      <point x="139" y="420" type="line"/>
      <point x="56" y="420" type="line"/>
      <point x="56" y="371" type="line"/>
      <point x="139" y="371" type="line"/>
      <point x="139" y="281" type="line"/>
      <point x="56" y="281" type="line"/>
      <point x="56" y="233" type="line"/>
      <point x="139" y="233" type="line"/>
      <point x="139" y="64" type="line"/>
      <point x="64" y="64" type="line"/>
      <point x="64" y="0" type="line"/>
      <point x="312" y="0" type="line"/>
      <point x="312" y="64" type="line"/>
      <point x="209" y="64" type="line"/>
      <point x="209" y="233" type="line"/>
      <point x="418" y="233" type="line"/>
      <point x="590" y="0" type="line"/>
      <point x="637" y="0" type="line"/>
      <point x="637" y="233" type="line"/>
      <point x="719" y="233" type="line"/>
      <point x="719" y="281" type="line"/>
      <point x="637" y="281" type="line"/>
      <point x="637" y="371" type="line"/>
      <point x="719" y="371" type="line"/>
      <point x="719" y="420" type="line"/>
      <point x="637" y="420" type="line"/>
      <point x="637" y="586" type="line"/>
    </contour>
    <contour>
      <point x="209" y="371" type="line"/>
      <point x="316" y="371" type="line"/>
      <point x="383" y="281" type="line"/>
      <point x="209" y="281" type="line"/>
    </contour>
    <contour>
      <point x="399" y="371" type="line"/>
      <point x="567" y="371" type="line"/>
      <point x="567" y="281" type="line"/>
      <point x="465" y="281" type="line"/>
    </contour>
    <contour>
      <point x="209" y="512" type="line"/>
      <point x="213" y="512" type="line"/>
      <point x="280" y="420" type="line"/>
      <point x="209" y="420" type="line"/>
    </contour>
    <contour>
      <point x="563" y="149" type="line"/>
      <point x="501" y="233" type="line"/>
      <point x="567" y="233" type="line"/>
      <point x="567" y="149" type="line"/>
    </contour>
  </outline>
</glyph>
